<svg xmlns="http://www.w3.org/2000/svg" width="123" height="38" viewBox="0 0 123 38"><rect width="123" height="38" rx="5"/><g transform="translate(6.69 6.811)"><path d="M130.474,426.594c-2.01,3.489-.734,8.782,1.49,11.991,1.108,1.6,2.233,3.044,3.77,3.044l.088,0a4.624,4.624,0,0,0,1.749-.465,4.8,4.8,0,0,1,2.076-.492,4.5,4.5,0,0,1,1.971.476,4.2,4.2,0,0,0,1.892.454c1.732-.033,2.8-1.587,3.734-2.958a13.113,13.113,0,0,0,1.639-3.352l.005-.022a.2.2,0,0,0-.1-.239l-.014-.005a4.967,4.967,0,0,1-3.011-4.548,5.119,5.119,0,0,1,2.417-4.276l.019-.011a.2.2,0,0,0,.085-.126.192.192,0,0,0-.03-.148,5.614,5.614,0,0,0-4.421-2.4,3.576,3.576,0,0,0-.388-.019,7.724,7.724,0,0,0-2.774.693,4.451,4.451,0,0,1-1.331.4,4.338,4.338,0,0,1-1.375-.4,6.667,6.667,0,0,0-2.425-.616l-.061,0A5.937,5.937,0,0,0,130.474,426.594Z" transform="translate(-129.471 -417.856)" fill="#fff"/><path d="M137.811,421.443a5.428,5.428,0,0,0-3.583,1.837,5.1,5.1,0,0,0-1.287,3.772.191.191,0,0,0,.179.168,2.5,2.5,0,0,0,.25.011,4.593,4.593,0,0,0,3.382-1.735,5.361,5.361,0,0,0,1.262-3.88A.2.2,0,0,0,137.811,421.443Z" transform="translate(-123.454 -421.443)" fill="#fff"/></g><g transform="translate(34.001 4.195)"><text transform="translate(30 7)" fill="#fff" font-size="7" font-family="Montserrat-Light, Montserrat" font-weight="300"><tspan x="-30.03" y="0">Download on the</tspan></text><text transform="translate(31.011 21.846)" fill="#fff" font-size="12" font-family="Montserrat-SemiBold, Montserrat" font-weight="600"><tspan x="-30.654" y="0">App Store</tspan></text></g></svg>