<svg xmlns="http://www.w3.org/2000/svg" width="338.625" height="316.896" viewBox="0 0 338.625 316.896"><g transform="translate(-770.112 -1436.953)"><path d="M146.087,218.565c-23.52,16.206-37.748,15.786-52.933,27.662s-30.371,9.4-41.759,0-15.66-28.207-15.66-44.042-1.422-23.752-15.184-44.536S-9.818,95.791,7.266,59.666,41.431,18.593,72.749,23.542s51.723,1.979,78.77-13.361,58.841-14.846,89.21,11.876S232.187,95.3,232.187,95.3,203.37,164.08,187.235,181.4,169.607,202.358,146.087,218.565Z" transform="translate(1108.737 1680.078) rotate(163)" fill="#cbcbcb"/><path d="M190.859,350.277c-23.52-16.206-37.748-15.786-52.933-27.662s-30.371-9.4-41.759,0-15.66,28.207-15.66,44.042-1.422,23.752-15.185,44.536-30.369,61.858-13.285,97.983S86.2,550.248,117.521,545.3s51.723-1.979,78.77,13.361,58.841,14.846,89.21-11.876-8.542-73.238-8.542-73.238-28.817-68.785-44.952-86.105S214.379,366.484,190.859,350.277Z" transform="translate(893.609 1123.002) rotate(17)" fill="#8de3b1"/><g transform="translate(765.574 1194.016)"><ellipse cx="145.626" cy="23.341" rx="145.626" ry="23.341" transform="translate(48.598 461.678)" fill="#e4e5e7" style="mix-blend-mode:multiply;isolation:isolate"/><g transform="translate(44.772 293.984)"><path d="M118.958,366.529s3.045-37.747-7.779-46.213-21.65-6.7-29.769,0-11.163,20.108-11.163,31.4-1.014,16.932-10.825,31.748-21.649,44.1-9.471,69.849,24.356,29.279,46.681,25.751,36.872-1.411,56.153,9.525,41.946,10.583,63.6-8.466,5.074-45.861-6.089-52.209-49.725-20.814-61.227-33.162S118.958,366.529,118.958,366.529Z" transform="translate(-44.772 -288.041)" fill="#9343cc"/><path d="M175.712,418.674c3.673-1.072,7.488-2.776,9.372-6.106,5.565-9.844-9.446-10.106-14.994-10.392a52.714,52.714,0,0,0-27.963,6.333c-1.63.9-3.385,2.146-3.558,4-.231,2.485,2.448,4.156,4.788,5.023A52,52,0,0,0,175.712,418.674Z" transform="translate(-17.746 -257.117)" fill="#abcedb" style="mix-blend-mode:multiply;isolation:isolate"/><path d="M174.844,332.543a2.421,2.421,0,0,0-.988-1.327,1.8,1.8,0,0,0-2.154.692,5.346,5.346,0,0,0-.774,2.316,198.661,198.661,0,0,1-9.989,36.636c-.582,1.537-1.31,3.206-2.8,3.9-1.7.784-3.673-.013-5.358-.824q-7.225-3.484-14.178-7.5c-2.013-1.162-4.4-2.393-6.547-1.506a6.487,6.487,0,0,0-2.266,1.8,23.84,23.84,0,0,0-4.308,6.947,4.021,4.021,0,0,0-.4,1.975,4.29,4.29,0,0,0,1.21,2.14c7.187,8.295,16.533,15.6,27.452,16.695,4.1.411,8.542-.2,11.654-2.891,2.259-1.957,3.562-4.784,4.585-7.594q.539-1.476,1-2.98c3.9-12.633,4.2-25.876,4.94-38.947C176.062,339.68,176.064,335.55,174.844,332.543Z" transform="translate(-21.633 -280.696)" fill="#f8977c"/><path d="M194.365,424.521a35.552,35.552,0,0,1-1.523,8.627c-1.353,4.059-5.412,9.81-1.014,12.516s42.614,2.821,44.651.676c3.214-3.383-6.934-5.582-15.729-9.3s-13.362-15.73-13.531-16.914S194.365,424.521,194.365,424.521Z" transform="translate(-2.967 -250.232)" fill="#f8977c"/><path d="M234.842,419.305s8.964,7.779,10.995,13.024,2.368,15.221,7.949,15.391,30.782-20.3,33.15-21.988,1.861-4.229-1.691-3.89-14.715,4.059-22.157,1.015-17.42-15.9-17.42-15.9Z" transform="translate(10.003 -253.979)" fill="#f8977c"/><path d="M164.425,424.65s55.477-34.843,57.168-33.828,37.21,50.742,40.254,50.4S279.776,418.9,279.776,418.9s-45.415-61.856-52.77-63.258c-10.656-2.029-62.919,28.415-69.008,33.151s-20.973,12.853-20.973,12.853,6.089,9.472,12.516,13.531S164.425,424.65,164.425,424.65Z" transform="translate(-18.186 -271.093)" fill="#8c482b"/><path d="M137.377,398.336s11.163-6.851,14.715-9.641,32.708-34.179,36.788-35.773c5.412-2.114,10.91,1.776,15.222,10.91s8.879,29.684,15.982,47.443,11.925,27.147,11.925,27.147-10.148,5.074-17.759,7.864-10.656,2.79-10.656,2.79-9.133-24.863-11.925-35.01-3.805-14.969-3.805-14.969-8.118,14.207-14.461,20.549-13.7,14.461-19.535,10.148-11.163-6.849-12.685-8.879S132.05,401.38,137.377,398.336Z" transform="translate(-18.623 -269.713)" fill="#985a41"/><path d="M103.088,389.036s36.027,2.79,47.443,6.342,22.581,12.178,26.64,17.76a99.154,99.154,0,0,1,7.611,12.939s-20.8.761-38.563,1.015-28.161.254-34.25-2.284-14.461-4.567-17.251-7.1S103.088,389.036,103.088,389.036Z" transform="translate(-30.508 -260.969)" fill="#8641b8"/><path d="M169.252,319.916l-4.567,38.9-16.237-2.875,2.2-40.762Z" transform="translate(-14.894 -287.876)" fill="#4c505e"/><path d="M150.907,315.18l-1.269.19-2.093,40.466,1.163.106Z" transform="translate(-15.155 -287.876)" fill="#5e626e"/><path d="M109.124,344.024s8.955-.868,11.586-1.353c3.214-.593,5.328-1.354,8.711,2.029s5.835,7.866,9.556,10.741,6.089,4.567,6.089,4.567a83.126,83.126,0,0,1-6.766,8.457,49.767,49.767,0,0,1-8.287,7.1Z" transform="translate(-26.227 -277.334)" fill="#56c7b5"/><path d="M90.775,338.666s1.332-.063,7.8,4.44c4.451,3.1,16.428,2.853,20.487,2.6a37.6,37.6,0,0,0,6.089-.76s4.313,16.744,12.938,28.922,23.848,22.579,23.848,22.579-8.879,5.074-18.013,6.851-30.445,3.044-38.817-2.791S94.962,389.343,94.454,386.3s-1.269-20.043-1.269-20.043Z" transform="translate(-31.515 -277.914)" fill="#56c7b5"/><path d="M96.677,346.587a44.481,44.481,0,0,0,10.473,10.72c2.732,1.937,7.277,5.394,10.881,4.626,2.75-2.176-.663-8.577-1.368-11.75a6.888,6.888,0,0,0-.8-2.185,14.08,14.08,0,0,1-3.676-7.9c-.33-2.764.135-5.74-1.165-8.2a9.146,9.146,0,0,0-3.287-3.3,16.8,16.8,0,0,0-12.093-2.3l-.616-.481A106.823,106.823,0,0,1,96.677,346.587Z" transform="translate(-30.29 -282.951)" fill="#f8977c"/><path d="M82.415,349.9a145.7,145.7,0,0,0,1.86,27.316c1.438,8.8,2.659,16.084,6.584,23.1a9.179,9.179,0,0,0,3.64,4,10.6,10.6,0,0,0,4.211.786l33.35,1.619a125.017,125.017,0,0,0,18.534-.018,13.877,13.877,0,0,0,4.75-1.119,14.951,14.951,0,0,0,4.581-4.067,173.287,173.287,0,0,0,12.589-16.916l-13.572,8.185c-2.618,1.579-5.3,3.184-8.3,3.785-3.142.63-6.387.108-9.548-.415-8.489-1.4-28.066-4.641-33.562-6.079-.593-1.776-1.51-6.268-1.963-8.657a195.053,195.053,0,0,1-2.857-21.535c-.229-2.994-.428-6.127-1.976-8.7-1.47-2.441-5.792-4.139-8.626-4.427a9.369,9.369,0,0,0-7.71,2.925" transform="translate(-33.937 -275.177)" fill="#f8977c"/><path d="M104.971,364.321s-1.353-17.251-8.118-23.509-11.417-3.722-14.122,2.029S82.9,368.8,82.9,368.8a26.833,26.833,0,0,1,10.063-3.468A86.3,86.3,0,0,1,104.971,364.321Z" transform="translate(-34.168 -279.085)" fill="#56c7b5"/><path d="M209.52,411.275c-7.1-17.759-11.67-38.309-15.982-47.443s-9.811-13.024-15.222-10.91c-.891.348-2.98,2.118-5.734,4.7-.173,1.626-.334,3.251-.385,4.883a100.1,100.1,0,0,0,1.045,15.533A194.963,194.963,0,0,0,177.3,399.1s1.015,4.82,3.805,14.969,11.925,35.01,11.925,35.01,3.044,0,10.656-2.79,17.759-7.864,17.759-7.864S216.624,429.034,209.52,411.275Z" transform="translate(-8.058 -269.713)" fill="#985a41"/><path d="M167.916,338.838c-.021-2.647.6-6.057-.372-8.592-1.037-2.71-5.672-4.77-8.17-5.946-1.641-.774-2.878-1.536-3.978.331a6.636,6.636,0,0,0-.344,4.394c.263,1.337.59,3.615,1.359,4.706.9,1.283,2.788,2.316,3.893,3.586,2.489,2.855,4.524,5.81,4.25,9.758,1.867-.667,2.91-5.819,3.2-7.729.33-2.194.692-5.891,0-7.949" transform="translate(-13.051 -283.887)" fill="#f8977c"/><g transform="translate(51.124 124.949)"><path d="M84.5,387.961A13.9,13.9,0,0,0,96.99,396.95c2,.066,4.214.541,6.206.2a.274.274,0,0,0,0-.526c-1.66-.307-3.339.169-4.989-.156a34.254,34.254,0,0,1-4.692-1.386c-3.81-1.375-6.333-4.077-8.3-7.538-.273-.48-.924-.058-.72.42Z" transform="translate(-84.459 -387.33)" fill="#5ea1bb"/></g><g transform="translate(124.189 193.801)"><path d="M141.466,439.671c5.356,1.974,9.928,5.124,15.9,4.014a31.221,31.221,0,0,0,6.389-2.177c1.2-.508,3.107-1.067,3.46-2.508a.281.281,0,0,0-.408-.314c-1.626.962-2.815,2.024-4.706,2.585a40.6,40.6,0,0,1-5.365,1.154c-5.407.823-10.075-1.967-15.047-3.568-.522-.168-.725.629-.224.814Z" transform="translate(-141.179 -438.647)" fill="#5ea1bb"/></g><path d="M124.113,298.071a23.449,23.449,0,0,0-8.51-3.822,6.558,6.558,0,0,0-3.253-.1,2.746,2.746,0,0,0-2.068,2.29c-.045.794.353,1.659-.048,2.346a1.578,1.578,0,0,1-1.617.625,5.242,5.242,0,0,1-1.684-.721c-2.764-1.55-6.006-2.6-9.1-1.9a8.666,8.666,0,0,0-3.662,1.821,4.9,4.9,0,0,0-1.5,1.967c-.665,1.771.2,3.852-.493,5.611-.742,1.87-2.96,2.705-4.073,4.381a4.438,4.438,0,0,0-.138,4.585c.746,1.286,2.174,2.256,2.328,3.734.148,1.435-.992,2.7-1.122,4.14-.17,1.894,1.393,3.447,2.825,4.7l3.713,3.238a6.854,6.854,0,0,0,3.3,1.923,5.619,5.619,0,0,0,2.723-.428c5.22-1.905,9.15-6.382,14.291-8.488,1.61-.66,3.379-1.113,4.637-2.314a7.78,7.78,0,0,0,2.016-4.233,17.08,17.08,0,0,0,.009-6.455c-.339-1.765-.89-3.817.277-5.184.607-.711,1.56-1.046,2.185-1.74a2.812,2.812,0,0,0-.7-4.151" transform="translate(-32.488 -293.984)" fill="#cf4848"/><path d="M96.59,307.981A46.667,46.667,0,0,0,93.2,325.537a26.968,26.968,0,0,0,5.874,16.648,15.849,15.849,0,0,0,3.365,3.072,13.666,13.666,0,0,0,12.856.853,16.446,16.446,0,0,0,8.633-9.8,27.033,27.033,0,0,0,1.068-4.88,52.431,52.431,0,0,0-1.073-19.859c-.9-3.594-2.451-7.412-5.741-9.113a12.1,12.1,0,0,0-6.9-.858c-6.575.734-13.13,3.925-16.648,9.527" transform="translate(-30.818 -291.827)" fill="#f9a58e"/><path d="M95.074,321.294a3.738,3.738,0,0,0-3.339-1.582,4.254,4.254,0,0,0-3.079,1.448,3.356,3.356,0,0,0-.6,3.285,3.971,3.971,0,0,0,2.472,2.165,10.809,10.809,0,0,0,3.349.433,2.81,2.81,0,0,0,1.186-.152,2.457,2.457,0,0,0,1.177-1.611,4.877,4.877,0,0,0,.2-2.462,2.753,2.753,0,0,0-1.43-1.941" transform="translate(-32.356 -285.292)" fill="#f9a58e"/><path d="M96.725,320.755a12.96,12.96,0,0,0,.822-2.194,14.858,14.858,0,0,0-2.5-12.914.245.245,0,0,0-.433-.224c-2.089,2.744-2.527,6.973-2.887,10.3a17.385,17.385,0,0,0,1.717,10.385A56.91,56.91,0,0,0,96.725,320.755Z" transform="translate(-31.282 -290.72)" fill="#cf4848"/><path d="M94.191,312.209a25.73,25.73,0,0,0,9.223,2.449,4.828,4.828,0,0,0,3.557-.77c.38-.328.661-.764,1.061-1.068a4.606,4.606,0,0,1,3.195-.473,35.832,35.832,0,0,0,7.022-.133,6.456,6.456,0,0,0,3.425-1.15,2.522,2.522,0,0,0,.692-3.251c-.223-.308-.555-.693-.336-1a.681.681,0,0,1,.424-.224c1.1-.246,2.348.013,3.3-.594a2.685,2.685,0,0,0,1.077-2.529,5.718,5.718,0,0,0-1.122-2.634,13.651,13.651,0,0,0-4.306-3.98c-2.628-1.535-6.161-2.071-8.613-.269-2.411,1.773-3.228,5.358-5.959,6.581-2.142.961-4.65.085-6.974.415a6.68,6.68,0,0,0-4.909,3.447A6.407,6.407,0,0,0,95.015,313" transform="translate(-30.53 -293.564)" fill="#cf4848"/><path d="M106.478,317.381a1.965,1.965,0,0,0-1.163.607,2.522,2.522,0,0,0,.077,3.6,1.344,1.344,0,0,0,1.632.229,2.406,2.406,0,0,0,1.394-1.874C108.554,318.852,107.751,317.241,106.478,317.381Z" transform="translate(-27.531 -287.244)" fill="#4c505e"/><path d="M115.667,317.307a1.961,1.961,0,0,0-1.163.607,2.52,2.52,0,0,0,.076,3.6,1.551,1.551,0,0,0,.4.285,1.522,1.522,0,0,0,1.229-.054,2.418,2.418,0,0,0,1.394-1.876C117.742,318.778,116.939,317.167,115.667,317.307Z" transform="translate(-24.883 -287.265)" fill="#4c505e"/><g transform="translate(83.672 27.507)" style="mix-blend-mode:multiply;isolation:isolate"><path d="M110.3,315.471c-.322,1.923-1,5.289.164,7.037a3.019,3.019,0,0,0,1.523,1.074c.951.42,4.93,1.18.944,3.054a9.889,9.889,0,0,1-2.936.379.278.278,0,0,0,.008.556c1.453.155,6.02-.484,5.251-2.893-.283-.889-1.087-1.038-1.793-1.47-1.9-1.166-2.855-1.55-2.914-3.734-.033-1.2.023-2.444.062-3.738.009-.277-.255-.578-.308-.265Z" transform="translate(-109.725 -315.338)" fill="#ceb0a4"/></g><g transform="translate(76.288 25.343)"><path d="M108.182,314.224a2.742,2.742,0,0,0-2.931-.249,2.121,2.121,0,0,0-1.177,2.35.334.334,0,0,0,.491.191c1.013-.8,1.755-1.736,3.195-1.25.651.219.913-.7.423-1.042Z" transform="translate(-103.993 -313.657)" fill="#cf4848"/></g><g transform="translate(89.226 25.64)"><path d="M114.677,315.359c.586-.2,1.279-.46,1.831-.061.38.274.509.663.98.8a.353.353,0,0,0,.421-.247c.252-.766-.461-1.559-1.134-1.828a3.052,3.052,0,0,0-2.5.426c-.508.253-.137,1.092.4.911Z" transform="translate(-114.037 -313.888)" fill="#cf4848"/></g><g transform="translate(76.818 43.125)"><path d="M104.491,326.889c2.986,3.506,8.448,3.794,12.363,1.66.2-.108.066-.415-.139-.4-4.228.282-8.11,1.524-11.605-1.807-.335-.319-.928.183-.618.547Z" transform="translate(-104.405 -326.24)" fill="#a36c56"/></g><path d="M220.751,434.834a21.406,21.406,0,0,1-8.5-7.223c-.081.04-.158.072-.241.115-2.193,1.149-1.422,1.382-2.978,2.424a8.572,8.572,0,0,1-4.5,1.707,19.589,19.589,0,0,1-11.308-2.191c-.116.428-.241.855-.383,1.278-1.353,4.059-5.412,9.81-1.014,12.516s42.614,2.821,44.651.676C239.694,440.753,229.545,438.554,220.751,434.834Z" transform="translate(-2.967 -248.027)" fill="#56c7b5"/><path d="M282.729,419.156c-3.551.339-14.715,4.059-22.157,1.015a24.7,24.7,0,0,1-6.009-3.893,7.464,7.464,0,0,0-.759,3.452,8.672,8.672,0,0,1-1.734,4.908,16.568,16.568,0,0,1-8.5,5.713c1.816,5.382,2.359,14.52,7.7,14.683,5.582.169,30.782-20.3,33.15-21.988S286.282,418.817,282.729,419.156Z" transform="translate(12.518 -251.293)" fill="#56c7b5"/><g transform="translate(203.061 172.354)"><path d="M209.525,433.75c-2.959-1.165-4.85-3.786-6.286-6.513l-.389.676c2.944-.268,5.115,3.9,7.54,5.2a.368.368,0,0,0,.443-.574,27.776,27.776,0,0,1-2.28-3.375c-.52-.92-2.308-3.792-1.627-4.9,1.389-2.248,2.781,2.959,3.075,3.865a27.51,27.51,0,0,0,1.44,3.728c.146.3.562.077.5-.214a25.5,25.5,0,0,1-.34-6.322l-.657.178c1.891,3.226.672,6.521-.29,9.822-.086.3.345.6.558.325.17-.218,1.131-1.658,1.416-1.673,1.295-.067-.008,2.24-.147,2.49-.286.518.42,1.114.842.651a28.017,28.017,0,0,1,2.106-2.088l-.918-.243q-.139,1.215-.277,2.428a.567.567,0,0,0,.826.635,17.991,17.991,0,0,1,2.744-2.254l-.844-.484c-.156,1.288-.322,1.851-.443,3.022a.559.559,0,0,0,.837.481c.955-.7,1.688-1.591,2.618-2.316l-.806-.1-.178.991c-.228.367.317.806.611.47.616-.709.794-.984.506-1.858a.52.52,0,0,0-.755-.307c-.916.661-1.641,1.5-2.557,2.162l.837.48c.082-.778.343-2.141.452-3.022.058-.462-.509-.645-.844-.484-1.148.55-1.739,1.485-2.745,2.252l.826.635a4.419,4.419,0,0,0,.251-3.018.556.556,0,0,0-.919-.244,28.012,28.012,0,0,0-2.087,2.108l.842.651a7.137,7.137,0,0,0,1.243-4.157.447.447,0,0,0-.557-.424c-1.6.319-2.476,1.564-3.406,2.817l.609.258c.929-3.551,2.272-6.952.256-10.356a.355.355,0,0,0-.657.178,15.447,15.447,0,0,0,.081,4.448c.139.511.652,2.109.25.459-.178-.732-.519-1.5-.723-2.239-.616-2.235-1.206-4.181-2.837-5.892a.366.366,0,0,0-.51,0c-3.032,2.985,1.228,8.51,3.153,10.955.148-.191.295-.383.443-.573-2.648-1.4-4.542-5.712-7.909-5.47a.455.455,0,0,0-.388.676c1.387,2.762,3.607,6.121,6.879,6.726a.346.346,0,0,0,.184-.666Z" transform="translate(-202.406 -421.999)" fill="#a3e1d7"/></g><g transform="translate(262.168 158.199)"><path d="M258.834,422.617a45.969,45.969,0,0,1-4.533-2.526c-1.1-.629-2.9-.987-3.812-1.845-2.165-2.047,2.8-.585,3.622-.155a9.038,9.038,0,0,1,3.792,3.339l.7-.542a16.7,16.7,0,0,1-5.85-8.425l-.687.527c2.652,2.016,3.657,5.34,5.978,7.661.346.346.8-.09.632-.487-1.089-2.534-2.96-4.635-2.65-7.566l-.627.359c3.039,1.757,4.427,7.575,4.248,10.848a.479.479,0,0,0,.937.126,12.614,12.614,0,0,1,1.516-3.993h-.87a7.248,7.248,0,0,1,.64,4.38c-.052.616.893.711,1.054.143a32.8,32.8,0,0,1,1.036-3.366h-1.037c.231,1.05.348,2.115.538,3.173a.56.56,0,0,0,1.073,0,6.626,6.626,0,0,1,1.27-3.282l-.938-.247a25.547,25.547,0,0,0,1,3.58.577.577,0,0,0,1.1,0,2.393,2.393,0,0,0,.183-1.592c-.036-.435-.725-.6-.819-.111l-.408,1.262,1.045.137a31.092,31.092,0,0,1-1.019-3.575.565.565,0,0,0-.938-.247,7.093,7.093,0,0,0-1.55,3.781h1.073c-.206-1.054-.347-2.115-.575-3.164-.125-.573-.857-.443-1.037,0a29.358,29.358,0,0,0-1.033,3.367l1.054.142a8.153,8.153,0,0,0-.844-4.889.509.509,0,0,0-.87,0,13.507,13.507,0,0,0-1.566,4.248l.937.128c.185-3.643-1.332-9.651-4.782-11.567a.42.42,0,0,0-.626.359c-.1,3.079,1.628,5.124,2.748,7.875l.672-.392c-2.36-2.446-3.321-5.794-6.076-7.9-.345-.263-.774.17-.687.528a17.12,17.12,0,0,0,6.118,8.81c.375.3.979-.073.7-.544-1.7-2.907-6.888-6.21-10.166-4.094a.438.438,0,0,0-.156.594c1.054,1.436,2.567,1.945,4.134,2.707,2.057,1,3.87,2.382,6.021,3.2.442.169.764-.581.325-.77Z" transform="translate(-248.29 -412.103)" fill="#a3e1d7"/></g></g></g></g></svg>