<svg xmlns="http://www.w3.org/2000/svg" width="356.789" height="356.606" viewBox="0 0 356.789 356.606"><g transform="translate(-505 -2622.006)"><g transform="translate(-573.375 -1120)"><path d="M146.087,218.565c-23.52,16.206-37.748,15.786-52.933,27.662s-30.371,9.4-41.759,0-35.521-36.569-35.521-52.4,6.829-2.635,4.677-36.174S-9.818,95.791,7.266,59.666,41.431,18.593,72.749,23.542s51.723,1.979,78.77-13.361,58.841-14.846,89.21,11.876S232.187,95.3,232.187,95.3,203.37,164.08,187.235,181.4,169.607,202.358,146.087,218.565Z" transform="translate(1436.391 3914.077) rotate(133)" fill="#cbcbcb"/><path d="M190.859,350.277c-23.52-16.206-37.748-15.786-52.933-27.662s-30.371-9.4-41.759,0-15.66,28.207-15.66,44.042-1.422,23.752-15.185,44.536-30.369,61.858-13.285,97.983S86.2,550.248,117.521,545.3s51.723-1.979,78.77,13.361,58.841,14.846,89.21-11.876-8.542-73.238-8.542-73.238-28.817-68.785-44.952-86.105S214.379,366.484,190.859,350.277Z" transform="matrix(0.974, -0.225, 0.225, 0.974, 971.547, 3539.199)" fill="#8de3b1"/></g><g transform="translate(392.855 2670.399)"><path d="M4.36,0H161.984a4.361,4.361,0,0,1,4.361,4.361v98.6a4.361,4.361,0,0,1-4.361,4.361H4.36A4.36,4.36,0,0,1,0,102.959V4.36A4.36,4.36,0,0,1,4.36,0Z" transform="translate(208.145 82.601)" fill="#e64b1c"/><path d="M4.36,0H161.984a4.361,4.361,0,0,1,4.361,4.361v98.6a4.361,4.361,0,0,1-4.361,4.361H4.36A4.36,4.36,0,0,1,0,102.959V4.36A4.36,4.36,0,0,1,4.36,0Z" transform="translate(208.145 82.601)" fill="#9343cc"/><path d="M249.725,85.873c.037.093.067.168.1.236.024.051.049.107.076.169q.24.542.489,1.077c.334.712.672,1.425,1.032,2.125a70.588,70.588,0,0,0,5.52,9.091c.215.3,1.615,2.122,1.286,1.728.524.653,1.051,1.3,1.6,1.936,1.182,1.374,2.4,2.72,3.67,4.011a88.715,88.715,0,0,0,8.253,7.417c.12.1.215.17.29.231.058.041.12.089.194.145.338.253.676.5,1.017.754.686.5,1.373,1,2.072,1.477,1.62,1.118,3.26,2.21,4.945,3.227,3.713,2.242,7.5,4.361,11.42,6.228,1.315.627,2.639,1.234,3.977,1.811.276.109,1.09.445,1.173.479.631.247,1.262.495,1.9.73,2.521.933,5.072,1.791,7.662,2.512,2.813.783,5.655,1.466,8.528,1.992,1.346.247,2.7.48,4.052.672l.3.044c.117.012.269.029.471.053.7.08,1.394.16,2.093.226a115.361,115.361,0,0,0,16.614.489c2.361-.115,4.721-.3,7.068-.587.137-.016.48-.064.758-.1.383-.057.766-.111,1.147-.174,1.12-.183,2.239-.375,3.351-.6a91.065,91.065,0,0,0,13.863-3.842c.722-.269,1.445-.538,2.16-.827.152-.061.7-.3.962-.407.85-.378,1.7-.762,2.532-1.174q2.132-1.052,4.2-2.231V86.96a4.36,4.36,0,0,0-4.36-4.359H248.512C248.888,83.7,249.287,84.8,249.725,85.873Z" fill="#9343cc" opacity="0.5" style="mix-blend-mode:soft-light;isolation:isolate"/><path d="M370.274,156.1a87.53,87.53,0,0,1-38.8,6.994,174.079,174.079,0,0,1-36.2-5.591,123.673,123.673,0,0,1-31.619-12.671,91.435,91.435,0,0,1-25.687-22.089,86.9,86.9,0,0,1-12.535-23.115A74.541,74.541,0,0,1,221,82.6h-8.491a4.361,4.361,0,0,0-4.361,4.359v98.6a4.361,4.361,0,0,0,4.361,4.36H370.131a4.36,4.36,0,0,0,4.36-4.36V153.947A40.3,40.3,0,0,1,370.274,156.1Z" fill="#9343cc" style="mix-blend-mode:multiply;isolation:isolate"/><path d="M252.076,134.544H224.832a.589.589,0,0,0-.589.589v27.243a.589.589,0,0,0,.589.589h27.244a.589.589,0,0,0,.589-.589V135.133A.589.589,0,0,0,252.076,134.544Z" fill="#5d5c5c" style="mix-blend-mode:multiply;isolation:isolate"/><rect width="28.421" height="28.421" rx="0.589" transform="translate(225.501 132.352)" fill="#fca01f"/><rect width="23.595" height="23.596" rx="0.489" transform="translate(227.915 134.889)" fill="#ffe011"/><path d="M240.74,153.419a27.96,27.96,0,0,1-12.046-11.8,32.74,32.74,0,0,1-3.193-8.292v26.858a.589.589,0,0,0,.589.588h27.243a.587.587,0,0,0,.59-.588v-4.106A23.065,23.065,0,0,1,240.74,153.419Z" fill="#d2d1d1" style="mix-blend-mode:multiply;isolation:isolate"/><path d="M234.428,133.618c.7-.04,1.4-.068,2.107-.1l1.053-.037c.352-.013.7-.021,1.055-.031l1.053-.029,1.054-.023,1.054-.021c.351-.008.7-.012,1.053-.015l2.108-.026,2.107-.008,1.054,0,1.054,0,2.108.01h.035c.043.007.068.013.1.019l.09.022c.059.015.117.033.173.052a2.706,2.706,0,0,1,.335.137,2.331,2.331,0,0,1,.6.422,1.978,1.978,0,0,1,.417.617,2.194,2.194,0,0,1,.161.713c0,.06,0,.119,0,.179l0,.163-.006.325-.013.65c-.009.432-.015.866-.028,1.3l-.035,1.3c-.011.434-.028.866-.043,1.3s-.032.866-.051,1.3-.04.866-.063,1.3q-.036-.649-.064-1.3t-.05-1.3c-.015-.434-.033-.866-.043-1.3l-.036-1.3c-.013-.433-.018-.867-.028-1.3l-.013-.65-.006-.325,0-.162-.009-.145a1.7,1.7,0,0,0-.135-.545,1.433,1.433,0,0,0-.318-.445,1.763,1.763,0,0,0-.467-.311,2.061,2.061,0,0,0-.268-.1c-.046-.014-.092-.026-.14-.037l-.068-.016-.06-.009.037,0-2.108.009-1.054,0-1.054,0-2.107-.009-2.108-.025c-.351,0-.7-.008-1.053-.015l-1.054-.021-1.054-.023-1.053-.028c-.352-.01-.7-.018-1.055-.032l-1.053-.037C235.833,133.685,235.131,133.657,234.428,133.618Z" fill="#fff"/><rect width="1.051" height="28.421" transform="translate(239.186 132.352)" fill="#dd9700"/><rect width="28.421" height="1.052" transform="translate(225.502 146.037)" fill="#dd9700"/><g style="mix-blend-mode:multiply;isolation:isolate"><path d="M246.712,154.632h-14a.947.947,0,0,1-.947-.946v-14a.948.948,0,0,1,.947-.948h14a.948.948,0,0,1,.946.948v14A.947.947,0,0,1,246.712,154.632Zm-13.658-1.287h13.317V140.028H233.054Z" fill="#dd9700"/></g><g style="mix-blend-mode:multiply;isolation:isolate"><path d="M243.294,150.629H236.13a.487.487,0,0,1-.485-.484v-7.164a.486.486,0,0,1,.485-.484h7.164a.484.484,0,0,1,.484.484v7.164A.485.485,0,0,1,243.294,150.629Zm-6.989-.659h6.814v-6.814H236.3Z" fill="#dd9700"/></g><g style="mix-blend-mode:multiply;isolation:isolate"><path d="M316.578,123.957a10.5,10.5,0,1,1,10.5-10.5A10.517,10.517,0,0,1,316.578,123.957Zm0-20.249a9.744,9.744,0,1,0,9.744,9.744A9.756,9.756,0,0,0,316.578,103.708Z" fill="#5d5c5c"/><path d="M316.578,123.957c-3.541,0-6.421-4.712-6.421-10.5s2.88-10.5,6.421-10.5,6.42,4.711,6.42,10.5S320.118,123.957,316.578,123.957Zm0-20.249c-3.166,0-5.741,4.371-5.741,9.744s2.575,9.745,5.741,9.745,5.741-4.371,5.741-9.745S319.744,103.708,316.578,103.708Z" fill="#5d5c5c"/><path d="M316.578,123.957c-1.9,0-2.924-5.412-2.924-10.5s1.025-10.5,2.924-10.5,2.923,5.411,2.923,10.5S318.477,123.957,316.578,123.957Zm0-20.249c-1.1,0-2.321,4-2.321,9.744s1.223,9.745,2.321,9.745,2.32-4,2.32-9.745S317.675,103.708,316.578,103.708Z" fill="#5d5c5c"/><path d="M306.073,113.452c0-3.445,4.713-6.247,10.505-6.247s10.5,2.8,10.5,6.247-4.713,6.248-10.5,6.248S306.073,116.9,306.073,113.452Zm20.249,0c0-3.08-4.372-5.587-9.744-5.587s-9.745,2.507-9.745,5.587,4.372,5.587,9.745,5.587S326.322,116.533,326.322,113.452Z" fill="#5d5c5c"/><path d="M306.073,113.452c0-1.812,5.413-2.79,10.505-2.79s10.5.978,10.5,2.79-5.412,2.791-10.5,2.791S306.073,115.266,306.073,113.452Zm20.249,0c0-1.047-4-2.215-9.744-2.215s-9.745,1.168-9.745,2.215,4,2.215,9.745,2.215S326.322,114.5,326.322,113.452Z" fill="#5d5c5c"/></g><g style="mix-blend-mode:multiply;isolation:isolate"><path d="M227.583,107.675a5.25,5.25,0,0,1,2.686.559,4.606,4.606,0,0,1,1.676,1.568,3.294,3.294,0,0,1,.28.534c.071.182.139.381.2.6.02.073.041.155.062.25a.457.457,0,0,1-.015.262.166.166,0,0,1-.117.117l-.194.054h-.124a.56.56,0,0,1-.209.024c-.078,0-.153-.009-.226-.009-.093,0-.2,0-.333.009s-.257,0-.38,0a3.043,3.043,0,0,1-.342-.032.423.423,0,0,1-.419-.365,1.4,1.4,0,0,0-.155-.325,2.247,2.247,0,0,0-.776-.808,3.129,3.129,0,0,0-.73-.325,2.006,2.006,0,0,0-.66-.094,2.755,2.755,0,0,0-.69.078c-.083.021-.158.04-.225.054a1.259,1.259,0,0,0-.209.071,2.7,2.7,0,0,0-1.491,1.489c-.051.125-.1.254-.14.387s-.087.276-.139.42c-.01.073-.021.14-.031.2s-.021.13-.031.2a.487.487,0,0,0-.023.194.61.61,0,0,1-.023.209.848.848,0,0,0-.024.257c.006.088.008.173.008.256a.861.861,0,0,1-.008.124.347.347,0,0,0,.008.124v.139a.329.329,0,0,1,.023.156.337.337,0,0,0,.023.155,1.318,1.318,0,0,0,.032.248c.02.114.041.221.062.318a2.646,2.646,0,0,0,.077.288,3.9,3.9,0,0,0,.559,1.11,2.628,2.628,0,0,0,.9.753,2.91,2.91,0,0,0,.357.131c.124.037.258.076.4.116a1.2,1.2,0,0,0,.147.023,1.153,1.153,0,0,0,.147.008h.124a.441.441,0,0,0,.2.023,1.3,1.3,0,0,0,.2-.023.537.537,0,0,0,.14-.014c.124-.022.24-.042.349-.063a1.245,1.245,0,0,0,.318-.108,2,2,0,0,0,.614-.412,3.228,3.228,0,0,0,.457-.582,1.714,1.714,0,0,0,.156-.341c.041-.124.087-.249.139-.373.031-.114.062-.217.093-.31a.379.379,0,0,1,.2-.218.769.769,0,0,1,.233-.031h1.5a.42.42,0,0,1,.24.063.3.3,0,0,1,.117.248.979.979,0,0,1-.039.326l-.093.418c-.053.156-.1.306-.147.451a2.581,2.581,0,0,1-.18.419,1.572,1.572,0,0,0-.123.241,1.105,1.105,0,0,1-.125.224A4.47,4.47,0,0,1,229.415,119a2.191,2.191,0,0,1-.341.093l-.342.062a.3.3,0,0,1-.147.024.282.282,0,0,0-.148.023c-.072,0-.142,0-.21.008s-.137.012-.209.022h-.527a1.118,1.118,0,0,1-.264-.03.525.525,0,0,0-.156-.016l-.217-.031c-.073-.011-.149-.02-.233-.031-.1-.031-.205-.057-.3-.077s-.2-.047-.3-.078-.186-.065-.279-.1-.181-.075-.264-.117a4.76,4.76,0,0,1-1.576-1.078,5.458,5.458,0,0,1-1.047-1.607,4.159,4.159,0,0,1-.156-.465c-.041-.155-.088-.316-.139-.481a.368.368,0,0,1-.032-.132.445.445,0,0,0-.015-.116,2.622,2.622,0,0,1-.046-.3,2.618,2.618,0,0,0-.047-.294.263.263,0,0,1-.023-.132.316.316,0,0,0-.008-.117v-.3a.649.649,0,0,1-.031-.232.665.665,0,0,1,.031-.234.22.22,0,0,0,.008-.1.684.684,0,0,1-.008-.085v-.14a1.376,1.376,0,0,0,.039-.264c0-.093.012-.186.023-.28a2.254,2.254,0,0,0,.047-.24,2.031,2.031,0,0,1,.047-.24c.041-.146.077-.287.108-.427a2.289,2.289,0,0,1,.124-.4c.052-.134.106-.269.163-.4a2.674,2.674,0,0,1,.194-.373,6.51,6.51,0,0,1,.513-.775,1.5,1.5,0,0,1,.17-.2l.186-.186a4.759,4.759,0,0,1,.815-.659,5.817,5.817,0,0,1,.97-.49,3.272,3.272,0,0,1,.388-.131c.135-.036.275-.07.419-.1a.578.578,0,0,1,.187-.031.471.471,0,0,0,.17-.031c.083-.011.163-.019.241-.024s.157-.013.24-.023a.1.1,0,0,1,.078,0A.1.1,0,0,0,227.583,107.675Z" fill="#5d5c5c"/><path d="M238.65,110.794a1.323,1.323,0,0,1,.3.032.347.347,0,0,1,.209.139.729.729,0,0,1,.093.427v.536c0,.113,0,.242.008.387a.724.724,0,0,1-.055.342.278.278,0,0,1-.178.139,1.012,1.012,0,0,1-.264.031c-.1,0-.2-.005-.31-.014a.973.973,0,0,0-.3.014.97.97,0,0,1-.218.039.843.843,0,0,0-.2.039,2.329,2.329,0,0,0-.5.226,1.317,1.317,0,0,0-.388.333c-.051.083-.106.168-.163.256s-.111.178-.163.272c-.031.082-.059.168-.085.256s-.049.173-.069.256a.805.805,0,0,0-.032.225.8.8,0,0,1-.031.225.312.312,0,0,0-.008.116.217.217,0,0,1-.007.1v.248a.59.59,0,0,0-.016.24,2.081,2.081,0,0,1,.016.256v2.313c0,.134-.005.258-.016.373a.563.563,0,0,1-.093.279.187.187,0,0,1-.1.069.958.958,0,0,1-.147.039h-.078a.822.822,0,0,1-.171.016h-.838a1.1,1.1,0,0,0-.194-.016h-.209c-.052-.02-.1-.039-.156-.054a.162.162,0,0,1-.108-.1.388.388,0,0,1-.07-.225c-.006-.1-.008-.2-.008-.3v-6.884a.419.419,0,0,1,.062-.239.342.342,0,0,1,.233-.157,1.983,1.983,0,0,1,.372-.031h.792a1.948,1.948,0,0,1,.326.024.3.3,0,0,1,.217.147.474.474,0,0,1,.055.217c.005.093.012.183.023.272a1.058,1.058,0,0,0,.054.24.146.146,0,0,0,.148.109.086.086,0,0,1,.062-.031.086.086,0,0,0,.062-.032.826.826,0,0,0,.162-.177.742.742,0,0,1,.179-.179.7.7,0,0,0,.109-.1.652.652,0,0,1,.108-.1c.094-.063.189-.124.288-.186s.2-.119.3-.171a2.846,2.846,0,0,1,.319-.108c.108-.031.219-.063.333-.093a.574.574,0,0,1,.179-.009C238.575,110.823,238.629,110.815,238.65,110.794Z" fill="#5d5c5c"/><path d="M247.45,114.923a.624.624,0,0,1,0,.279.286.286,0,0,1-.109.2.478.478,0,0,1-.225.086,2.77,2.77,0,0,1-.326.03,3.54,3.54,0,0,1-.357,0c-.119,0-.225-.007-.318-.007h-4a.473.473,0,0,0-.179.031.342.342,0,0,0-.155.124.332.332,0,0,0-.062.116.3.3,0,0,0-.016.163.781.781,0,0,1,.039.179.781.781,0,0,0,.039.179,2.245,2.245,0,0,0,.3.613,1.69,1.69,0,0,0,.489.426.69.69,0,0,0,.256.1,1.952,1.952,0,0,1,.272.071,2.023,2.023,0,0,0,.342.046,1.455,1.455,0,0,0,.372-.015h.14c.1-.021.2-.044.287-.07s.173-.054.255-.085a3.749,3.749,0,0,0,.35-.2,1.113,1.113,0,0,0,.287-.25c.052-.071.106-.142.163-.21a.52.52,0,0,1,.21-.147.81.81,0,0,1,.4-.068c.16,0,.307.008.442.008.062,0,.127,0,.194-.008a.385.385,0,0,1,.179.022h.154a.584.584,0,0,1,.218.078.156.156,0,0,1,.07.139.413.413,0,0,1-.024.186,2.624,2.624,0,0,1-.17.389,3,3,0,0,1-.218.341,3.114,3.114,0,0,1-.776.822,4.055,4.055,0,0,1-1.086.528,1.353,1.353,0,0,1-.342.078,2.349,2.349,0,0,0-.357.062.354.354,0,0,1-.131.008.339.339,0,0,0-.132.008h-.171a.4.4,0,0,1-.178.023c-.068-.006-.127-.014-.179-.023a.713.713,0,0,0-.217,0,.475.475,0,0,1-.2-.016.467.467,0,0,0-.17-.031.445.445,0,0,1-.171-.031c-.114-.021-.229-.044-.342-.07a1.192,1.192,0,0,1-.31-.116l-.319-.117a1.39,1.39,0,0,1-.271-.132,4.418,4.418,0,0,1-.885-.722,3.473,3.473,0,0,1-.636-.954,2.236,2.236,0,0,1-.125-.349,2.811,2.811,0,0,0-.124-.365.5.5,0,0,1-.015-.116.551.551,0,0,0-.015-.116,1.608,1.608,0,0,1-.078-.4c-.011-.145-.021-.289-.032-.435,0-.052,0-.108-.007-.171a.631.631,0,0,1,.007-.17v-.186l.047-.373c.042-.176.078-.346.109-.512a2.174,2.174,0,0,1,.14-.466,4.051,4.051,0,0,1,2.265-2.281,1.956,1.956,0,0,1,.443-.133c.151-.025.308-.058.474-.1a1.941,1.941,0,0,1,.232-.016,1.611,1.611,0,0,0,.233-.016,4.017,4.017,0,0,1,1.359.179,4.237,4.237,0,0,1,1.015.5,3.245,3.245,0,0,1,.28.21,2.19,2.19,0,0,1,.248.241.359.359,0,0,0,.124.124c.084.113.161.231.233.349s.15.241.233.365a2.109,2.109,0,0,1,.132.287l.116.318a2.81,2.81,0,0,1,.125.419q.047.219.108.435a.913.913,0,0,1,.024.271.881.881,0,0,0,.023.272Zm-2.328-.916a.39.39,0,0,0,.023-.38c-.057-.15-.1-.262-.131-.334a1.637,1.637,0,0,0-.576-.644,1.952,1.952,0,0,0-.992-.241.125.125,0,0,1-.109.016.2.2,0,0,0-.109,0,.572.572,0,0,1-.17.039.543.543,0,0,0-.171.039,1.658,1.658,0,0,0-1.009.853,1.742,1.742,0,0,0-.07.164,1,1,0,0,0-.054.2.484.484,0,0,0,.008.194.272.272,0,0,0,.1.155.641.641,0,0,0,.342.079h2.142c.145,0,.3,0,.457-.009A.361.361,0,0,0,245.122,114.007Z" fill="#5d5c5c"/><path d="M256.592,118.12v.427a.54.54,0,0,1-.094.334.37.37,0,0,1-.2.1,1.5,1.5,0,0,1-.28.024h-.853c-.1,0-.2,0-.288-.008a.357.357,0,0,1-.209-.07.279.279,0,0,1-.124-.2,1.084,1.084,0,0,0-.063-.249l-.053-.054-.055-.055a.345.345,0,0,0-.249.078l-.154.156c-.073.051-.14.1-.2.131s-.13.081-.2.132c-.041.021-.086.041-.132.062s-.1.042-.147.062a4.844,4.844,0,0,1-.466.14.4.4,0,0,1-.14.031.485.485,0,0,0-.124.016.833.833,0,0,0-.132.008.989.989,0,0,1-.132.007h-.14a.819.819,0,0,1-.279.024.942.942,0,0,1-.264-.039.533.533,0,0,0-.194-.024.431.431,0,0,1-.178-.023c-.124-.041-.246-.08-.365-.116a2.72,2.72,0,0,1-.349-.132,2.689,2.689,0,0,1-.97-.722,4.289,4.289,0,0,1-.675-1.032,2.593,2.593,0,0,1-.125-.333c-.031-.109-.067-.221-.108-.335a.436.436,0,0,1-.016-.115.381.381,0,0,0-.03-.132c-.021-.083-.039-.174-.055-.272s-.033-.2-.054-.3a.241.241,0,0,1-.008-.109.269.269,0,0,0-.007-.108v-.147a.787.787,0,0,0-.016-.148.868.868,0,0,1-.016-.179.662.662,0,0,1,.016-.163.777.777,0,0,0,.016-.147v-.148a.528.528,0,0,0,.007-.147.306.306,0,0,1,.023-.148c.021-.113.039-.221.055-.326a2.334,2.334,0,0,1,.069-.31c.042-.123.078-.242.109-.357a2.275,2.275,0,0,1,.124-.342,4.594,4.594,0,0,1,.544-.884.312.312,0,0,1,.085-.085.329.329,0,0,0,.085-.086,1.758,1.758,0,0,1,.124-.14c.042-.041.088-.082.14-.124a.329.329,0,0,0,.108-.085.391.391,0,0,1,.109-.086,3.706,3.706,0,0,1,.9-.434,1.631,1.631,0,0,1,.225-.046,2.272,2.272,0,0,0,.241-.047,1.269,1.269,0,0,1,.279-.039c.114-.005.228-.008.342-.008s.225.006.333.016a1.571,1.571,0,0,1,.272.046c.156.052.306.1.45.14a1.753,1.753,0,0,1,.4.171c.072.052.14.1.2.148s.129.1.2.146c.042.031.1.073.179.125a.182.182,0,0,0,.225,0,.111.111,0,0,0,.062-.109.421.421,0,0,1,.031-.156v-.154a.353.353,0,0,0,.016-.109v-2.235c0-.113,0-.24-.008-.38a.511.511,0,0,1,.069-.318.3.3,0,0,1,.233-.155.086.086,0,0,1,.062-.008.083.083,0,0,0,.063-.008h1.1a3.254,3.254,0,0,1,.341.016.306.306,0,0,1,.233.124.6.6,0,0,1,.078.318v9.708Zm-2.112-3.042a.339.339,0,0,0,.008-.132,1.255,1.255,0,0,1-.008-.131,2.93,2.93,0,0,0-.015-.311,2.03,2.03,0,0,0-.046-.279c-.021-.114-.039-.218-.054-.311a.962.962,0,0,0-.086-.264,2.041,2.041,0,0,0-.629-.884,1.871,1.871,0,0,0-1.187-.326,1.3,1.3,0,0,0-.248.031c-.084.02-.158.039-.226.053a.982.982,0,0,0-.194.071,1.375,1.375,0,0,0-.651.528,3.2,3.2,0,0,0-.373.807,1.622,1.622,0,0,0-.062.31,1.867,1.867,0,0,1-.063.326v.217a1.472,1.472,0,0,0-.014.38,1.8,1.8,0,0,0,.046.35.468.468,0,0,0,.007.086.3.3,0,0,1,.009.069c.021.083.038.16.054.233s.033.15.055.233a2.1,2.1,0,0,0,.9,1.195,1.586,1.586,0,0,0,.559.217.8.8,0,0,0,.186.015.683.683,0,0,0,.148.023.515.515,0,0,0,.163-.007,2.123,2.123,0,0,1,.248-.047,1.145,1.145,0,0,0,.249-.061,1.746,1.746,0,0,0,.62-.436,2.419,2.419,0,0,0,.4-.667,1.4,1.4,0,0,0,.093-.286c.021-.1.041-.205.062-.318a.507.507,0,0,0,.008-.149.286.286,0,0,1,.023-.146.337.337,0,0,0,.015-.11v-.279Z" fill="#5d5c5c"/><path d="M260.394,108.047a.55.55,0,0,1,.108.373v.9a.338.338,0,0,1-.108.295.432.432,0,0,1-.24.093,2.9,2.9,0,0,1-.319.016h-.869a2.448,2.448,0,0,1-.3-.016.417.417,0,0,1-.226-.093.276.276,0,0,1-.085-.179,2.216,2.216,0,0,1-.031-.294c-.005-.109-.005-.22,0-.334s.008-.212.008-.294,0-.159.007-.226a.4.4,0,0,1,.055-.179.214.214,0,0,1,.085-.093c.036-.021.075-.04.117-.062a.515.515,0,0,0,.077-.008.485.485,0,0,1,.077-.007h1.133a2.79,2.79,0,0,1,.3.015A.354.354,0,0,1,260.394,108.047Zm.108,10.1q0,.311-.015.528a.332.332,0,0,1-.279.295.535.535,0,0,1-.2.023c-.072-.005-.15-.008-.233-.008H258.9a2.412,2.412,0,0,1-.272-.015.278.278,0,0,1-.194-.093.435.435,0,0,1-.1-.272c-.005-.109-.007-.225-.007-.349V111.4a.436.436,0,0,1,.062-.248.426.426,0,0,1,.264-.138.133.133,0,0,1,.085-.009.134.134,0,0,0,.085-.008h.776c.063,0,.133,0,.21-.008a.733.733,0,0,1,.194.008h.124a1.5,1.5,0,0,0,.171.047.187.187,0,0,1,.124.093.368.368,0,0,1,.07.216c.005.094.007.193.007.3Z" fill="#5d5c5c"/><path d="M263.312,108.606h1.04a3.315,3.315,0,0,1,.411.023.314.314,0,0,1,.256.194.5.5,0,0,1,.031.187v.915c0,.052,0,.112-.008.179a.675.675,0,0,0,.008.178v.171a1.541,1.541,0,0,0,.015.225.373.373,0,0,0,.078.178.5.5,0,0,0,.4.148c.191.006.375.009.551.009h.186a.473.473,0,0,1,.171.03.324.324,0,0,1,.194.278,3.866,3.866,0,0,1,.023.45c0,.074,0,.146.008.218a.437.437,0,0,1-.023.187.343.343,0,0,1-.326.264c-.166.01-.352.015-.559.015a1.035,1.035,0,0,1-.132-.008.281.281,0,0,0-.116.008.263.263,0,0,1-.109.008.13.13,0,0,0-.093.023.264.264,0,0,0-.178.132.89.89,0,0,0-.086.24.491.491,0,0,0,0,.171.489.489,0,0,1,0,.171v2.777q0,.389.024.677a.905.905,0,0,0,.194.5.415.415,0,0,0,.209.132c.088.026.179.049.272.069a.2.2,0,0,0,.1.008.159.159,0,0,1,.085.008h.17a2.286,2.286,0,0,1,.295.016.279.279,0,0,1,.2.124.419.419,0,0,1,.062.24v.3c0,.217,0,.417-.007.6a.37.37,0,0,1-.257.365.28.28,0,0,1-.139.024.28.28,0,0,0-.14.022h-.155a.63.63,0,0,1-.093-.007.272.272,0,0,0-.109.007.549.549,0,0,1-.163.009,1.556,1.556,0,0,0-.163-.009,1.331,1.331,0,0,0-.155.009.4.4,0,0,1-.14-.009h-.17a1,1,0,0,0-.171-.014.9.9,0,0,1-.171-.016l-.2-.031-.186-.031a3.037,3.037,0,0,1-.326-.109,2.762,2.762,0,0,1-.295-.139,1.1,1.1,0,0,1-.093-.071l-.108-.085c-.022-.02-.047-.044-.078-.07s-.057-.049-.078-.069a2.127,2.127,0,0,1-.326-.653.2.2,0,0,1-.024-.116.385.385,0,0,0-.007-.132.178.178,0,0,1-.015-.078.179.179,0,0,0-.015-.077v-.155a.418.418,0,0,1-.009-.14c.005-.052.009-.1.009-.154V113.2c0-.072,0-.144.007-.217a.5.5,0,0,0-.024-.2.387.387,0,0,0-.217-.279.82.82,0,0,0-.434-.047.882.882,0,0,1-.45-.047.234.234,0,0,1-.156-.139c-.02-.062-.041-.14-.061-.233v-.326a2.7,2.7,0,0,1,.03-.45c.021-.114.109-.192.264-.233a.212.212,0,0,1,.124-.023.992.992,0,0,0,.141.009,3.679,3.679,0,0,0,.434-.025.328.328,0,0,0,.279-.178.722.722,0,0,0,.054-.247c.005-.094.009-.188.009-.281v-1.225a.779.779,0,0,1,.03-.234.375.375,0,0,1,.234-.2.13.13,0,0,1,.084-.008A.153.153,0,0,0,263.312,108.606Z" fill="#5d5c5c"/><path d="M273.438,107.675a5.248,5.248,0,0,1,2.685.559A4.6,4.6,0,0,1,277.8,109.8a3.135,3.135,0,0,1,.279.534q.108.273.2.6c.02.073.04.155.062.25a.456.456,0,0,1-.016.262.165.165,0,0,1-.116.117l-.194.054h-.124a.563.563,0,0,1-.21.024c-.078,0-.153-.009-.225-.009-.093,0-.205,0-.335.009s-.255,0-.379,0a3.066,3.066,0,0,1-.342-.032.645.645,0,0,1-.232-.07.661.661,0,0,1-.187-.295,1.324,1.324,0,0,0-.155-.325,2.239,2.239,0,0,0-.776-.808,3.1,3.1,0,0,0-.729-.325,2.006,2.006,0,0,0-.66-.094,2.755,2.755,0,0,0-.69.078c-.083.021-.158.04-.225.054a1.269,1.269,0,0,0-.21.071,2.7,2.7,0,0,0-1.49,1.489c-.051.125-.1.254-.139.387s-.088.276-.14.42c-.011.073-.021.14-.031.2s-.021.13-.032.2a.487.487,0,0,0-.023.194.588.588,0,0,1-.023.209.848.848,0,0,0-.023.257c.005.088.007.173.007.256a1.03,1.03,0,0,1-.007.124.325.325,0,0,0,.007.124v.139a.33.33,0,0,1,.024.156.325.325,0,0,0,.023.155,1.3,1.3,0,0,0,.031.248c.021.114.041.221.062.318a2.645,2.645,0,0,0,.078.288,3.925,3.925,0,0,0,.559,1.11,2.6,2.6,0,0,0,.9.753,2.85,2.85,0,0,0,.357.131c.124.037.257.076.4.116a1.216,1.216,0,0,0,.148.023,1.143,1.143,0,0,0,.147.008h.124a.439.439,0,0,0,.2.023,1.3,1.3,0,0,0,.2-.023.528.528,0,0,0,.139-.014c.125-.022.241-.042.35-.063a1.251,1.251,0,0,0,.317-.108,1.982,1.982,0,0,0,.614-.412,3.185,3.185,0,0,0,.457-.582,1.716,1.716,0,0,0,.156-.341c.041-.124.088-.249.14-.373.031-.114.062-.217.093-.31a.376.376,0,0,1,.2-.218.761.761,0,0,1,.232-.031h1.5a.423.423,0,0,1,.241.063.3.3,0,0,1,.115.248.931.931,0,0,1-.038.326l-.093.418c-.052.156-.1.306-.148.451a2.407,2.407,0,0,1-.178.419,1.493,1.493,0,0,0-.124.241,1.013,1.013,0,0,1-.124.224A4.473,4.473,0,0,1,275.269,119a2.162,2.162,0,0,1-.341.093l-.341.062a.307.307,0,0,1-.148.024.284.284,0,0,0-.148.023c-.071,0-.142,0-.209.008s-.137.012-.209.022h-.528a1.124,1.124,0,0,1-.264-.03.518.518,0,0,0-.155-.016l-.218-.031c-.072-.011-.15-.02-.232-.031-.1-.031-.205-.057-.3-.077s-.2-.047-.3-.078-.186-.065-.28-.1a2.775,2.775,0,0,1-.263-.117,4.75,4.75,0,0,1-1.576-1.078,5.44,5.44,0,0,1-1.048-1.607,4.151,4.151,0,0,1-.155-.465c-.041-.155-.088-.316-.14-.481a.386.386,0,0,1-.031-.132.494.494,0,0,0-.015-.116,2.615,2.615,0,0,1-.047-.3,2.617,2.617,0,0,0-.046-.294.265.265,0,0,1-.024-.132.315.315,0,0,0-.007-.117v-.3a.644.644,0,0,1-.032-.232.66.66,0,0,1,.032-.234.221.221,0,0,0,.007-.1.647.647,0,0,1-.007-.085v-.14a1.461,1.461,0,0,0,.038-.264c.006-.093.013-.186.024-.28a2.232,2.232,0,0,0,.046-.24,2.025,2.025,0,0,1,.047-.24c.041-.146.077-.287.108-.427a2.378,2.378,0,0,1,.125-.4c.052-.134.106-.269.163-.4a2.475,2.475,0,0,1,.194-.373,6.63,6.63,0,0,1,.512-.775,1.439,1.439,0,0,1,.171-.2l.186-.186a4.72,4.72,0,0,1,.815-.659,5.778,5.778,0,0,1,.97-.49,3.2,3.2,0,0,1,.387-.131c.135-.036.275-.07.419-.1a.586.586,0,0,1,.187-.031.477.477,0,0,0,.171-.031q.125-.017.24-.024c.078,0,.158-.013.241-.023a.1.1,0,0,1,.077,0A.1.1,0,0,0,273.438,107.675Z" fill="#5d5c5c"/><path d="M287.22,118.384a2.489,2.489,0,0,1,.039.342.217.217,0,0,1-.163.232.482.482,0,0,1-.217.047h-1.087c-.093,0-.184,0-.272-.008a.357.357,0,0,1-.209-.07.384.384,0,0,1-.162-.178.557.557,0,0,0-.149-.194.286.286,0,0,0-.077-.055.191.191,0,0,0-.124-.008.9.9,0,0,0-.147.078.776.776,0,0,1-.148.078.876.876,0,0,1-.17.108l-.187.094a2.366,2.366,0,0,1-.419.147c-.146.036-.294.075-.45.116a.954.954,0,0,1-.21.039c-.066.006-.136.013-.209.024a.487.487,0,0,0-.093.008.582.582,0,0,1-.093.007H282.5a.771.771,0,0,1-.31,0h-.14a.589.589,0,0,0-.209-.023.5.5,0,0,1-.194-.023c-.1-.021-.2-.04-.3-.055a.931.931,0,0,1-.263-.085,2.588,2.588,0,0,1-.769-.442,1.878,1.878,0,0,1-.505-.722c-.03-.072-.059-.151-.084-.233s-.049-.17-.07-.264a.311.311,0,0,1-.023-.154.519.519,0,0,0-.009-.157.916.916,0,0,1-.023-.193.831.831,0,0,1,.008-.21,1.341,1.341,0,0,0,.031-.264c.032-.113.062-.229.093-.349a1.342,1.342,0,0,1,.125-.318,2.068,2.068,0,0,1,.6-.682,3.4,3.4,0,0,1,.869-.4,1.87,1.87,0,0,1,.419-.108c.145-.021.29-.047.435-.077a1.375,1.375,0,0,1,.264-.039,1.671,1.671,0,0,0,.279-.039.6.6,0,0,1,.217-.023.743.743,0,0,0,.233-.024.777.777,0,0,1,.218-.032.935.935,0,0,0,.232-.03q.325-.076.6-.132a.947.947,0,0,0,.489-.271.692.692,0,0,0,.186-.311.13.13,0,0,0,.008-.078.1.1,0,0,1,.008-.062.2.2,0,0,0,.016-.093V113.2c-.01-.041-.018-.083-.024-.124a.52.52,0,0,0-.023-.109.977.977,0,0,0-.652-.636,1.606,1.606,0,0,0-.333-.069,2.368,2.368,0,0,0-.4-.017,3.375,3.375,0,0,0-.388.039,2.341,2.341,0,0,0-.326.078.808.808,0,0,0-.178.085,1.651,1.651,0,0,0-.163.117,1.033,1.033,0,0,0-.163.17.708.708,0,0,0-.117.2c-.052.1-.1.2-.132.3a.309.309,0,0,1-.225.186,1.022,1.022,0,0,1-.264.031h-.869c-.052,0-.1,0-.155.008a.369.369,0,0,1-.139-.008h-.141a.189.189,0,0,0-.077-.014.1.1,0,0,1-.077-.032.248.248,0,0,1-.171-.2.369.369,0,0,1,0-.155c.009-.052.021-.1.031-.14a3.217,3.217,0,0,1,.1-.318,1.454,1.454,0,0,1,.131-.272c.032-.051.062-.1.094-.155l.093-.155a1.78,1.78,0,0,1,.31-.326.443.443,0,0,0,.093-.077c.052-.042.1-.079.14-.11s.088-.061.14-.093a2.533,2.533,0,0,1,.559-.271c.2-.068.4-.132.6-.194a2.417,2.417,0,0,1,.388-.062,2.842,2.842,0,0,0,.4-.062.6.6,0,0,1,.193,0c.088.01.143.005.164-.016a9.634,9.634,0,0,1,1.217.047,4.634,4.634,0,0,1,1.056.232,2.694,2.694,0,0,1,.815.458,1.916,1.916,0,0,1,.528.738,1.82,1.82,0,0,1,.124.605q.015.342.015.7v4.059a2.25,2.25,0,0,0,.062.551.322.322,0,0,1,.016.1A.324.324,0,0,0,287.22,118.384Zm-2.281-2.39a1.069,1.069,0,0,0,0-.357.538.538,0,0,1-.032-.17.149.149,0,0,0-.061-.125.374.374,0,0,0-.233-.062,1.081,1.081,0,0,1-.109.023c-.03.006-.068.013-.108.024a1.479,1.479,0,0,1-.233.046,2.181,2.181,0,0,0-.249.047.486.486,0,0,1-.139.015,2.552,2.552,0,0,1-.4.062,1.649,1.649,0,0,0-.388.078c-.084.021-.161.038-.234.055a1.137,1.137,0,0,0-.217.069,1.425,1.425,0,0,0-.551.419,1,1,0,0,0-.163.776.827.827,0,0,0,.171.435.746.746,0,0,0,.326.272,2,2,0,0,0,.474.147,2.1,2.1,0,0,0,.542.022,2.426,2.426,0,0,0,.536-.1,1.335,1.335,0,0,0,.636-.395,1.852,1.852,0,0,0,.357-.676,1.05,1.05,0,0,0,.039-.225,1.331,1.331,0,0,1,.039-.24Z" fill="#5d5c5c"/><path d="M293.413,110.794a1.311,1.311,0,0,1,.3.032.344.344,0,0,1,.209.139.736.736,0,0,1,.094.427v.536c0,.113,0,.242.007.387a.726.726,0,0,1-.054.342.277.277,0,0,1-.179.139,1.007,1.007,0,0,1-.264.031c-.1,0-.2-.005-.31-.014a.972.972,0,0,0-.3.014.971.971,0,0,1-.217.039.834.834,0,0,0-.2.039,2.285,2.285,0,0,0-.5.226,1.321,1.321,0,0,0-.389.333c-.052.083-.106.168-.163.256s-.11.178-.162.272c-.031.082-.06.168-.086.256s-.048.173-.07.256a.8.8,0,0,0-.031.225.837.837,0,0,1-.03.225.293.293,0,0,0-.009.116.231.231,0,0,1-.006.1v.248a.589.589,0,0,0-.017.24,2.3,2.3,0,0,1,.017.256v2.313c0,.134-.007.258-.017.373a.553.553,0,0,1-.093.279.184.184,0,0,1-.1.069,1,1,0,0,1-.148.039h-.077a.842.842,0,0,1-.171.016h-.839a1.1,1.1,0,0,0-.193-.016h-.21c-.052-.02-.1-.039-.155-.054a.162.162,0,0,1-.109-.1.388.388,0,0,1-.07-.225c0-.1-.007-.2-.007-.3v-6.884a.412.412,0,0,1,.062-.239.34.34,0,0,1,.232-.157,1.983,1.983,0,0,1,.372-.031h.792a1.931,1.931,0,0,1,.326.024.3.3,0,0,1,.217.147.475.475,0,0,1,.055.217c.005.093.013.183.023.272a1.113,1.113,0,0,0,.054.24.148.148,0,0,0,.148.109.088.088,0,0,1,.062-.031.086.086,0,0,0,.062-.032.83.83,0,0,0,.163-.177.721.721,0,0,1,.178-.179.661.661,0,0,0,.109-.1.66.66,0,0,1,.109-.1c.093-.063.189-.124.287-.186a3.463,3.463,0,0,1,.3-.171,2.83,2.83,0,0,1,.318-.108c.108-.031.22-.063.333-.093a.571.571,0,0,1,.179-.009C293.338,110.823,293.393,110.815,293.413,110.794Z" fill="#5d5c5c"/><path d="M302.446,118.12v.427a.547.547,0,0,1-.093.334.372.372,0,0,1-.2.1,1.462,1.462,0,0,1-.278.024h-.854c-.1,0-.2,0-.287-.008a.361.361,0,0,1-.21-.07.282.282,0,0,1-.124-.2,1.032,1.032,0,0,0-.062-.249c-.021-.021-.039-.038-.054-.054l-.054-.055a.344.344,0,0,0-.249.078l-.155.156c-.072.051-.14.1-.2.131s-.129.081-.2.132c-.041.021-.085.041-.132.062s-.1.042-.147.062a4.824,4.824,0,0,1-.465.14.4.4,0,0,1-.141.031.472.472,0,0,0-.123.016.825.825,0,0,0-.132.008,1.016,1.016,0,0,1-.133.007h-.139a.826.826,0,0,1-.28.024.934.934,0,0,1-.263-.039.539.539,0,0,0-.195-.024.433.433,0,0,1-.178-.023c-.124-.041-.245-.08-.364-.116a2.85,2.85,0,0,1-.35-.132,2.694,2.694,0,0,1-.969-.722,4.294,4.294,0,0,1-.676-1.032,2.743,2.743,0,0,1-.124-.333c-.031-.109-.067-.221-.109-.335a.479.479,0,0,1-.015-.115.364.364,0,0,0-.031-.132c-.021-.083-.039-.174-.055-.272s-.033-.2-.054-.3a.228.228,0,0,1-.007-.109.251.251,0,0,0-.008-.108v-.147a.786.786,0,0,0-.016-.148.952.952,0,0,1-.015-.179.724.724,0,0,1,.015-.163.776.776,0,0,0,.016-.147v-.148a.494.494,0,0,0,.008-.147.294.294,0,0,1,.023-.148c.021-.113.038-.221.054-.326a2.337,2.337,0,0,1,.07-.31q.061-.185.108-.357a2.28,2.28,0,0,1,.125-.342,4.587,4.587,0,0,1,.543-.884.326.326,0,0,1,.085-.085.351.351,0,0,0,.086-.086,1.758,1.758,0,0,1,.124-.14c.042-.041.088-.082.14-.124a.354.354,0,0,0,.109-.085.361.361,0,0,1,.108-.086,3.717,3.717,0,0,1,.9-.434,1.646,1.646,0,0,1,.226-.046,2.3,2.3,0,0,0,.24-.047,1.289,1.289,0,0,1,.281-.039c.112-.005.226-.008.34-.008s.225.006.334.016a1.588,1.588,0,0,1,.272.046c.155.052.3.1.45.14a1.745,1.745,0,0,1,.4.171c.073.052.14.1.2.148s.129.1.2.146c.041.031.1.073.178.125a.183.183,0,0,0,.226,0,.112.112,0,0,0,.062-.109.421.421,0,0,1,.031-.156v-.154a.354.354,0,0,0,.015-.109v-2.235c0-.113,0-.24-.008-.38a.51.51,0,0,1,.07-.318.3.3,0,0,1,.233-.155.085.085,0,0,1,.062-.008.08.08,0,0,0,.062-.008h1.1a3.279,3.279,0,0,1,.343.016.308.308,0,0,1,.233.124.6.6,0,0,1,.077.318v9.708Zm-2.111-3.042a.359.359,0,0,0,.008-.132,1.035,1.035,0,0,1-.008-.131,2.935,2.935,0,0,0-.016-.311,1.766,1.766,0,0,0-.046-.279c-.021-.114-.039-.218-.054-.311a.929.929,0,0,0-.086-.264,2.031,2.031,0,0,0-.628-.884,1.874,1.874,0,0,0-1.188-.326,1.3,1.3,0,0,0-.248.031c-.083.02-.157.039-.225.053a.939.939,0,0,0-.194.071,1.378,1.378,0,0,0-.652.528,3.27,3.27,0,0,0-.373.807,1.7,1.7,0,0,0-.062.31,2.057,2.057,0,0,1-.061.326v.217a1.336,1.336,0,0,0-.016.38,1.972,1.972,0,0,0,.046.35.572.572,0,0,0,.008.086.3.3,0,0,1,.008.069c.021.083.039.16.054.233s.034.15.055.233a2.1,2.1,0,0,0,.9,1.195,1.566,1.566,0,0,0,.557.217.806.806,0,0,0,.187.015.683.683,0,0,0,.148.023.509.509,0,0,0,.162-.007,2.181,2.181,0,0,1,.249-.047,1.137,1.137,0,0,0,.248-.061,1.728,1.728,0,0,0,.62-.436,2.418,2.418,0,0,0,.4-.667,1.408,1.408,0,0,0,.094-.286c.021-.1.041-.205.062-.318a.473.473,0,0,0,.007-.149.308.308,0,0,1,.023-.146.336.336,0,0,0,.016-.11v-.279Z" fill="#5d5c5c"/></g><path d="M226.706,106.377a5.249,5.249,0,0,1,2.685.558,4.631,4.631,0,0,1,1.676,1.568,3.153,3.153,0,0,1,.279.536,6.3,6.3,0,0,1,.2.6c.02.073.041.156.062.249a.459.459,0,0,1-.015.263.168.168,0,0,1-.117.117l-.194.054h-.124a.525.525,0,0,1-.21.023c-.077-.005-.152-.007-.224-.007-.094,0-.205,0-.334.007s-.256.006-.381,0a3.036,3.036,0,0,1-.341-.031.647.647,0,0,1-.233-.069.657.657,0,0,1-.186-.295,1.388,1.388,0,0,0-.155-.326,2.236,2.236,0,0,0-.776-.807,3.132,3.132,0,0,0-.73-.326,2.006,2.006,0,0,0-.659-.093,2.715,2.715,0,0,0-.691.077q-.125.031-.225.054a1.262,1.262,0,0,0-.21.07,2.7,2.7,0,0,0-1.49,1.49,4.047,4.047,0,0,0-.139.389c-.042.134-.089.273-.14.419-.011.072-.021.139-.031.2s-.021.13-.031.2a.47.47,0,0,0-.023.194.594.594,0,0,1-.024.21.841.841,0,0,0-.023.256c0,.087.008.173.008.256a1.035,1.035,0,0,1-.008.124.325.325,0,0,0,.008.124v.14a.323.323,0,0,1,.023.155.323.323,0,0,0,.023.155,1.41,1.41,0,0,0,.031.249c.021.113.042.219.062.317a2.652,2.652,0,0,0,.078.288,3.906,3.906,0,0,0,.559,1.109,2.288,2.288,0,0,0,1.257.885l.4.117c.051.01.1.018.147.023a1.364,1.364,0,0,0,.148.008h.124a.463.463,0,0,0,.2.023,1.606,1.606,0,0,0,.2-.023.482.482,0,0,0,.14-.016c.124-.02.24-.041.349-.062a1.153,1.153,0,0,0,.318-.109,1.953,1.953,0,0,0,.613-.411,3.189,3.189,0,0,0,.458-.582,1.712,1.712,0,0,0,.155-.341c.042-.125.088-.249.14-.373.031-.114.062-.217.093-.31a.373.373,0,0,1,.2-.218.771.771,0,0,1,.233-.03h1.5a.42.42,0,0,1,.24.062.3.3,0,0,1,.117.248.98.98,0,0,1-.04.326l-.092.419c-.053.155-.1.305-.148.45a2.535,2.535,0,0,1-.178.419,1.5,1.5,0,0,0-.125.241,1.061,1.061,0,0,1-.124.225,4.477,4.477,0,0,1-2.483,1.862,2.173,2.173,0,0,1-.342.093l-.341.062a.305.305,0,0,1-.148.024.291.291,0,0,0-.147.023c-.072,0-.142,0-.209.008s-.138.012-.21.023h-.528a1.108,1.108,0,0,1-.263-.031.526.526,0,0,0-.156-.016l-.217-.031c-.073-.01-.15-.021-.233-.031q-.154-.046-.3-.078c-.1-.02-.2-.046-.3-.077s-.186-.065-.28-.1-.181-.075-.263-.117a4.756,4.756,0,0,1-1.576-1.078,5.419,5.419,0,0,1-1.047-1.607,4.165,4.165,0,0,1-.156-.465c-.041-.155-.088-.315-.139-.481a.364.364,0,0,1-.031-.132.449.449,0,0,0-.016-.116,2.633,2.633,0,0,1-.047-.3,2.366,2.366,0,0,0-.046-.295.252.252,0,0,1-.023-.132.317.317,0,0,0-.008-.117v-.295a.888.888,0,0,1,0-.465.224.224,0,0,0,.008-.1.523.523,0,0,1-.008-.086v-.139a1.376,1.376,0,0,0,.039-.264c.005-.093.013-.186.023-.279a2.267,2.267,0,0,0,.047-.241,2.26,2.26,0,0,1,.046-.241c.042-.144.078-.287.109-.426a2.315,2.315,0,0,1,.124-.4c.052-.134.106-.269.163-.4a2.6,2.6,0,0,1,.194-.372,6.649,6.649,0,0,1,.512-.776,1.658,1.658,0,0,1,.171-.2l.186-.186a4.768,4.768,0,0,1,.815-.659,5.816,5.816,0,0,1,.97-.49,3.4,3.4,0,0,1,.388-.132c.134-.036.274-.069.419-.1a.576.576,0,0,1,.186-.031.453.453,0,0,0,.171-.032c.083-.009.163-.017.241-.023s.157-.013.24-.023a.1.1,0,0,1,.078,0A.1.1,0,0,0,226.706,106.377Z" fill="#fff"/><path d="M237.772,109.5a1.32,1.32,0,0,1,.3.031.347.347,0,0,1,.209.139.739.739,0,0,1,.093.427v.535c0,.115,0,.244.008.389a.721.721,0,0,1-.054.341.28.28,0,0,1-.179.139.97.97,0,0,1-.264.032,3.067,3.067,0,0,1-.31-.016.97.97,0,0,0-.3.016,1.031,1.031,0,0,1-.217.039.842.842,0,0,0-.2.038,2.329,2.329,0,0,0-.5.226,1.3,1.3,0,0,0-.387.333l-.163.256c-.058.088-.112.179-.164.272-.03.083-.059.168-.085.256s-.049.173-.07.256a.843.843,0,0,0-.031.225.8.8,0,0,1-.031.225.316.316,0,0,0-.008.117.208.208,0,0,1-.007.1v.249a.608.608,0,0,0-.016.24,2.288,2.288,0,0,1,.016.257v2.312c0,.134-.006.259-.016.373a.554.554,0,0,1-.093.279.189.189,0,0,1-.1.07,1.263,1.263,0,0,1-.147.038h-.078a.818.818,0,0,1-.17.016h-.839a1.219,1.219,0,0,0-.194-.016h-.209c-.052-.02-.1-.038-.155-.054a.162.162,0,0,1-.109-.1.378.378,0,0,1-.07-.225c0-.1-.008-.2-.008-.3v-6.884a.42.42,0,0,1,.063-.24.335.335,0,0,1,.232-.155,1.905,1.905,0,0,1,.373-.032h.791a1.94,1.94,0,0,1,.326.024.308.308,0,0,1,.218.147.5.5,0,0,1,.054.217c0,.094.012.184.023.272a1.078,1.078,0,0,0,.054.241.147.147,0,0,0,.148.108.086.086,0,0,1,.062-.031.09.09,0,0,0,.062-.031.89.89,0,0,0,.163-.178.708.708,0,0,1,.179-.179.692.692,0,0,0,.108-.1.667.667,0,0,1,.109-.1c.093-.062.188-.124.287-.186a3.212,3.212,0,0,1,.3-.17,3.052,3.052,0,0,1,.318-.109c.109-.031.219-.062.334-.093a.57.57,0,0,1,.178-.008C237.7,109.525,237.751,109.518,237.772,109.5Z" fill="#fff"/><path d="M246.572,113.625a.624.624,0,0,1,0,.279.288.288,0,0,1-.109.2.459.459,0,0,1-.224.085,2.791,2.791,0,0,1-.326.032q-.18.007-.357,0c-.12,0-.225-.008-.319-.008h-4a.473.473,0,0,0-.179.031.41.41,0,0,0-.217.24.291.291,0,0,0-.015.163.819.819,0,0,1,.038.179.762.762,0,0,0,.039.178,2.2,2.2,0,0,0,.3.614,1.662,1.662,0,0,0,.489.426.7.7,0,0,0,.256.1,2.057,2.057,0,0,1,.272.07,2.1,2.1,0,0,0,.341.047,1.407,1.407,0,0,0,.372-.016h.14c.1-.021.2-.044.287-.07s.173-.054.256-.085a3.913,3.913,0,0,0,.35-.2,1.074,1.074,0,0,0,.287-.248c.051-.073.106-.142.163-.21a.492.492,0,0,1,.209-.147.82.82,0,0,1,.4-.07c.16,0,.307.008.442.008.062,0,.127,0,.194-.008a.411.411,0,0,1,.179.023H246a.571.571,0,0,1,.217.078.155.155,0,0,1,.07.14.433.433,0,0,1-.023.186,2.765,2.765,0,0,1-.171.388,3.229,3.229,0,0,1-.217.341,3.135,3.135,0,0,1-.776.823,4.092,4.092,0,0,1-1.087.528,1.353,1.353,0,0,1-.341.077,2.307,2.307,0,0,0-.357.062.363.363,0,0,1-.132.008.36.36,0,0,0-.132.008h-.171a.4.4,0,0,1-.178.023,1.8,1.8,0,0,1-.179-.023.714.714,0,0,0-.217,0,.46.46,0,0,1-.2-.016.447.447,0,0,0-.17-.031.449.449,0,0,1-.171-.031c-.114-.021-.228-.044-.342-.07a1.124,1.124,0,0,1-.31-.116l-.318-.116a1.559,1.559,0,0,1-.272-.132,4.481,4.481,0,0,1-.885-.722,3.518,3.518,0,0,1-.636-.954,2.146,2.146,0,0,1-.124-.35,2.847,2.847,0,0,0-.124-.364.462.462,0,0,1-.016-.117.492.492,0,0,0-.015-.116,1.6,1.6,0,0,1-.078-.4c-.01-.145-.021-.29-.031-.435,0-.051,0-.108-.008-.17a.634.634,0,0,1,.008-.171v-.186l.047-.373q.062-.262.108-.512a2.233,2.233,0,0,1,.14-.466,4.061,4.061,0,0,1,2.266-2.281,1.98,1.98,0,0,1,.442-.132c.15-.026.308-.059.474-.1a1.932,1.932,0,0,1,.233-.015,1.765,1.765,0,0,0,.232-.016,3.964,3.964,0,0,1,1.359.179,4.136,4.136,0,0,1,1.016.5,3.371,3.371,0,0,1,.279.209,2.288,2.288,0,0,1,.249.241.351.351,0,0,0,.124.124c.083.114.16.231.232.349s.15.241.233.365a2,2,0,0,1,.132.287l.117.319a2.741,2.741,0,0,1,.124.419c.031.145.067.29.109.434a.949.949,0,0,1,.023.272.886.886,0,0,0,.023.272Zm-2.328-.916a.392.392,0,0,0,.024-.38q-.087-.225-.132-.333a1.621,1.621,0,0,0-.575-.644,1.946,1.946,0,0,0-.993-.241.132.132,0,0,1-.109.016.18.18,0,0,0-.108,0,.611.611,0,0,1-.171.038.578.578,0,0,0-.171.039,1.657,1.657,0,0,0-1.009.854,1.508,1.508,0,0,0-.069.163.886.886,0,0,0-.055.2.484.484,0,0,0,.008.194.277.277,0,0,0,.1.155.635.635,0,0,0,.341.078h2.142c.145,0,.3,0,.458-.008A.363.363,0,0,0,244.244,112.709Z" fill="#fff"/><path d="M255.714,116.822v.427a.545.545,0,0,1-.093.334.381.381,0,0,1-.2.1,1.574,1.574,0,0,1-.279.023h-.854c-.1,0-.2,0-.288-.008a.357.357,0,0,1-.209-.07.28.28,0,0,1-.124-.2,1.08,1.08,0,0,0-.062-.249l-.054-.054-.055-.054a.343.343,0,0,0-.248.077l-.155.156c-.073.051-.14.1-.2.131s-.13.081-.2.132c-.042.021-.085.042-.132.062s-.1.042-.147.062a4.848,4.848,0,0,1-.466.14.375.375,0,0,1-.139.031.487.487,0,0,0-.125.016.832.832,0,0,0-.132.008.985.985,0,0,1-.131.007h-.14a.822.822,0,0,1-.279.024.944.944,0,0,1-.265-.039.507.507,0,0,0-.193-.023.453.453,0,0,1-.179-.024c-.124-.041-.246-.08-.364-.116a2.732,2.732,0,0,1-.35-.132,2.685,2.685,0,0,1-.97-.722,4.269,4.269,0,0,1-.675-1.032,2.359,2.359,0,0,1-.124-.334c-.031-.108-.067-.22-.109-.333a.5.5,0,0,1-.016-.117.381.381,0,0,0-.03-.132c-.021-.082-.039-.173-.055-.271s-.033-.2-.054-.3a.254.254,0,0,1-.008-.109.269.269,0,0,0-.007-.108v-.148a.784.784,0,0,0-.016-.147.87.87,0,0,1-.016-.179.663.663,0,0,1,.016-.163.767.767,0,0,0,.016-.147v-.148a.526.526,0,0,0,.007-.147.307.307,0,0,1,.023-.148c.021-.113.039-.222.055-.325a2.31,2.31,0,0,1,.069-.311c.042-.124.078-.243.109-.357a2.383,2.383,0,0,1,.124-.341,4.632,4.632,0,0,1,.544-.885.326.326,0,0,1,.085-.085.315.315,0,0,0,.085-.086,1.746,1.746,0,0,1,.125-.139,1.579,1.579,0,0,1,.139-.124.361.361,0,0,0,.109-.086.346.346,0,0,1,.109-.085,3.654,3.654,0,0,1,.9-.435,1.6,1.6,0,0,1,.225-.046,2.066,2.066,0,0,0,.24-.047,1.354,1.354,0,0,1,.28-.039c.113,0,.227-.007.341-.007s.225,0,.334.015a1.566,1.566,0,0,1,.271.047c.156.051.306.1.451.139a1.809,1.809,0,0,1,.4.171c.072.052.14.1.2.148s.129.1.2.147c.041.031.1.072.178.124a.182.182,0,0,0,.225,0,.109.109,0,0,0,.062-.108.413.413,0,0,1,.031-.156v-.155a.325.325,0,0,0,.016-.109v-2.235c0-.113,0-.24-.008-.38a.509.509,0,0,1,.07-.318.3.3,0,0,1,.233-.155.09.09,0,0,1,.062-.008.086.086,0,0,0,.062-.008h1.1c.124,0,.238.006.341.016a.308.308,0,0,1,.233.124.59.59,0,0,1,.078.318v9.708ZM253.6,113.78a.382.382,0,0,0,.008-.132,1.011,1.011,0,0,1-.008-.131,2.944,2.944,0,0,0-.016-.311,2,2,0,0,0-.046-.279c-.021-.114-.039-.218-.055-.311a.927.927,0,0,0-.085-.264,2.047,2.047,0,0,0-.629-.884,1.877,1.877,0,0,0-1.187-.326,1.3,1.3,0,0,0-.248.031c-.083.021-.158.038-.225.054a.881.881,0,0,0-.194.07,1.378,1.378,0,0,0-.652.528,3.213,3.213,0,0,0-.372.807,1.625,1.625,0,0,0-.063.31,1.957,1.957,0,0,1-.062.326v.217a1.386,1.386,0,0,0-.015.381,1.787,1.787,0,0,0,.046.349.446.446,0,0,0,.008.085.384.384,0,0,1,.008.07c.02.083.038.161.054.233s.034.15.054.233a2.1,2.1,0,0,0,.9,1.195,1.572,1.572,0,0,0,.558.217.853.853,0,0,0,.187.016.683.683,0,0,0,.147.023.511.511,0,0,0,.163-.008,2.162,2.162,0,0,1,.248-.047,1.032,1.032,0,0,0,.249-.062,1.755,1.755,0,0,0,.621-.434,2.433,2.433,0,0,0,.4-.668,1.375,1.375,0,0,0,.093-.287c.021-.1.042-.2.062-.318a.494.494,0,0,0,.008-.147.3.3,0,0,1,.023-.148.323.323,0,0,0,.016-.108v-.28Z" fill="#fff"/><path d="M259.516,106.749a.559.559,0,0,1,.108.373v.9a.341.341,0,0,1-.108.295.435.435,0,0,1-.241.093,3.131,3.131,0,0,1-.318.016h-.869a2.662,2.662,0,0,1-.3-.016.421.421,0,0,1-.226-.093.278.278,0,0,1-.085-.178,2.25,2.25,0,0,1-.031-.295c-.005-.109-.005-.22,0-.334s.008-.212.008-.3,0-.157.007-.225a.418.418,0,0,1,.055-.179.22.22,0,0,1,.085-.093c.036-.02.075-.041.117-.062a.41.41,0,0,0,.077-.008.655.655,0,0,1,.078-.007H259a2.774,2.774,0,0,1,.3.015A.359.359,0,0,1,259.516,106.749Zm.108,10.1c0,.206,0,.382-.015.527s-.1.243-.279.3a.5.5,0,0,1-.2.023c-.072,0-.15-.008-.233-.008h-.869a2.414,2.414,0,0,1-.272-.015.276.276,0,0,1-.194-.093.441.441,0,0,1-.1-.272c-.005-.108-.007-.225-.007-.349V110.1a.442.442,0,0,1,.062-.248.435.435,0,0,1,.264-.14.149.149,0,0,1,.085-.008.145.145,0,0,0,.086-.008h.776c.062,0,.131,0,.209-.008a.778.778,0,0,1,.194.008h.124a1.314,1.314,0,0,0,.171.047.185.185,0,0,1,.124.093.376.376,0,0,1,.07.217c.005.093.007.192.007.295Z" fill="#fff"/><path d="M262.434,107.308h1.04a3.118,3.118,0,0,1,.411.024.311.311,0,0,1,.256.193.5.5,0,0,1,.031.187v.915c0,.052,0,.112-.007.179a.636.636,0,0,0,.007.178v.171a1.4,1.4,0,0,0,.016.225.363.363,0,0,0,.078.179.492.492,0,0,0,.4.147c.191,0,.375.008.551.008h.186a.452.452,0,0,1,.171.031.324.324,0,0,1,.194.279,3.853,3.853,0,0,1,.024.451c0,.072,0,.145.007.217a.433.433,0,0,1-.023.186.342.342,0,0,1-.326.264c-.166.01-.352.015-.559.015a1.036,1.036,0,0,1-.132-.008.3.3,0,0,0-.116.008.263.263,0,0,1-.109.008.127.127,0,0,0-.093.024.26.26,0,0,0-.178.131.932.932,0,0,0-.086.241.484.484,0,0,0,0,.17.445.445,0,0,1,0,.171v2.779q0,.389.024.674a.913.913,0,0,0,.194.5.415.415,0,0,0,.209.132c.088.026.179.049.272.07a.224.224,0,0,0,.1.008.151.151,0,0,1,.085.007h.17a2.469,2.469,0,0,1,.3.016.291.291,0,0,1,.2.124.429.429,0,0,1,.062.241v.3c0,.217,0,.417-.008.6a.371.371,0,0,1-.257.365.29.29,0,0,1-.139.023.282.282,0,0,0-.14.023h-.155a.664.664,0,0,1-.093-.008.256.256,0,0,0-.109.008.586.586,0,0,1-.163.008,1.546,1.546,0,0,0-.163-.008,1.342,1.342,0,0,0-.155.008.416.416,0,0,1-.139-.008H264.1a.9.9,0,0,0-.171-.016.907.907,0,0,1-.171-.015l-.2-.031-.187-.031a2.816,2.816,0,0,1-.325-.109,2.356,2.356,0,0,1-.3-.139,1.148,1.148,0,0,1-.094-.07c-.031-.026-.067-.054-.109-.085a.965.965,0,0,0-.077-.07.967.967,0,0,1-.077-.07,2.159,2.159,0,0,1-.327-.652.2.2,0,0,1-.023-.117.416.416,0,0,0-.008-.132.173.173,0,0,1-.015-.077.167.167,0,0,0-.016-.078v-.155a.4.4,0,0,1-.007-.14c.005-.051.007-.1.007-.155V111.9c0-.072,0-.145.008-.217a.535.535,0,0,0-.023-.2.39.39,0,0,0-.217-.279.823.823,0,0,0-.435-.047.886.886,0,0,1-.45-.046.236.236,0,0,1-.155-.14,2.089,2.089,0,0,1-.062-.233v-.326a2.585,2.585,0,0,1,.031-.45c.02-.113.108-.191.263-.232a.216.216,0,0,1,.125-.024,1.151,1.151,0,0,0,.14.008,3.7,3.7,0,0,0,.434-.024.328.328,0,0,0,.279-.178.748.748,0,0,0,.055-.248c.005-.093.007-.186.007-.28v-1.226a.769.769,0,0,1,.031-.233.376.376,0,0,1,.233-.2.152.152,0,0,1,.086-.008A.142.142,0,0,0,262.434,107.308Z" fill="#fff"/><path d="M272.56,106.377a5.25,5.25,0,0,1,2.686.558,4.631,4.631,0,0,1,1.676,1.568,3.152,3.152,0,0,1,.279.536,6.294,6.294,0,0,1,.2.6c.02.073.041.156.062.249a.459.459,0,0,1-.015.263.168.168,0,0,1-.117.117l-.194.054h-.124a.525.525,0,0,1-.21.023c-.078-.005-.152-.007-.224-.007-.094,0-.2,0-.334.007s-.256.006-.381,0a3.036,3.036,0,0,1-.341-.031.647.647,0,0,1-.233-.069.657.657,0,0,1-.186-.295,1.387,1.387,0,0,0-.155-.326,2.236,2.236,0,0,0-.776-.807,3.131,3.131,0,0,0-.73-.326,2.006,2.006,0,0,0-.659-.093,2.715,2.715,0,0,0-.691.077q-.125.031-.225.054a1.261,1.261,0,0,0-.21.07,2.7,2.7,0,0,0-1.49,1.49,4.043,4.043,0,0,0-.139.389c-.042.134-.089.273-.14.419-.011.072-.021.139-.031.2s-.021.13-.031.2a.469.469,0,0,0-.023.194.618.618,0,0,1-.024.21.84.84,0,0,0-.023.256c.005.087.008.173.008.256a1.031,1.031,0,0,1-.008.124.325.325,0,0,0,.008.124v.14a.323.323,0,0,1,.023.155.323.323,0,0,0,.023.155,1.411,1.411,0,0,0,.031.249c.021.113.042.219.062.317a2.645,2.645,0,0,0,.078.288,3.906,3.906,0,0,0,.559,1.109,2.288,2.288,0,0,0,1.257.885l.4.117c.051.01.1.018.147.023a1.359,1.359,0,0,0,.147.008h.125a.463.463,0,0,0,.2.023,1.606,1.606,0,0,0,.2-.023.482.482,0,0,0,.14-.016c.124-.02.24-.041.349-.062a1.165,1.165,0,0,0,.318-.109,1.953,1.953,0,0,0,.613-.411,3.232,3.232,0,0,0,.458-.582,1.71,1.71,0,0,0,.155-.341c.042-.125.088-.249.14-.373.031-.114.062-.217.093-.31a.373.373,0,0,1,.2-.218.771.771,0,0,1,.233-.03h1.5a.419.419,0,0,1,.24.062.3.3,0,0,1,.116.248.954.954,0,0,1-.039.326l-.092.419c-.053.155-.1.305-.148.45a2.454,2.454,0,0,1-.179.419,1.582,1.582,0,0,0-.124.241,1.061,1.061,0,0,1-.124.225,4.477,4.477,0,0,1-2.483,1.862,2.173,2.173,0,0,1-.342.093l-.341.062a.305.305,0,0,1-.148.024.291.291,0,0,0-.147.023c-.072,0-.142,0-.209.008s-.138.012-.21.023h-.528a1.108,1.108,0,0,1-.263-.031.526.526,0,0,0-.156-.016l-.217-.031c-.073-.01-.15-.021-.233-.031q-.154-.046-.3-.078c-.1-.02-.2-.046-.3-.077s-.186-.065-.28-.1-.181-.075-.263-.117a4.756,4.756,0,0,1-1.576-1.078,5.42,5.42,0,0,1-1.047-1.607,4.171,4.171,0,0,1-.156-.465c-.041-.155-.088-.315-.139-.481a.363.363,0,0,1-.031-.132.448.448,0,0,0-.016-.116,2.64,2.64,0,0,1-.047-.3,2.363,2.363,0,0,0-.046-.295.252.252,0,0,1-.023-.132.317.317,0,0,0-.008-.117v-.295a.887.887,0,0,1,0-.465.224.224,0,0,0,.008-.1.526.526,0,0,1-.008-.086v-.139a1.457,1.457,0,0,0,.039-.264c.005-.093.013-.186.023-.279a2.267,2.267,0,0,0,.047-.241,2.264,2.264,0,0,1,.046-.241c.042-.144.078-.287.109-.426a2.317,2.317,0,0,1,.124-.4c.052-.134.106-.269.163-.4a2.607,2.607,0,0,1,.194-.372,6.647,6.647,0,0,1,.512-.776,1.658,1.658,0,0,1,.171-.2l.186-.186a4.768,4.768,0,0,1,.815-.659,5.816,5.816,0,0,1,.97-.49,3.4,3.4,0,0,1,.388-.132c.134-.036.274-.069.419-.1a.576.576,0,0,1,.186-.031.453.453,0,0,0,.171-.032c.083-.009.163-.017.241-.023s.157-.013.24-.023a.1.1,0,0,1,.078,0A.1.1,0,0,0,272.56,106.377Z" fill="#fff"/><path d="M286.343,117.086a2.645,2.645,0,0,1,.039.342.221.221,0,0,1-.163.233.5.5,0,0,1-.218.046h-1.086c-.093,0-.184,0-.271-.008a.358.358,0,0,1-.21-.07.386.386,0,0,1-.163-.178.563.563,0,0,0-.148-.194.278.278,0,0,0-.077-.054.191.191,0,0,0-.124-.008.776.776,0,0,0-.148.078.764.764,0,0,1-.147.077.883.883,0,0,1-.171.108l-.186.094a2.365,2.365,0,0,1-.419.147q-.218.054-.45.117a1.2,1.2,0,0,1-.21.039c-.067,0-.137.012-.21.023a.476.476,0,0,0-.092.008.6.6,0,0,1-.094.007h-.171a.77.77,0,0,1-.31,0h-.139a.619.619,0,0,0-.21-.023.5.5,0,0,1-.194-.023c-.1-.021-.2-.039-.295-.055a.927.927,0,0,1-.264-.085,2.582,2.582,0,0,1-.768-.442,1.878,1.878,0,0,1-.505-.722c-.03-.072-.059-.15-.085-.233s-.049-.17-.069-.264a.322.322,0,0,1-.024-.155.5.5,0,0,0-.008-.155.929.929,0,0,1-.023-.194.773.773,0,0,1,.008-.209,1.451,1.451,0,0,0,.031-.265c.031-.113.062-.23.093-.349a1.359,1.359,0,0,1,.124-.318,2.084,2.084,0,0,1,.605-.683,3.437,3.437,0,0,1,.869-.4,1.936,1.936,0,0,1,.42-.109c.144-.021.289-.046.434-.078a1.46,1.46,0,0,1,.264-.038,1.783,1.783,0,0,0,.279-.039.65.65,0,0,1,.218-.024.712.712,0,0,0,.233-.023.813.813,0,0,1,.217-.031.953.953,0,0,0,.233-.031q.326-.077.6-.132a.944.944,0,0,0,.489-.271.7.7,0,0,0,.186-.311.145.145,0,0,0,.008-.077.093.093,0,0,1,.008-.063.216.216,0,0,0,.015-.092V111.9a1.04,1.04,0,0,1-.023-.124.615.615,0,0,0-.023-.109.981.981,0,0,0-.652-.636,1.738,1.738,0,0,0-.334-.07,2.585,2.585,0,0,0-.395-.015,2.982,2.982,0,0,0-.388.039,2.135,2.135,0,0,0-.327.077.829.829,0,0,0-.178.085c-.057.037-.111.076-.163.117a1.073,1.073,0,0,0-.163.17.671.671,0,0,0-.116.2,3.186,3.186,0,0,0-.132.295.315.315,0,0,1-.225.186,1.073,1.073,0,0,1-.264.031h-.869c-.052,0-.1,0-.155.007a.4.4,0,0,1-.14-.007h-.14a.177.177,0,0,0-.078-.016.1.1,0,0,1-.077-.031.25.25,0,0,1-.171-.2.4.4,0,0,1,0-.155c.011-.052.021-.1.031-.14.031-.113.065-.219.1-.318a1.45,1.45,0,0,1,.132-.271l.093-.156.093-.155a1.856,1.856,0,0,1,.311-.326.443.443,0,0,0,.093-.077c.052-.041.1-.078.139-.109s.088-.062.14-.093a2.558,2.558,0,0,1,.559-.272q.294-.1.605-.194a2.327,2.327,0,0,1,.388-.062,2.685,2.685,0,0,0,.4-.062.61.61,0,0,1,.194,0c.087.011.142.006.163-.015a9.293,9.293,0,0,1,1.218.046,4.5,4.5,0,0,1,1.056.233,2.635,2.635,0,0,1,.814.458,1.878,1.878,0,0,1,.528.737,1.776,1.776,0,0,1,.124.6q.016.342.016.7v4.058a2.237,2.237,0,0,0,.062.551.334.334,0,0,1,.016.1A.3.3,0,0,0,286.343,117.086Zm-2.282-2.39a.859.859,0,0,0,.016-.178.87.87,0,0,0-.016-.179.535.535,0,0,1-.031-.171.146.146,0,0,0-.062-.124.37.37,0,0,0-.233-.062.85.85,0,0,1-.108.023l-.109.024a1.586,1.586,0,0,1-.232.046,1.982,1.982,0,0,0-.249.047.489.489,0,0,1-.14.015,2.673,2.673,0,0,1-.4.062,1.66,1.66,0,0,0-.388.078c-.083.021-.161.039-.233.054a1.191,1.191,0,0,0-.217.07,1.408,1.408,0,0,0-.551.419,1,1,0,0,0-.163.776.815.815,0,0,0,.17.435.743.743,0,0,0,.326.271,1.916,1.916,0,0,0,.474.148,2.065,2.065,0,0,0,.543.023,2.425,2.425,0,0,0,.536-.1,1.325,1.325,0,0,0,.636-.4,1.884,1.884,0,0,0,.357-.676,1.1,1.1,0,0,0,.038-.225,1.4,1.4,0,0,1,.039-.24Z" fill="#fff"/><path d="M292.536,109.5a1.311,1.311,0,0,1,.3.031.346.346,0,0,1,.21.139.739.739,0,0,1,.093.427v.535c0,.115,0,.244.007.389a.7.7,0,0,1-.054.341.275.275,0,0,1-.178.139.974.974,0,0,1-.264.032,3.067,3.067,0,0,1-.31-.016.97.97,0,0,0-.3.016,1.043,1.043,0,0,1-.217.039.842.842,0,0,0-.2.038,2.329,2.329,0,0,0-.5.226,1.3,1.3,0,0,0-.388.333c-.052.083-.106.168-.163.256s-.111.179-.163.272c-.031.083-.059.168-.085.256s-.05.173-.07.256a.8.8,0,0,0-.031.225.836.836,0,0,1-.031.225.316.316,0,0,0-.008.117.221.221,0,0,1-.008.1v.249a.608.608,0,0,0-.015.24,2.285,2.285,0,0,1,.015.257v2.312c0,.134-.005.259-.015.373a.563.563,0,0,1-.093.279.189.189,0,0,1-.1.07,1.28,1.28,0,0,1-.148.038h-.077a.828.828,0,0,1-.171.016h-.838a1.219,1.219,0,0,0-.194-.016h-.209c-.053-.02-.1-.038-.156-.054a.164.164,0,0,1-.109-.1.385.385,0,0,1-.069-.225c-.006-.1-.008-.2-.008-.3v-6.884a.428.428,0,0,1,.062-.24.339.339,0,0,1,.233-.155,1.887,1.887,0,0,1,.372-.032h.792a1.948,1.948,0,0,1,.326.024.307.307,0,0,1,.217.147.475.475,0,0,1,.054.217c.006.094.013.184.024.272a1.079,1.079,0,0,0,.054.241.146.146,0,0,0,.147.108.088.088,0,0,1,.062-.031.09.09,0,0,0,.063-.031.921.921,0,0,0,.163-.178.72.72,0,0,1,.178-.179.7.7,0,0,0,.109-.1.667.667,0,0,1,.109-.1c.092-.062.188-.124.287-.186a3.2,3.2,0,0,1,.3-.17,3.136,3.136,0,0,1,.318-.109l.334-.093a.58.58,0,0,1,.179-.008C292.46,109.525,292.515,109.518,292.536,109.5Z" fill="#fff"/><path d="M301.569,116.822v.427a.545.545,0,0,1-.093.334.381.381,0,0,1-.2.1,1.573,1.573,0,0,1-.279.023h-.854c-.1,0-.2,0-.288-.008a.357.357,0,0,1-.209-.07.28.28,0,0,1-.124-.2,1.079,1.079,0,0,0-.062-.249l-.054-.054-.055-.054a.343.343,0,0,0-.248.077l-.155.156c-.073.051-.14.1-.2.131s-.13.081-.2.132c-.042.021-.085.042-.132.062s-.1.042-.147.062a4.845,4.845,0,0,1-.466.14.375.375,0,0,1-.139.031.487.487,0,0,0-.125.016.832.832,0,0,0-.132.008.991.991,0,0,1-.132.007h-.139a.822.822,0,0,1-.279.024.944.944,0,0,1-.265-.039.507.507,0,0,0-.193-.023.453.453,0,0,1-.179-.024c-.124-.041-.246-.08-.364-.116a2.733,2.733,0,0,1-.35-.132,2.685,2.685,0,0,1-.97-.722,4.269,4.269,0,0,1-.675-1.032,2.361,2.361,0,0,1-.124-.334c-.031-.108-.067-.22-.109-.333a.5.5,0,0,1-.016-.117.381.381,0,0,0-.03-.132c-.021-.082-.039-.173-.055-.271s-.033-.2-.054-.3a.239.239,0,0,1-.008-.109.269.269,0,0,0-.007-.108v-.148a.784.784,0,0,0-.016-.147.867.867,0,0,1-.016-.179.662.662,0,0,1,.016-.163.767.767,0,0,0,.016-.147v-.148a.527.527,0,0,0,.007-.147.307.307,0,0,1,.023-.148c.021-.113.039-.222.055-.325a2.315,2.315,0,0,1,.069-.311c.042-.124.078-.243.109-.357a2.383,2.383,0,0,1,.124-.341,4.634,4.634,0,0,1,.544-.885.327.327,0,0,1,.085-.085.315.315,0,0,0,.085-.086,1.737,1.737,0,0,1,.125-.139,1.581,1.581,0,0,1,.139-.124.361.361,0,0,0,.109-.086.346.346,0,0,1,.109-.085,3.653,3.653,0,0,1,.9-.435,1.6,1.6,0,0,1,.225-.046,2.067,2.067,0,0,0,.24-.047,1.355,1.355,0,0,1,.28-.039c.113,0,.227-.007.341-.007s.225,0,.334.015a1.566,1.566,0,0,1,.271.047c.156.051.306.1.451.139a1.81,1.81,0,0,1,.4.171c.072.052.14.1.2.148s.129.1.2.147c.041.031.1.072.178.124a.182.182,0,0,0,.225,0,.109.109,0,0,0,.062-.108.413.413,0,0,1,.031-.156v-.155a.326.326,0,0,0,.016-.109v-2.235c0-.113,0-.24-.008-.38a.509.509,0,0,1,.07-.318.3.3,0,0,1,.233-.155.09.09,0,0,1,.062-.008.086.086,0,0,0,.062-.008h1.1c.124,0,.238.006.341.016a.308.308,0,0,1,.233.124.59.59,0,0,1,.078.318v9.708Zm-2.111-3.042a.383.383,0,0,0,.008-.132,1.008,1.008,0,0,1-.008-.131,2.94,2.94,0,0,0-.016-.311,2,2,0,0,0-.046-.279c-.021-.114-.039-.218-.055-.311a.928.928,0,0,0-.085-.264,2.047,2.047,0,0,0-.629-.884,1.877,1.877,0,0,0-1.187-.326,1.3,1.3,0,0,0-.248.031c-.083.021-.158.038-.225.054a.88.88,0,0,0-.194.07,1.378,1.378,0,0,0-.652.528,3.251,3.251,0,0,0-.373.807,1.7,1.7,0,0,0-.062.31,1.959,1.959,0,0,1-.062.326v.217a1.385,1.385,0,0,0-.015.381,1.785,1.785,0,0,0,.046.349.446.446,0,0,0,.008.085.384.384,0,0,1,.008.07c.02.083.038.161.054.233s.034.15.054.233a2.1,2.1,0,0,0,.9,1.195,1.572,1.572,0,0,0,.558.217.853.853,0,0,0,.187.016.683.683,0,0,0,.147.023.511.511,0,0,0,.163-.008,2.163,2.163,0,0,1,.248-.047,1.032,1.032,0,0,0,.249-.062,1.742,1.742,0,0,0,.62-.434,2.41,2.41,0,0,0,.4-.668,1.375,1.375,0,0,0,.093-.287c.021-.1.042-.2.062-.318a.494.494,0,0,0,.008-.147.3.3,0,0,1,.023-.148.323.323,0,0,0,.016-.108v-.28Z" fill="#fff"/><path d="M315.572,122.9a10.5,10.5,0,1,1,10.5-10.5A10.516,10.516,0,0,1,315.572,122.9Zm0-20.248a9.745,9.745,0,1,0,9.745,9.744A9.756,9.756,0,0,0,315.572,102.654Z" fill="#fff"/><path d="M315.572,122.9c-3.54,0-6.42-4.712-6.42-10.5s2.88-10.5,6.42-10.5,6.421,4.711,6.421,10.5S319.112,122.9,315.572,122.9Zm0-20.248c-3.166,0-5.741,4.371-5.741,9.744s2.575,9.746,5.741,9.746,5.742-4.371,5.742-9.746S318.737,102.654,315.572,102.654Z" fill="#fff"/><path d="M315.572,122.9c-1.9,0-2.924-5.411-2.924-10.5s1.025-10.5,2.924-10.5,2.924,5.412,2.924,10.5S317.472,122.9,315.572,122.9Zm0-20.248c-1.1,0-2.321,4-2.321,9.744s1.224,9.746,2.321,9.746,2.321-4,2.321-9.746S316.67,102.654,315.572,102.654Z" fill="#fff"/><path d="M305.068,112.4c0-3.445,4.712-6.247,10.5-6.247s10.5,2.8,10.5,6.247-4.712,6.247-10.5,6.247S305.068,115.844,305.068,112.4Zm20.249,0c0-3.08-4.372-5.587-9.745-5.587s-9.745,2.507-9.745,5.587,4.372,5.587,9.745,5.587S325.317,115.48,325.317,112.4Z" fill="#fff"/><path d="M305.068,112.4c0-1.812,5.412-2.79,10.5-2.79s10.5.978,10.5,2.79-5.411,2.792-10.5,2.792S305.068,114.211,305.068,112.4Zm20.249,0c0-1.046-4-2.214-9.745-2.214s-9.745,1.168-9.745,2.214,4,2.215,9.745,2.215S325.317,113.446,325.317,112.4Z" fill="#fff"/><g style="mix-blend-mode:multiply;isolation:isolate"><path d="M265.73,144.734a9.661,9.661,0,0,1,.5-3.61,1.636,1.636,0,0,1,3.133.006,13.045,13.045,0,0,1,0,7.2,1.64,1.64,0,0,1-3.133.009A9.579,9.579,0,0,1,265.73,144.734Zm2.067-3.989q-.629,0-.92.974a11.934,11.934,0,0,0-.289,3.1,10.691,10.691,0,0,0,.3,2.94q.3.948.913.948.636,0,.932-.958a15.626,15.626,0,0,0,0-6.054Q268.434,140.746,267.8,140.745Z" fill="#5d5c5c"/><path d="M270.8,144.734a9.656,9.656,0,0,1,.5-3.61,1.636,1.636,0,0,1,3.133.006,13.07,13.07,0,0,1,0,7.2,1.64,1.64,0,0,1-3.133.009A9.574,9.574,0,0,1,270.8,144.734Zm2.068-3.989q-.63,0-.92.974a11.935,11.935,0,0,0-.289,3.1,10.691,10.691,0,0,0,.3,2.94q.294.948.913.948.634,0,.932-.958a15.624,15.624,0,0,0,0-6.054Q273.5,140.746,272.868,140.745Z" fill="#5d5c5c"/><path d="M275.871,144.734a9.661,9.661,0,0,1,.5-3.61,1.637,1.637,0,0,1,3.134.006,13.045,13.045,0,0,1,0,7.2,1.64,1.64,0,0,1-3.134.009A9.579,9.579,0,0,1,275.871,144.734Zm2.068-3.989q-.63,0-.92.974a11.881,11.881,0,0,0-.29,3.1,10.691,10.691,0,0,0,.3,2.94q.3.948.914.948.635,0,.932-.958a15.678,15.678,0,0,0,0-6.054Q278.574,140.746,277.939,140.745Z" fill="#5d5c5c"/><path d="M280.941,144.734a9.657,9.657,0,0,1,.5-3.61,1.637,1.637,0,0,1,3.134.006,13.07,13.07,0,0,1,0,7.2,1.64,1.64,0,0,1-3.134.009A9.575,9.575,0,0,1,280.941,144.734Zm2.068-3.989q-.63,0-.919.974a11.935,11.935,0,0,0-.289,3.1,10.7,10.7,0,0,0,.3,2.94q.3.948.913.948.637,0,.932-.958a15.626,15.626,0,0,0,0-6.054Q283.645,140.746,283.009,140.745Z" fill="#5d5c5c"/><path d="M288.538,144.734a9.681,9.681,0,0,1,.5-3.61,1.637,1.637,0,0,1,3.134.006,13.046,13.046,0,0,1,0,7.2,1.64,1.64,0,0,1-3.134.009A9.6,9.6,0,0,1,288.538,144.734Zm2.067-3.989q-.629,0-.919.974a11.925,11.925,0,0,0-.29,3.1,10.683,10.683,0,0,0,.3,2.94q.294.948.912.948.636,0,.932-.958a15.624,15.624,0,0,0,0-6.054Q291.242,140.746,290.605,140.745Z" fill="#5d5c5c"/><path d="M293.608,144.734a9.657,9.657,0,0,1,.5-3.61,1.637,1.637,0,0,1,3.134.006,13.07,13.07,0,0,1,0,7.2,1.64,1.64,0,0,1-3.134.009A9.575,9.575,0,0,1,293.608,144.734Zm2.068-3.989q-.629,0-.919.974a11.881,11.881,0,0,0-.29,3.1,10.691,10.691,0,0,0,.3,2.94q.3.948.913.948.638,0,.932-.958a15.626,15.626,0,0,0,0-6.054Q296.313,140.746,295.676,140.745Z" fill="#5d5c5c"/><path d="M298.679,144.734a9.656,9.656,0,0,1,.5-3.61,1.636,1.636,0,0,1,3.133.006,13.045,13.045,0,0,1,0,7.2,1.64,1.64,0,0,1-3.133.009A9.574,9.574,0,0,1,298.679,144.734Zm2.068-3.989q-.63,0-.919.974a11.881,11.881,0,0,0-.29,3.1,10.738,10.738,0,0,0,.3,2.94q.3.948.914.948.636,0,.932-.958a15.677,15.677,0,0,0,0-6.054Q301.382,140.746,300.747,140.745Z" fill="#5d5c5c"/><path d="M303.749,144.734a9.656,9.656,0,0,1,.5-3.61,1.636,1.636,0,0,1,3.133.006,13.021,13.021,0,0,1,0,7.2,1.64,1.64,0,0,1-3.133.009A9.574,9.574,0,0,1,303.749,144.734Zm2.068-3.989q-.63,0-.919.974a11.924,11.924,0,0,0-.29,3.1,10.691,10.691,0,0,0,.3,2.94q.3.948.913.948.636,0,.933-.958a15.677,15.677,0,0,0,0-6.054Q306.453,140.746,305.817,140.745Z" fill="#5d5c5c"/><path d="M311.346,144.734a9.657,9.657,0,0,1,.5-3.61,1.636,1.636,0,0,1,3.133.006,13.045,13.045,0,0,1,0,7.2,1.64,1.64,0,0,1-3.133.009A9.575,9.575,0,0,1,311.346,144.734Zm2.068-3.989q-.63,0-.919.974a11.935,11.935,0,0,0-.289,3.1,10.7,10.7,0,0,0,.3,2.94q.3.948.913.948.636,0,.932-.958a15.626,15.626,0,0,0,0-6.054Q314.05,140.746,313.414,140.745Z" fill="#5d5c5c"/><path d="M316.417,144.734a9.661,9.661,0,0,1,.5-3.61,1.637,1.637,0,0,1,3.134.006,13.046,13.046,0,0,1,0,7.2,1.64,1.64,0,0,1-3.134.009A9.579,9.579,0,0,1,316.417,144.734Zm2.067-3.989q-.63,0-.919.974a11.935,11.935,0,0,0-.289,3.1,10.652,10.652,0,0,0,.3,2.94q.3.948.912.948c.424,0,.736-.319.932-.958a15.624,15.624,0,0,0,0-6.054C319.22,141.064,318.908,140.745,318.484,140.745Z" fill="#5d5c5c"/><path d="M321.488,144.734a9.682,9.682,0,0,1,.5-3.61,1.636,1.636,0,0,1,3.133.006,13.045,13.045,0,0,1,0,7.2,1.64,1.64,0,0,1-3.133.009A9.6,9.6,0,0,1,321.488,144.734Zm2.067-3.989q-.629,0-.919.974a11.926,11.926,0,0,0-.29,3.1,10.643,10.643,0,0,0,.3,2.94q.294.948.912.948.635,0,.933-.958a15.678,15.678,0,0,0,0-6.054Q324.191,140.746,323.555,140.745Z" fill="#5d5c5c"/><path d="M326.558,144.734a9.682,9.682,0,0,1,.5-3.61,1.637,1.637,0,0,1,3.134.006,13.045,13.045,0,0,1,0,7.2,1.64,1.64,0,0,1-3.134.009A9.6,9.6,0,0,1,326.558,144.734Zm2.067-3.989q-.629,0-.919.974a11.935,11.935,0,0,0-.289,3.1,10.69,10.69,0,0,0,.3,2.94q.3.948.912.948.637,0,.933-.958a15.678,15.678,0,0,0,0-6.054Q329.261,140.746,328.625,140.745Z" fill="#5d5c5c"/><path d="M266.137,159.657h.789v7.881h1.841v.713h-2.63Z" fill="#5d5c5c"/><path d="M269.121,165.355a4.78,4.78,0,0,1,.414-2.243,1.341,1.341,0,0,1,1.245-.754,1.325,1.325,0,0,1,1.224.762,4.751,4.751,0,0,1,.419,2.235,4.8,4.8,0,0,1-.415,2.242,1.389,1.389,0,0,1-2.473.005A4.79,4.79,0,0,1,269.121,165.355Zm1.648-2.384a.742.742,0,0,0-.7.565,5.423,5.423,0,0,0-.22,1.819,5.506,5.506,0,0,0,.22,1.83.745.745,0,0,0,.7.571q.465,0,.691-.586a5.315,5.315,0,0,0,.226-1.8,5.384,5.384,0,0,0-.226-1.809C271.309,163.167,271.079,162.971,270.769,162.971Z" fill="#5d5c5c"/><path d="M273.494,162.476h.712v.783a1.555,1.555,0,0,1,.4-.617.9.9,0,0,1,.55-.237v.772a.853.853,0,0,0-.738.371,2.616,2.616,0,0,0-.209,1.253v3.45h-.712Z" fill="#5d5c5c"/><path d="M278.914,165.537h-2.519v.194a3.587,3.587,0,0,0,.247,1.486.761.761,0,0,0,.683.527.67.67,0,0,0,.585-.38,2.1,2.1,0,0,0,.245-1.027h.689a2.6,2.6,0,0,1-.453,1.478,1.353,1.353,0,0,1-2.288-.2,6.134,6.134,0,0,1,.033-4.453,1.341,1.341,0,0,1,1.212-.794,1.259,1.259,0,0,1,1.172.75,4.922,4.922,0,0,1,.394,2.223Zm-.677-.589a3.641,3.641,0,0,0-.232-1.424c-.151-.338-.362-.505-.633-.505a.768.768,0,0,0-.685.5,3.509,3.509,0,0,0-.292,1.43Z" fill="#5d5c5c"/><path d="M279.879,162.476h.713v.53a1.24,1.24,0,0,1,.47-.45,1.328,1.328,0,0,1,.636-.151,1.086,1.086,0,0,1,.635.184,1.218,1.218,0,0,1,.424.553,1.5,1.5,0,0,1,.521-.551,1.329,1.329,0,0,1,.7-.186.984.984,0,0,1,.894.433,2.724,2.724,0,0,1,.276,1.41v4h-.712v-4.109a1.885,1.885,0,0,0-.159-.93.6.6,0,0,0-.552-.253.7.7,0,0,0-.637.367,2.163,2.163,0,0,0-.217,1.08v3.845h-.712v-4.109a1.894,1.894,0,0,0-.16-.93.6.6,0,0,0-.553-.253.7.7,0,0,0-.635.367,2.162,2.162,0,0,0-.218,1.08v3.845h-.713Z" fill="#5d5c5c"/><path d="M288.961,168.251v-8.594h.789v8.594Z" fill="#5d5c5c"/><path d="M291.315,162.476h.713v.483a1.307,1.307,0,0,1,.441-.418,1.137,1.137,0,0,1,.559-.136,1.117,1.117,0,0,1,1.074.692,5.636,5.636,0,0,1,.333,2.275,5.573,5.573,0,0,1-.344,2.264,1.13,1.13,0,0,1-1.074.72,1.194,1.194,0,0,1-.545-.126,1.309,1.309,0,0,1-.444-.379v2.713h-.713Zm1.519,5.292a.685.685,0,0,0,.67-.507,5.953,5.953,0,0,0,.2-1.866,6.034,6.034,0,0,0-.2-1.879.687.687,0,0,0-1.333.023,6.03,6.03,0,0,0-.2,1.856,5.939,5.939,0,0,0,.2,1.845A.689.689,0,0,0,292.834,167.768Z" fill="#5d5c5c"/><path d="M295.235,167.114a1.991,1.991,0,0,0,.535.453,1.141,1.141,0,0,0,.56.154.873.873,0,0,0,.906-.906q0-.49-.883-1.243l-.083-.071a4.419,4.419,0,0,1-.9-.944,1.485,1.485,0,0,1-.206-.769,1.362,1.362,0,0,1,.4-1.009,1.4,1.4,0,0,1,1.024-.4,1.865,1.865,0,0,1,.52.072,2.018,2.018,0,0,1,.5.228v.735a1.633,1.633,0,0,0-.465-.323,1.171,1.171,0,0,0-.488-.113.814.814,0,0,0-.583.224.742.742,0,0,0-.236.559q0,.471.819,1.154l.047.041a4.788,4.788,0,0,1,.994,1.015,1.681,1.681,0,0,1-.211,1.964,1.484,1.484,0,0,1-1.107.447,1.706,1.706,0,0,1-.609-.113,1.786,1.786,0,0,1-.533-.311Z" fill="#5d5c5c"/><path d="M298.654,162.476h.713v3.785a2.444,2.444,0,0,0,.185,1.124.663.663,0,0,0,.627.323.65.65,0,0,0,.612-.317,2.461,2.461,0,0,0,.182-1.13v-3.785h.712v3.909a2.478,2.478,0,0,1-.361,1.5,1.354,1.354,0,0,1-1.145.471,1.371,1.371,0,0,1-1.156-.474,2.441,2.441,0,0,1-.369-1.5Z" fill="#5d5c5c"/><path d="M303,162.476h.713v.53a1.24,1.24,0,0,1,.47-.45,1.328,1.328,0,0,1,.636-.151,1.088,1.088,0,0,1,.635.184,1.225,1.225,0,0,1,.424.553,1.5,1.5,0,0,1,.521-.551,1.328,1.328,0,0,1,.7-.186.984.984,0,0,1,.895.433,2.722,2.722,0,0,1,.277,1.41v4h-.713v-4.109a1.9,1.9,0,0,0-.159-.93.6.6,0,0,0-.554-.253.7.7,0,0,0-.635.367,2.152,2.152,0,0,0-.217,1.08v3.845h-.713v-4.109a1.9,1.9,0,0,0-.159-.93.6.6,0,0,0-.553-.253.7.7,0,0,0-.636.367,2.163,2.163,0,0,0-.217,1.08v3.845H303Z" fill="#5d5c5c"/><path d="M318.71,163.959a8.959,8.959,0,0,1,.465-3.34,1.514,1.514,0,0,1,2.9.006,12.071,12.071,0,0,1,0,6.657,1.517,1.517,0,0,1-2.9.009A8.882,8.882,0,0,1,318.71,163.959Zm1.913-3.69q-.582,0-.85.9a11.028,11.028,0,0,0-.268,2.873,9.886,9.886,0,0,0,.274,2.719q.273.877.844.877.59,0,.863-.885a14.5,14.5,0,0,0,0-5.6Q321.213,160.27,320.623,160.269Z" fill="#5d5c5c"/><path d="M323.4,163.959a8.913,8.913,0,0,1,.466-3.34,1.514,1.514,0,0,1,2.9.006,12.071,12.071,0,0,1,0,6.657,1.516,1.516,0,0,1-2.9.009A8.837,8.837,0,0,1,323.4,163.959Zm1.914-3.69q-.584,0-.851.9a11.029,11.029,0,0,0-.268,2.873,9.886,9.886,0,0,0,.274,2.719q.273.877.845.877c.391,0,.679-.295.861-.885a14.448,14.448,0,0,0,0-5.6C325.994,160.564,325.706,160.269,325.315,160.269Z" fill="#5d5c5c"/><path d="M330.647,159.546h.66l-3.662,9.823h-.665Z" fill="#5d5c5c"/><path d="M331.441,163.959a8.913,8.913,0,0,1,.466-3.34,1.514,1.514,0,0,1,2.9.006,12.095,12.095,0,0,1,0,6.657,1.516,1.516,0,0,1-2.9.009A8.837,8.837,0,0,1,331.441,163.959Zm1.913-3.69q-.582,0-.851.9a11.084,11.084,0,0,0-.267,2.873,9.846,9.846,0,0,0,.274,2.719q.273.877.844.877.59,0,.862-.885a14.449,14.449,0,0,0,0-5.6Q333.943,160.27,333.354,160.269Z" fill="#5d5c5c"/><path d="M336.132,163.959a8.938,8.938,0,0,1,.465-3.34,1.514,1.514,0,0,1,2.9.006,12.071,12.071,0,0,1,0,6.657,1.517,1.517,0,0,1-2.9.009A8.862,8.862,0,0,1,336.132,163.959Zm1.913-3.69q-.582,0-.851.9a11.083,11.083,0,0,0-.267,2.873,9.894,9.894,0,0,0,.273,2.719q.274.877.845.877.588,0,.862-.885a14.449,14.449,0,0,0,0-5.6Q338.634,160.27,338.045,160.269Z" fill="#5d5c5c"/><path d="M343.377,159.546h.66l-3.662,9.823h-.664Z" fill="#5d5c5c"/><path d="M344.172,163.959a8.959,8.959,0,0,1,.465-3.34,1.514,1.514,0,0,1,2.9.006,12.071,12.071,0,0,1,0,6.657,1.517,1.517,0,0,1-2.9.009A8.882,8.882,0,0,1,344.172,163.959Zm1.913-3.69q-.583,0-.851.9a11.083,11.083,0,0,0-.267,2.873,9.9,9.9,0,0,0,.273,2.719c.182.585.465.877.845.877s.681-.295.862-.885a14.448,14.448,0,0,0,0-5.6C346.766,160.564,346.477,160.269,346.085,160.269Z" fill="#5d5c5c"/><path d="M348.863,163.959a8.938,8.938,0,0,1,.465-3.34,1.514,1.514,0,0,1,2.9.006,12.095,12.095,0,0,1,0,6.657,1.517,1.517,0,0,1-2.9.009A8.862,8.862,0,0,1,348.863,163.959Zm1.913-3.69q-.584,0-.851.9a11.074,11.074,0,0,0-.268,2.873,9.847,9.847,0,0,0,.274,2.719q.275.877.845.877.588,0,.862-.885a14.449,14.449,0,0,0,0-5.6Q351.365,160.27,350.776,160.269Z" fill="#5d5c5c"/></g><path d="M265.267,144.339a9.653,9.653,0,0,1,.5-3.61,1.636,1.636,0,0,1,3.134.006,13.046,13.046,0,0,1,0,7.2,1.64,1.64,0,0,1-3.134.009A9.581,9.581,0,0,1,265.267,144.339Zm2.067-3.989q-.629,0-.919.973a11.933,11.933,0,0,0-.29,3.1,10.678,10.678,0,0,0,.3,2.939q.3.948.913.948.636,0,.933-.957a15.677,15.677,0,0,0,0-6.054Q267.97,140.35,267.334,140.35Z" fill="#fff"/><path d="M270.337,144.339a9.65,9.65,0,0,1,.5-3.61,1.636,1.636,0,0,1,3.134.006,13.07,13.07,0,0,1,0,7.2,1.64,1.64,0,0,1-3.134.009A9.578,9.578,0,0,1,270.337,144.339Zm2.068-3.989q-.63,0-.919.973a11.934,11.934,0,0,0-.29,3.1,10.678,10.678,0,0,0,.3,2.939q.3.948.913.948.636,0,.932-.957a15.626,15.626,0,0,0,0-6.054Q273.042,140.35,272.4,140.35Z" fill="#fff"/><path d="M275.408,144.339a9.649,9.649,0,0,1,.5-3.61,1.636,1.636,0,0,1,3.133.006,13.046,13.046,0,0,1,0,7.2,1.639,1.639,0,0,1-3.133.009A9.578,9.578,0,0,1,275.408,144.339Zm2.068-3.989q-.63,0-.919.973a11.934,11.934,0,0,0-.29,3.1,10.678,10.678,0,0,0,.3,2.939q.3.948.913.948.636,0,.932-.957a15.624,15.624,0,0,0,0-6.054Q278.113,140.35,277.476,140.35Z" fill="#fff"/><path d="M280.479,144.339a9.653,9.653,0,0,1,.5-3.61,1.636,1.636,0,0,1,3.134.006,13.045,13.045,0,0,1,0,7.2,1.64,1.64,0,0,1-3.134.009A9.582,9.582,0,0,1,280.479,144.339Zm2.068-3.989q-.63,0-.92.973a11.988,11.988,0,0,0-.289,3.1,10.639,10.639,0,0,0,.3,2.939q.3.948.913.948.636,0,.932-.957a15.626,15.626,0,0,0,0-6.054Q283.184,140.35,282.547,140.35Z" fill="#fff"/><path d="M288.076,144.339a9.653,9.653,0,0,1,.5-3.61,1.636,1.636,0,0,1,3.134.006,13.046,13.046,0,0,1,0,7.2,1.64,1.64,0,0,1-3.134.009A9.582,9.582,0,0,1,288.076,144.339Zm2.068-3.989q-.63,0-.92.973a11.944,11.944,0,0,0-.289,3.1,10.685,10.685,0,0,0,.3,2.939q.3.948.914.948.634,0,.932-.957a15.624,15.624,0,0,0,0-6.054Q290.779,140.35,290.144,140.35Z" fill="#fff"/><path d="M293.146,144.339a9.65,9.65,0,0,1,.5-3.61,1.636,1.636,0,0,1,3.134.006,13.045,13.045,0,0,1,0,7.2,1.64,1.64,0,0,1-3.134.009A9.578,9.578,0,0,1,293.146,144.339Zm2.068-3.989q-.63,0-.919.973a11.933,11.933,0,0,0-.29,3.1,10.678,10.678,0,0,0,.3,2.939q.3.948.913.948.636,0,.932-.957a15.626,15.626,0,0,0,0-6.054Q295.851,140.35,295.214,140.35Z" fill="#fff"/><path d="M298.217,144.339a9.65,9.65,0,0,1,.5-3.61,1.636,1.636,0,0,1,3.133.006,13.045,13.045,0,0,1,0,7.2,1.639,1.639,0,0,1-3.133.009A9.578,9.578,0,0,1,298.217,144.339Zm2.068-3.989q-.63,0-.919.973a11.934,11.934,0,0,0-.29,3.1,10.677,10.677,0,0,0,.3,2.939q.3.948.913.948.636,0,.932-.957a15.626,15.626,0,0,0,0-6.054Q300.921,140.35,300.285,140.35Z" fill="#fff"/><path d="M303.288,144.339a9.674,9.674,0,0,1,.5-3.61,1.636,1.636,0,0,1,3.134.006,13.046,13.046,0,0,1,0,7.2,1.64,1.64,0,0,1-3.134.009A9.6,9.6,0,0,1,303.288,144.339Zm2.068-3.989q-.63,0-.92.973a11.988,11.988,0,0,0-.289,3.1,10.678,10.678,0,0,0,.3,2.939q.3.948.913.948.636,0,.932-.957a15.624,15.624,0,0,0,0-6.054Q305.993,140.35,305.356,140.35Z" fill="#fff"/><path d="M310.885,144.339a9.653,9.653,0,0,1,.5-3.61,1.636,1.636,0,0,1,3.134.006,13.045,13.045,0,0,1,0,7.2,1.64,1.64,0,0,1-3.134.009A9.582,9.582,0,0,1,310.885,144.339Zm2.068-3.989q-.63,0-.92.973a11.944,11.944,0,0,0-.289,3.1,10.638,10.638,0,0,0,.3,2.939q.3.948.913.948.635,0,.932-.957a15.626,15.626,0,0,0,0-6.054Q313.588,140.35,312.953,140.35Z" fill="#fff"/><path d="M315.956,144.339a9.653,9.653,0,0,1,.5-3.61,1.636,1.636,0,0,1,3.134.006,13.046,13.046,0,0,1,0,7.2,1.64,1.64,0,0,1-3.134.009A9.581,9.581,0,0,1,315.956,144.339Zm2.067-3.989q-.63,0-.919.973a11.934,11.934,0,0,0-.29,3.1,10.678,10.678,0,0,0,.3,2.939q.3.948.913.948.636,0,.933-.957a15.677,15.677,0,0,0,0-6.054Q318.659,140.35,318.023,140.35Z" fill="#fff"/><path d="M321.026,144.339a9.65,9.65,0,0,1,.5-3.61,1.636,1.636,0,0,1,3.134.006,13.07,13.07,0,0,1,0,7.2,1.64,1.64,0,0,1-3.134.009A9.578,9.578,0,0,1,321.026,144.339Zm2.068-3.989q-.63,0-.919.973a11.934,11.934,0,0,0-.29,3.1,10.678,10.678,0,0,0,.3,2.939q.3.948.913.948.636,0,.932-.957a15.626,15.626,0,0,0,0-6.054Q323.731,140.35,323.094,140.35Z" fill="#fff"/><path d="M326.1,144.339a9.65,9.65,0,0,1,.5-3.61,1.636,1.636,0,0,1,3.133.006,13.045,13.045,0,0,1,0,7.2,1.639,1.639,0,0,1-3.133.009A9.578,9.578,0,0,1,326.1,144.339Zm2.068-3.989q-.63,0-.919.973a11.934,11.934,0,0,0-.29,3.1,10.677,10.677,0,0,0,.3,2.939q.3.948.913.948.636,0,.932-.957a15.624,15.624,0,0,0,0-6.054Q328.8,140.35,328.165,140.35Z" fill="#fff"/><path d="M265.674,159.262h.789v7.881H268.3v.712h-2.631Z" fill="#fff"/><path d="M268.659,164.959a4.781,4.781,0,0,1,.414-2.242,1.339,1.339,0,0,1,1.245-.754,1.325,1.325,0,0,1,1.224.763,4.746,4.746,0,0,1,.418,2.233,4.794,4.794,0,0,1-.415,2.243,1.323,1.323,0,0,1-1.227.759,1.34,1.34,0,0,1-1.245-.753A4.8,4.8,0,0,1,268.659,164.959Zm1.648-2.383a.742.742,0,0,0-.7.565,5.411,5.411,0,0,0-.221,1.818,5.5,5.5,0,0,0,.221,1.831.744.744,0,0,0,.7.57c.309,0,.54-.194.691-.585a5.31,5.31,0,0,0,.227-1.8,5.389,5.389,0,0,0-.227-1.81Q270.771,162.576,270.307,162.576Z" fill="#fff"/><path d="M273.031,162.081h.713v.783a1.577,1.577,0,0,1,.4-.618.908.908,0,0,1,.55-.235v.771a.853.853,0,0,0-.738.37,2.611,2.611,0,0,0-.209,1.254v3.449h-.713Z" fill="#fff"/><path d="M278.452,165.142h-2.519v.194a3.6,3.6,0,0,0,.247,1.486.761.761,0,0,0,.683.527.672.672,0,0,0,.586-.38,2.115,2.115,0,0,0,.244-1.027h.688a2.57,2.57,0,0,1-.453,1.477,1.351,1.351,0,0,1-2.286-.2,6.124,6.124,0,0,1,.032-4.452,1.338,1.338,0,0,1,1.213-.795,1.26,1.26,0,0,1,1.171.751,4.915,4.915,0,0,1,.394,2.221Zm-.677-.589a3.641,3.641,0,0,0-.232-1.424q-.227-.505-.633-.506a.768.768,0,0,0-.685.5,3.491,3.491,0,0,0-.292,1.43Z" fill="#fff"/><path d="M279.417,162.081h.712v.53a1.249,1.249,0,0,1,.471-.45,1.324,1.324,0,0,1,.636-.15,1.092,1.092,0,0,1,.636.182,1.249,1.249,0,0,1,.423.553,1.5,1.5,0,0,1,.521-.55,1.325,1.325,0,0,1,.7-.185.981.981,0,0,1,.894.432,2.708,2.708,0,0,1,.277,1.409v4h-.712v-4.108a1.894,1.894,0,0,0-.16-.93.6.6,0,0,0-.553-.253.7.7,0,0,0-.635.368,2.143,2.143,0,0,0-.218,1.08v3.843H281.7v-4.108a1.9,1.9,0,0,0-.159-.93.6.6,0,0,0-.553-.253.7.7,0,0,0-.636.368,2.154,2.154,0,0,0-.218,1.08v3.843h-.712Z" fill="#fff"/><path d="M288.5,167.855v-8.593h.789v8.593Z" fill="#fff"/><path d="M290.853,162.081h.712v.483a1.307,1.307,0,0,1,.441-.418,1.147,1.147,0,0,1,.559-.135,1.117,1.117,0,0,1,1.075.691,5.655,5.655,0,0,1,.332,2.275,5.565,5.565,0,0,1-.344,2.263,1.13,1.13,0,0,1-1.074.721,1.182,1.182,0,0,1-.545-.127,1.3,1.3,0,0,1-.444-.379v2.713h-.712Zm1.518,5.292a.685.685,0,0,0,.671-.507,5.963,5.963,0,0,0,.194-1.865,6.054,6.054,0,0,0-.194-1.881.687.687,0,0,0-1.333.024,6.02,6.02,0,0,0-.2,1.857,5.938,5.938,0,0,0,.2,1.845A.688.688,0,0,0,292.371,167.373Z" fill="#fff"/><path d="M294.773,166.719a1.993,1.993,0,0,0,.535.453,1.147,1.147,0,0,0,.56.153.871.871,0,0,0,.906-.906q0-.489-.883-1.242l-.082-.071a4.441,4.441,0,0,1-.907-.944,1.493,1.493,0,0,1-.206-.768,1.364,1.364,0,0,1,.4-1.01,1.394,1.394,0,0,1,1.024-.4,1.922,1.922,0,0,1,.521.073,2.038,2.038,0,0,1,.5.227v.736a1.654,1.654,0,0,0-.464-.324,1.174,1.174,0,0,0-.489-.112.816.816,0,0,0-.583.224.741.741,0,0,0-.235.559q0,.471.818,1.154l.047.041a4.8,4.8,0,0,1,.995,1.015,1.583,1.583,0,0,1,.223.827,1.562,1.562,0,0,1-.435,1.136,1.479,1.479,0,0,1-1.106.447,1.707,1.707,0,0,1-.61-.112,1.762,1.762,0,0,1-.532-.312Z" fill="#fff"/><path d="M298.192,162.081h.712v3.785a2.428,2.428,0,0,0,.186,1.124.662.662,0,0,0,.627.324.649.649,0,0,0,.612-.318,2.475,2.475,0,0,0,.182-1.13v-3.785h.712v3.908a2.478,2.478,0,0,1-.362,1.5,1.352,1.352,0,0,1-1.144.471,1.373,1.373,0,0,1-1.157-.474,2.449,2.449,0,0,1-.368-1.5Z" fill="#fff"/><path d="M302.536,162.081h.712v.53a1.235,1.235,0,0,1,.471-.45,1.32,1.32,0,0,1,.635-.15,1.09,1.09,0,0,1,.636.182,1.25,1.25,0,0,1,.424.553,1.489,1.489,0,0,1,.521-.55,1.324,1.324,0,0,1,.7-.185.984.984,0,0,1,.9.432,2.72,2.72,0,0,1,.276,1.409v4h-.712v-4.108a1.9,1.9,0,0,0-.159-.93.6.6,0,0,0-.553-.253.7.7,0,0,0-.635.368,2.143,2.143,0,0,0-.218,1.08v3.843h-.713v-4.108a1.9,1.9,0,0,0-.158-.93.6.6,0,0,0-.553-.253.7.7,0,0,0-.636.368,2.143,2.143,0,0,0-.218,1.08v3.843h-.712Z" fill="#fff"/><path d="M318.248,163.565a8.936,8.936,0,0,1,.465-3.341,1.514,1.514,0,0,1,2.9.006,12.071,12.071,0,0,1,0,6.657,1.517,1.517,0,0,1-2.9.008A8.853,8.853,0,0,1,318.248,163.565Zm1.913-3.691q-.582,0-.85.9a11.033,11.033,0,0,0-.268,2.873,9.853,9.853,0,0,0,.274,2.719q.273.878.844.877.589,0,.862-.886a14.444,14.444,0,0,0,0-5.6Q320.75,159.873,320.161,159.874Z" fill="#fff"/><path d="M322.939,163.565a8.937,8.937,0,0,1,.465-3.341,1.514,1.514,0,0,1,2.9.006,12.071,12.071,0,0,1,0,6.657,1.517,1.517,0,0,1-2.9.008A8.853,8.853,0,0,1,322.939,163.565Zm1.913-3.691q-.582,0-.85.9a11.033,11.033,0,0,0-.268,2.873,9.853,9.853,0,0,0,.274,2.719q.273.878.844.877.59,0,.862-.886a14.443,14.443,0,0,0,0-5.6Q325.441,159.873,324.852,159.874Z" fill="#fff"/><path d="M330.185,159.15h.659l-3.661,9.823h-.665Z" fill="#fff"/><path d="M330.979,163.565a8.937,8.937,0,0,1,.465-3.341,1.514,1.514,0,0,1,2.9.006,12.07,12.07,0,0,1,0,6.657,1.517,1.517,0,0,1-2.9.008A8.853,8.853,0,0,1,330.979,163.565Zm1.913-3.691q-.582,0-.85.9a11.034,11.034,0,0,0-.268,2.873,9.851,9.851,0,0,0,.274,2.719q.273.878.844.877.59,0,.862-.886a14.443,14.443,0,0,0,0-5.6Q333.481,159.873,332.892,159.874Z" fill="#fff"/><path d="M335.67,163.565a8.937,8.937,0,0,1,.465-3.341,1.514,1.514,0,0,1,2.9.006,12.07,12.07,0,0,1,0,6.657,1.517,1.517,0,0,1-2.9.008A8.853,8.853,0,0,1,335.67,163.565Zm1.913-3.691q-.582,0-.85.9a11.033,11.033,0,0,0-.268,2.873,9.851,9.851,0,0,0,.274,2.719q.273.878.844.877.59,0,.862-.886a14.444,14.444,0,0,0,0-5.6Q338.172,159.873,337.583,159.874Z" fill="#fff"/><path d="M342.915,159.15h.66l-3.661,9.823h-.665Z" fill="#fff"/><path d="M343.71,163.565a8.937,8.937,0,0,1,.465-3.341,1.514,1.514,0,0,1,2.9.006,12.071,12.071,0,0,1,0,6.657,1.517,1.517,0,0,1-2.9.008A8.853,8.853,0,0,1,343.71,163.565Zm1.913-3.691q-.582,0-.85.9a11.033,11.033,0,0,0-.268,2.873,9.853,9.853,0,0,0,.274,2.719q.273.878.844.877.59,0,.862-.886a14.443,14.443,0,0,0,0-5.6Q346.212,159.873,345.623,159.874Z" fill="#fff"/><path d="M348.4,163.565a8.937,8.937,0,0,1,.465-3.341,1.514,1.514,0,0,1,2.9.006,12.071,12.071,0,0,1,0,6.657,1.517,1.517,0,0,1-2.9.008A8.853,8.853,0,0,1,348.4,163.565Zm1.913-3.691q-.582,0-.85.9a11.034,11.034,0,0,0-.268,2.873,9.852,9.852,0,0,0,.274,2.719q.273.878.844.877.588,0,.862-.886a14.443,14.443,0,0,0,0-5.6Q350.9,159.873,350.314,159.874Z" fill="#fff"/></g></g></svg>