<svg xmlns="http://www.w3.org/2000/svg" width="36.945" height="36.945" viewBox="0 0 36.945 36.945"><g transform="translate(0 0)"><path d="M284.817,117.059h0a18.472,18.472,0,0,1-18.472-18.472h0a18.473,18.473,0,0,1,18.472-18.473h0A18.473,18.473,0,0,1,303.29,98.587h0A18.473,18.473,0,0,1,284.817,117.059Z" transform="translate(-266.345 -80.114)" fill="#3e5c9a"/><path d="M294.542,116.631h4.5v-11.26h3.137l.334-3.77h-3.472V99.453c0-.889.178-1.24,1.038-1.24h2.434V94.3H299.4c-3.346,0-4.855,1.474-4.855,4.295V101.6H292.2v3.817h2.339Z" transform="translate(-278.884 -86.993)" fill="#fff"/></g></svg>