<svg xmlns="http://www.w3.org/2000/svg" width="123" height="38" viewBox="0 0 123 38"><g transform="translate(0)"><g transform="translate(0)"><rect width="123" height="38" rx="5"/><g transform="translate(30.759 4.195)"><text transform="translate(30.387 7)" fill="#fff" font-size="7" font-family="Montserrat-Light, Montserrat" font-weight="300"><tspan x="-27.608" y="0">Available on the</tspan></text><text transform="translate(37 21.846)" fill="#fff" font-size="12" font-family="Montserrat-SemiBold, Montserrat" font-weight="600"><tspan x="-36.798" y="0">Google Play</tspan></text></g><g transform="translate(6.94 6.662)"><path d="M190.89,427.433l-4.721-2.725-3.882,3.753,3.547,3.429,5.056-2.917a.891.891,0,0,0,0-1.54Z" transform="translate(-168.018 -415.413)" fill="#fff"/><path d="M193.956,430.16l-5.195-3-11.384-5.834,12.858,12.429Z" transform="translate(-176.606 -421.328)" fill="#fff"/><path d="M177.447,438.544l11.214-6.178,4.841-2.794-3.386-3.274Z" transform="translate(-176.486 -412.632)" fill="#fff"/><path d="M177.11,421.51l-.012,25.1,12.989-12.557Z" transform="translate(-177.097 -421.008)" fill="#fff"/></g></g></g></svg>