<svg xmlns="http://www.w3.org/2000/svg" xmlns:xlink="http://www.w3.org/1999/xlink" width="1915.477" height="1079.639" viewBox="0 0 1915.477 1079.639"><defs><linearGradient id="a" y1="0.5" x2="1" y2="0.5" gradientUnits="objectBoundingBox"><stop offset="0.006" stop-color="#55baff"/><stop offset="1" stop-color="#1e63d3"/></linearGradient><linearGradient id="b" x1="1.249" y1="1.886" x2="0.241" y2="-0.069" gradientUnits="objectBoundingBox"><stop offset="0"/><stop offset="1" stop-opacity="0"/></linearGradient><clipPath id="c"><rect width="1915.477" height="1077.456" fill="none"/></clipPath><linearGradient id="d" x1="1.088" y1="1.59" x2="0.27" y2="0.12" gradientUnits="objectBoundingBox"><stop offset="0" stop-color="#2ecb70"/><stop offset="1" stop-color="#fff"/></linearGradient><linearGradient id="e" x1="-0.072" y1="2.411" x2="0.664" y2="0.065" xlink:href="#d"/><linearGradient id="f" x1="0.477" y1="1.067" x2="0.529" y2="0.021" xlink:href="#d"/><linearGradient id="g" x1="0.466" y1="1.391" x2="0.541" y2="-0.43" xlink:href="#b"/><clipPath id="h"><path d="M33,433.442l247.04-218.337h22.925l729.49,286.059-1.1,11.3L697.434,765.266,682.074,754.2Z" transform="translate(-32.997 -215.105)" fill="none"/></clipPath><linearGradient id="i" x1="0.632" y1="-0.062" x2="0.405" y2="1.392" gradientUnits="objectBoundingBox"><stop offset="0" stop-color="#55baff"/><stop offset="0.006" stop-color="#00ce56"/><stop offset="1" stop-color="#2ecb70"/></linearGradient><linearGradient id="j" x1="-0.329" y1="0.028" x2="1.494" y2="1.098" gradientUnits="objectBoundingBox"><stop offset="0" stop-color="#00228e"/><stop offset="0.006" stop-color="#2ecb70"/><stop offset="1" stop-color="#15783f"/></linearGradient><linearGradient id="k" x1="0.585" y1="1.611" x2="0.373" y2="-0.518" gradientUnits="objectBoundingBox"><stop offset="0" stop-color="#2ecb70"/><stop offset="0.006" stop-color="#2ecb70"/><stop offset="1" stop-color="#2ecb70"/></linearGradient><linearGradient id="l" x1="0.518" y1="1.594" x2="0.486" y2="-0.133" gradientUnits="objectBoundingBox"><stop offset="0" stop-color="#ffc5bd"/><stop offset="1" stop-color="#f99187"/></linearGradient><linearGradient id="m" x1="0.526" y1="1.668" x2="0.481" y2="-0.201" xlink:href="#l"/><linearGradient id="n" x1="0.27" y1="0.691" x2="0.979" y2="0.071" xlink:href="#l"/><linearGradient id="o" x1="0.481" y1="-0.002" x2="0.556" y2="1.277" gradientUnits="objectBoundingBox"><stop offset="0" stop-color="#55baff"/><stop offset="0.012" stop-color="#63d693"/><stop offset="1" stop-color="#2ecb70"/></linearGradient><linearGradient id="p" x1="1.554" y1="1.255" x2="0.069" y2="0.394" xlink:href="#l"/><linearGradient id="q" x1="-0.522" y1="-0.108" x2="1.677" y2="1.148" gradientUnits="objectBoundingBox"><stop offset="0" stop-color="#00228e"/><stop offset="0.006" stop-color="#2a9557"/><stop offset="1" stop-color="#2ecb70"/></linearGradient><linearGradient id="r" y1="0.5" x2="1" y2="0.5" gradientUnits="objectBoundingBox"><stop offset="0" stop-color="#55baff"/><stop offset="0.006" stop-color="#2ecb70"/><stop offset="1" stop-color="#2ecb70"/></linearGradient><linearGradient id="s" x1="-0.764" y1="0.57" x2="1.124" y2="0.446" xlink:href="#b"/><linearGradient id="u" x1="-0.514" y1="0.951" x2="1.015" y2="0.301" xlink:href="#b"/><linearGradient id="v" x1="-0.502" y1="-3.606" x2="0.878" y2="1.771" xlink:href="#k"/><linearGradient id="w" x1="-1.647" y1="-3.025" x2="1.164" y2="1.673" gradientUnits="objectBoundingBox"><stop offset="0" stop-color="#00228e"/><stop offset="0.006" stop-color="#00228e"/><stop offset="1" stop-color="#2ecb70"/></linearGradient><linearGradient id="x" x1="0.5" y1="-1.509" x2="0.5" y2="1.07" xlink:href="#b"/><linearGradient id="y" x1="0.5" y1="-1.509" x2="0.5" y2="1.07" gradientUnits="objectBoundingBox"><stop offset="0" stop-color="#00228e"/><stop offset="0.006" stop-color="#209b54"/><stop offset="1" stop-color="#2ecb70"/></linearGradient><linearGradient id="z" x1="0.415" y1="2.651" x2="0.529" y2="-0.21" xlink:href="#b"/><linearGradient id="aa" x1="0.424" y1="2.934" x2="0.52" y2="-0.347" xlink:href="#b"/><linearGradient id="ab" x1="0.664" y1="1.139" x2="0.316" y2="-0.781" xlink:href="#l"/><linearGradient id="ac" x1="0.567" y1="0.95" x2="0.426" y2="-0.382" xlink:href="#l"/><linearGradient id="ad" x1="0.263" y1="-3.798" x2="0.602" y2="1.889" xlink:href="#b"/><linearGradient id="ae" x1="-0.666" y1="-3.103" x2="0.798" y2="1.454" xlink:href="#b"/><linearGradient id="af" x1="-1.866" y1="1.31" x2="1.161" y2="0.263" xlink:href="#b"/><linearGradient id="ag" x1="1.26" y1="1.028" x2="0.1" y2="0.156" xlink:href="#l"/><linearGradient id="ah" x1="0.832" y1="1.685" x2="0.477" y2="0.442" gradientUnits="objectBoundingBox"><stop offset="0" stop-color="#2ecb70"/><stop offset="1" stop-color="#1a9d51"/></linearGradient><linearGradient id="ai" x1="-0.776" y1="0.644" x2="1.434" y2="0.353" xlink:href="#l"/><linearGradient id="aj" x1="0.459" y1="-0.044" x2="0.54" y2="0.678" gradientUnits="objectBoundingBox"><stop offset="0" stop-color="#00228e"/><stop offset="0.006" stop-color="#2ecb70"/><stop offset="1" stop-color="#1ea858"/></linearGradient><linearGradient id="ak" x1="0.513" y1="0.872" x2="0.352" y2="0.016" gradientUnits="objectBoundingBox"><stop offset="0" stop-color="#55baff"/><stop offset="0.006" stop-color="#41b471"/><stop offset="1" stop-color="#2ecb70"/></linearGradient><linearGradient id="al" x1="-1.123" y1="1.82" x2="1.349" y2="0.133" xlink:href="#b"/><linearGradient id="am" x1="0.282" y1="1.007" x2="0.739" y2="-0.238" xlink:href="#l"/><linearGradient id="an" x1="0.47" y1="0.963" x2="0.533" y2="-0.02" xlink:href="#l"/><linearGradient id="ao" x1="0" y1="0.5" x2="1" y2="0.5" xlink:href="#k"/><linearGradient id="aq" x1="2.46" y1="0.67" x2="-0.213" y2="0.461" xlink:href="#b"/><linearGradient id="ar" x1="0.529" y1="-2.266" x2="0.498" y2="1.22" xlink:href="#b"/><linearGradient id="as" x1="0.457" y1="0.018" x2="0.557" y2="0.705" gradientUnits="objectBoundingBox"><stop offset="0" stop-color="#55baff"/><stop offset="0.006" stop-color="#75eba7"/><stop offset="1" stop-color="#2ecb70"/></linearGradient><linearGradient id="at" x1="0.436" y1="-0.112" x2="0.564" y2="0.724" gradientUnits="objectBoundingBox"><stop offset="0" stop-color="#55baff"/><stop offset="0.006" stop-color="#74e5a3"/><stop offset="1" stop-color="#2ecb70"/></linearGradient><linearGradient id="au" x1="-0.008" y1="0.469" x2="1.172" y2="0.575" xlink:href="#l"/><linearGradient id="av" x1="-0.776" y1="0.857" x2="0.909" y2="0.38" xlink:href="#b"/><linearGradient id="aw" x1="0.623" y1="-2.486" x2="0.464" y2="1.653" xlink:href="#b"/><linearGradient id="ax" x1="0.651" y1="1.745" x2="0.501" y2="0.276" xlink:href="#b"/><linearGradient id="ay" x1="0.647" y1="2.534" x2="0.448" y2="-0.297" xlink:href="#b"/><linearGradient id="az" x1="0.343" y1="-0.064" x2="0.758" y2="1.092" gradientUnits="objectBoundingBox"><stop offset="0" stop-color="#55baff"/><stop offset="0.1" stop-color="#2ecb70"/><stop offset="1" stop-color="#2ecb70"/></linearGradient><linearGradient id="ba" x1="0.355" y1="-0.098" x2="0.702" y2="1.331" xlink:href="#r"/><linearGradient id="bb" x1="0.289" y1="-5.64" x2="0.585" y2="2.988" xlink:href="#k"/><linearGradient id="bc" x1="0.605" y1="1.191" x2="0.021" y2="-0.89" xlink:href="#b"/></defs><g transform="translate(-52.419 -68.548)"><g transform="translate(52.419 68.548)"><path d="M591.876,405.447a51.649,51.649,0,0,1-2.725,16.472,50.334,50.334,0,0,1-3.242,7.431,49.188,49.188,0,0,1-5.757,8.58,49.687,49.687,0,0,1-6.734,6.725,50.888,50.888,0,0,1-63.3,1.238,51.537,51.537,0,0,1-6.995-6.467,50.692,50.692,0,0,1-6.086-8.34,51.5,51.5,0,0,1-3.521-7.313,50.9,50.9,0,0,1-2.6-9.358,50,50,0,0,1-.727-6.4q-.045-.868-.059-1.737c-.012-.279-.012-.549-.012-.828a51.065,51.065,0,0,1,.9-9.545,50.117,50.117,0,0,1,2.583-8.969,50.885,50.885,0,0,1,77.467-22.517c1,.727,1.957,1.5,2.895,2.295a51.175,51.175,0,0,1,13.675,18.384,49.686,49.686,0,0,1,2.945,8.871,50.606,50.606,0,0,1,1.277,10.335C591.876,404.678,591.876,405.058,591.876,405.447Z" transform="translate(809.396 494.637)" fill="url(#a)"/><g transform="translate(1299.522 857.491)"><path d="M574.456,368.441a217.411,217.411,0,0,0-81.059,1.568,50.631,50.631,0,0,1,9.489-9.878,225.574,225.574,0,0,1,61.713-1.205c1,.727,1.957,1.5,2.895,2.295A50.671,50.671,0,0,1,574.456,368.441Z" transform="translate(-483.662 -357.364)" opacity="0.25" style="mix-blend-mode:overlay;isolation:isolate"/><path d="M589.982,376.722a199.5,199.5,0,0,0-99.565,1.936A50.117,50.117,0,0,1,493,369.689a207.544,207.544,0,0,1,94.037-1.838A49.686,49.686,0,0,1,589.982,376.722Z" transform="translate(-489.529 -345.611)" opacity="0.25" style="mix-blend-mode:overlay;isolation:isolate"/><path d="M591.868,376.448a49.186,49.186,0,0,1-.49,7.013A181.792,181.792,0,0,0,490.9,385.418a50,50,0,0,1-.727-6.4q-.045-.868-.059-1.737A189.634,189.634,0,0,1,591.847,375.3C591.868,375.679,591.868,376.059,591.868,376.448Z" transform="translate(-490.118 -333.856)" opacity="0.25" style="mix-blend-mode:overlay;isolation:isolate"/><path d="M586.894,381.165a50.334,50.334,0,0,1-3.242,7.431,163.815,163.815,0,0,0-88.871,1.737,51.5,51.5,0,0,1-3.521-7.313A171.88,171.88,0,0,1,586.894,381.165Z" transform="translate(-487.869 -322.1)" opacity="0.25" style="mix-blend-mode:overlay;isolation:isolate"/><path d="M571.523,385.418a49.687,49.687,0,0,1-6.734,6.725,145.865,145.865,0,0,0-63.3,1.238,51.537,51.537,0,0,1-6.995-6.467A154.088,154.088,0,0,1,571.523,385.418Z" transform="translate(-481.498 -310.342)" opacity="0.25" style="mix-blend-mode:overlay;isolation:isolate"/></g><path d="M591.829,397.4a50.878,50.878,0,0,1-101.691,2.565c6.844,6.475,17.3,14.824,28.223,17.918,18.844,5.335-.588-5.338-1.066-18.488-.95-26.077,19.563-33.778,37.688-27.733s3.2,29.868,13.868,30.218c7.461.25,18.4-23.983,5.059-43.217A50.706,50.706,0,0,1,591.829,397.4Z" transform="translate(809.444 502.684)" fill="url(#b)" style="mix-blend-mode:overlay;isolation:isolate"/><rect width="1915.477" height="1077.456" fill="#fff"/></g><g transform="translate(52.419 68.548)"><g clip-path="url(#c)"><g transform="translate(-190.723 -48.686)"><path d="M1004.889,293.214S970.752,430.6,885.408,482.178,688.725,575.871,624.2,609.465s-85.958-13.25,7.969-53S794.337,474.809,815.693,388.59s1.44-126.319,73.981-152.407S1013.422,225.86,1004.889,293.214Z" transform="translate(1154.78 286.748)" fill="url(#d)"/><path d="M2055.941,1456.828c-50.651,4.688-114.63,4.421-195.051-2.161-555.1-45.423-1023.76-8.512-1254.545-70.971S132.035,1222.379,88.806,1158.24-28.4,938.318-8.484,850.122c16.074-71.2,78.506-232.944,110.948-324.006,7.743-21.736,13.779-39.449,17.069-50.939C136.592,415.557,162.2,52.15,162.2,52.15s-2.844,65.3,139.391,201.573S654.921,407.752,650.361,458.141s-193.373-65.3-244.045-34.072,12.241,172.938,325.671,312.587,290.875,82.562,260.235-4.29,86,57.53,265.214,172.727,367.593-26.385,403.958,0-59.739,62.776-45.512,104.6,500.678-136.535,549.034-277.33c32.294-94,44.294,70.223,44.455,221.682.1,75.371-2.743,147.588-7.473,183.231-5.448,41.091,24.681,103.926,32.742,163.279C2244.6,1373.708,2221.011,1441.553,2055.941,1456.828Z" transform="translate(11.819 -52.15)" fill="url(#e)"/><path d="M2234.639,986.231c-63.5,60.627-119.538,113.136-178.7,156.27-50.651,4.688-114.63,4.421-195.051-2.161-555.1-45.423-1023.76-8.512-1254.545-70.971S132.035,908.052,88.806,843.913-28.4,623.991-8.484,535.795C7.59,464.6,70.022,302.851,102.464,211.789c0,0,286.614,360.019,601.309,472.517s607.716,46.738,724.35,92.4c111.18,43.522,582.616-17.315,781.248-136.983.1,75.371-2.743,147.588-7.473,183.231C2196.449,864.043,2226.578,926.878,2234.639,986.231Z" transform="translate(11.819 262.177)" fill="url(#f)"/><path d="M2268.135,867.766c-58.412,65.525-110.04,122.364-165.533,170.1-50.108,8.738-113.9,13.6-194.59,13.494-556.961-.736-1021.136,73.655-1256.205,29.916s-485.768-122.738-534.023-183.2S-16.756,688.27-4.013,598.761C6.271,526.5,55.473,360.274,80.475,266.9c0,0,314.686,335.858,637.427,422.745s609.515-2.173,729.45,33.98c114.321,34.461,579.333-64,767.679-199.222,6.173,75.121,9.156,147.33,7.313,183.24C2220.224,749.039,2255.318,809.256,2268.135,867.766Z" transform="translate(24.69 370.694)" fill="url(#g)" style="mix-blend-mode:overlay;isolation:isolate"/></g><path d="M106.1,89.444c2.844,4.258,65.431,38.33,76.808,103.627s-21.335,80.917,14.224,123.5,46.94,31.228,42.673,78.075-13.248,60.891,15.644,92.27,54.778,48.136,62.948,70.2,30.931,68.153,57.955,86.279-11.377,29.761-76.808-49.163S192.869,451.432,114.636,390.389,5.113,229.981,5.113,225.72" transform="translate(-145.564 -27.405)" fill="#fff"/><g transform="translate(-123.336 715.814)"><g transform="translate(0 10.73)"><line x1="82.294" y2="165.388" transform="translate(613.87 238.794)" stroke-width="1.008" stroke="#fff" stroke-linecap="round" stroke-linejoin="round" fill="none"/><line x1="89.154" y2="179.175" transform="translate(577.76 224.747)" stroke-width="1.008" stroke="#fff" stroke-linecap="round" stroke-linejoin="round" fill="none"/><line x1="96.014" y2="192.962" transform="translate(541.65 210.7)" stroke-width="1.008" stroke="#fff" stroke-linecap="round" stroke-linejoin="round" fill="none"/><line x1="102.874" y2="206.748" transform="translate(505.54 196.654)" stroke-width="1.008" stroke="#fff" stroke-linecap="round" stroke-linejoin="round" fill="none"/><line x1="109.733" y2="220.535" transform="translate(469.43 182.607)" stroke-width="1.008" stroke="#fff" stroke-linecap="round" stroke-linejoin="round" fill="none"/><line x1="116.594" y2="234.321" transform="translate(433.32 168.56)" stroke-width="1.008" stroke="#fff" stroke-linecap="round" stroke-linejoin="round" fill="none"/><line x1="123.453" y2="248.108" transform="translate(397.21 154.514)" stroke-width="1.008" stroke="#fff" stroke-linecap="round" stroke-linejoin="round" fill="none"/><line x1="130.313" y2="261.895" transform="translate(361.1 140.467)" stroke-width="1.008" stroke="#fff" stroke-linecap="round" stroke-linejoin="round" fill="none"/><line x1="137.173" y2="275.681" transform="translate(324.99 126.42)" stroke-width="1.008" stroke="#fff" stroke-linecap="round" stroke-linejoin="round" fill="none"/><line x1="144.033" y2="289.468" transform="translate(288.88 112.374)" stroke-width="1.008" stroke="#fff" stroke-linecap="round" stroke-linejoin="round" fill="none"/><line x1="150.893" y2="303.254" transform="translate(252.77 98.327)" stroke-width="1.008" stroke="#fff" stroke-linecap="round" stroke-linejoin="round" fill="none"/><line x1="157.753" y2="317.041" transform="translate(216.66 84.28)" stroke-width="1.008" stroke="#fff" stroke-linecap="round" stroke-linejoin="round" fill="none"/><line x1="164.613" y2="330.827" transform="translate(180.55 70.233)" stroke-width="1.008" stroke="#fff" stroke-linecap="round" stroke-linejoin="round" fill="none"/><line x1="171.473" y2="344.614" transform="translate(144.44 56.187)" stroke-width="1.008" stroke="#fff" stroke-linecap="round" stroke-linejoin="round" fill="none"/><line x1="178.332" y2="358.401" transform="translate(108.33 42.14)" stroke-width="1.008" stroke="#fff" stroke-linecap="round" stroke-linejoin="round" fill="none"/><line x1="185.192" y2="372.187" transform="translate(72.22 28.093)" stroke-width="1.008" stroke="#fff" stroke-linecap="round" stroke-linejoin="round" fill="none"/><line x1="192.052" y2="385.974" transform="translate(36.11 14.047)" stroke-width="1.008" stroke="#fff" stroke-linecap="round" stroke-linejoin="round" fill="none"/><line x1="198.912" y2="399.76" fill="none" stroke="#fff" stroke-linecap="round" stroke-linejoin="round" stroke-width="1.008"/></g><line x2="613.169" y2="300.765" transform="translate(101.522)" stroke-width="1.008" stroke="#fff" stroke-linecap="round" stroke-linejoin="round" fill="none"/><line x2="608.426" y2="298.439" transform="translate(87.019 33.883)" stroke-width="1.008" stroke="#fff" stroke-linecap="round" stroke-linejoin="round" fill="none"/><line x2="603.683" y2="296.112" transform="translate(72.515 67.766)" stroke-width="1.008" stroke="#fff" stroke-linecap="round" stroke-linejoin="round" fill="none"/><line x2="598.939" y2="293.785" transform="translate(58.013 101.649)" stroke-width="1.008" stroke="#fff" stroke-linecap="round" stroke-linejoin="round" fill="none"/><line x2="594.196" y2="291.459" transform="translate(43.509 135.532)" stroke-width="1.008" stroke="#fff" stroke-linecap="round" stroke-linejoin="round" fill="none"/><line x2="589.452" y2="289.132" transform="translate(29.006 169.415)" stroke-width="1.008" stroke="#fff" stroke-linecap="round" stroke-linejoin="round" fill="none"/><line x2="584.709" y2="286.805" transform="translate(14.503 203.298)" stroke-width="1.008" stroke="#fff" stroke-linecap="round" stroke-linejoin="round" fill="none"/><line x2="579.966" y2="284.479" transform="translate(0 237.181)" stroke-width="1.008" stroke="#fff" stroke-linecap="round" stroke-linejoin="round" fill="none"/></g><g transform="translate(-57.665 435.126)"><g clip-path="url(#h)"><g transform="translate(-40.437 -51.054)"><g transform="translate(31.568)"><line x1="399.013" y2="366.661" fill="none" stroke="#fff" stroke-linecap="round" stroke-linejoin="round" stroke-width="1.008"/><line x1="400.774" y2="364.549" transform="translate(29.976 15.729)" stroke-width="1.008" stroke="#fff" stroke-linecap="round" stroke-linejoin="round" fill="none"/><line x1="402.534" y2="362.438" transform="translate(59.952 31.458)" stroke-width="1.008" stroke="#fff" stroke-linecap="round" stroke-linejoin="round" fill="none"/><line x1="404.295" y2="360.326" transform="translate(89.929 47.187)" stroke-width="1.008" stroke="#fff" stroke-linecap="round" stroke-linejoin="round" fill="none"/><line x1="406.055" y2="358.215" transform="translate(119.905 62.916)" stroke-width="1.008" stroke="#fff" stroke-linecap="round" stroke-linejoin="round" fill="none"/><line x1="407.816" y2="356.104" transform="translate(149.881 78.645)" stroke-width="1.008" stroke="#fff" stroke-linecap="round" stroke-linejoin="round" fill="none"/><line x1="409.576" y2="353.992" transform="translate(179.857 94.374)" stroke-width="1.008" stroke="#fff" stroke-linecap="round" stroke-linejoin="round" fill="none"/><line x1="411.336" y2="351.88" transform="translate(209.833 110.103)" stroke-width="1.008" stroke="#fff" stroke-linecap="round" stroke-linejoin="round" fill="none"/><line x1="413.097" y2="349.769" transform="translate(239.81 125.832)" stroke-width="1.008" stroke="#fff" stroke-linecap="round" stroke-linejoin="round" fill="none"/><line x1="414.857" y2="347.657" transform="translate(269.786 141.561)" stroke-width="1.008" stroke="#fff" stroke-linecap="round" stroke-linejoin="round" fill="none"/><line x1="416.617" y2="345.546" transform="translate(299.762 157.29)" stroke-width="1.008" stroke="#fff" stroke-linecap="round" stroke-linejoin="round" fill="none"/><line x1="418.378" y2="343.434" transform="translate(329.738 173.019)" stroke-width="1.008" stroke="#fff" stroke-linecap="round" stroke-linejoin="round" fill="none"/><line x1="420.138" y2="341.323" transform="translate(359.714 188.748)" stroke-width="1.008" stroke="#fff" stroke-linecap="round" stroke-linejoin="round" fill="none"/><line x1="421.899" y2="339.211" transform="translate(389.691 204.477)" stroke-width="1.008" stroke="#fff" stroke-linecap="round" stroke-linejoin="round" fill="none"/><line x1="423.659" y2="337.1" transform="translate(419.667 220.206)" stroke-width="1.008" stroke="#fff" stroke-linecap="round" stroke-linejoin="round" fill="none"/><line x1="425.42" y2="334.988" transform="translate(449.643 235.935)" stroke-width="1.008" stroke="#fff" stroke-linecap="round" stroke-linejoin="round" fill="none"/><line x1="427.18" y2="332.877" transform="translate(479.619 251.664)" stroke-width="1.008" stroke="#fff" stroke-linecap="round" stroke-linejoin="round" fill="none"/><line x1="428.94" y2="330.765" transform="translate(509.595 267.394)" stroke-width="1.008" stroke="#fff" stroke-linecap="round" stroke-linejoin="round" fill="none"/><line x1="430.701" y2="328.654" transform="translate(539.572 283.122)" stroke-width="1.008" stroke="#fff" stroke-linecap="round" stroke-linejoin="round" fill="none"/><line x1="432.461" y2="326.542" transform="translate(569.548 298.851)" stroke-width="1.008" stroke="#fff" stroke-linecap="round" stroke-linejoin="round" fill="none"/></g><g transform="translate(0 28.705)"><line x2="858.764" y2="365.7" transform="translate(219.37)" stroke-width="1.008" stroke="#fff" stroke-linecap="round" stroke-linejoin="round" fill="none"/><line x2="856.302" y2="371.097" transform="translate(191.949 23.58)" stroke-width="1.008" stroke="#fff" stroke-linecap="round" stroke-linejoin="round" fill="none"/><line x2="853.839" y2="376.494" transform="translate(164.527 47.16)" stroke-width="1.008" stroke="#fff" stroke-linecap="round" stroke-linejoin="round" fill="none"/><line x2="851.377" y2="381.892" transform="translate(137.106 70.74)" stroke-width="1.008" stroke="#fff" stroke-linecap="round" stroke-linejoin="round" fill="none"/><line x2="848.915" y2="387.289" transform="translate(109.685 94.32)" stroke-width="1.008" stroke="#fff" stroke-linecap="round" stroke-linejoin="round" fill="none"/><line x2="846.452" y2="392.686" transform="translate(82.264 117.9)" stroke-width="1.008" stroke="#fff" stroke-linecap="round" stroke-linejoin="round" fill="none"/><line x2="843.99" y2="398.084" transform="translate(54.843 141.48)" stroke-width="1.008" stroke="#fff" stroke-linecap="round" stroke-linejoin="round" fill="none"/><line x2="841.528" y2="403.481" transform="translate(27.421 165.06)" stroke-width="1.008" stroke="#fff" stroke-linecap="round" stroke-linejoin="round" fill="none"/><line x2="839.065" y2="408.879" transform="translate(0 188.64)" stroke-width="1.008" stroke="#fff" stroke-linecap="round" stroke-linejoin="round" fill="none"/></g></g></g></g><g transform="translate(553.085 747.758)"><g transform="translate(61.813)"><line x1="20.088" y2="144.692" transform="translate(0 210.895)" stroke-width="1.008" stroke="#fff" stroke-linecap="round" stroke-linejoin="round" fill="none"/><line x1="13.906" y2="166.745" transform="translate(34.284 189.806)" stroke-width="1.008" stroke="#fff" stroke-linecap="round" stroke-linejoin="round" fill="none"/><line x1="7.723" y2="188.798" transform="translate(68.568 168.716)" stroke-width="1.008" stroke="#fff" stroke-linecap="round" stroke-linejoin="round" fill="none"/><line x1="1.541" y2="210.851" transform="translate(102.852 147.627)" stroke-width="1.008" stroke="#fff" stroke-linecap="round" stroke-linejoin="round" fill="none"/><line x2="4.642" y2="232.904" transform="translate(132.495 126.537)" stroke-width="1.008" stroke="#fff" stroke-linecap="round" stroke-linejoin="round" fill="none"/><line x2="10.824" y2="254.957" transform="translate(160.596 105.447)" stroke-width="1.008" stroke="#fff" stroke-linecap="round" stroke-linejoin="round" fill="none"/><line x2="17.006" y2="277.01" transform="translate(188.698 84.358)" stroke-width="1.008" stroke="#fff" stroke-linecap="round" stroke-linejoin="round" fill="none"/><line x2="23.189" y2="299.063" transform="translate(216.8 63.269)" stroke-width="1.008" stroke="#fff" stroke-linecap="round" stroke-linejoin="round" fill="none"/><line x2="29.371" y2="321.116" transform="translate(244.901 42.179)" stroke-width="1.008" stroke="#fff" stroke-linecap="round" stroke-linejoin="round" fill="none"/><line x2="35.553" y2="343.169" transform="translate(273.003 21.09)" stroke-width="1.008" stroke="#fff" stroke-linecap="round" stroke-linejoin="round" fill="none"/><line x2="41.736" y2="365.222" transform="translate(301.105)" stroke-width="1.008" stroke="#fff" stroke-linecap="round" stroke-linejoin="round" fill="none"/></g><g transform="translate(0 34.604)"><line y1="218.264" x2="353.255" transform="translate(51.398)" stroke-width="1.008" stroke="#fff" stroke-linecap="round" stroke-linejoin="round" fill="none"/><line y1="178.016" x2="369.702" transform="translate(41.118 62.575)" stroke-width="1.008" stroke="#fff" stroke-linecap="round" stroke-linejoin="round" fill="none"/><line y1="137.768" x2="386.149" transform="translate(30.839 125.149)" stroke-width="1.008" stroke="#fff" stroke-linecap="round" stroke-linejoin="round" fill="none"/><line y1="97.52" x2="402.596" transform="translate(20.559 187.724)" stroke-width="1.008" stroke="#fff" stroke-linecap="round" stroke-linejoin="round" fill="none"/><line y1="57.272" x2="419.043" transform="translate(10.28 250.298)" stroke-width="1.008" stroke="#fff" stroke-linecap="round" stroke-linejoin="round" fill="none"/><line y1="17.024" x2="435.49" transform="translate(0 312.873)" stroke-width="1.008" stroke="#fff" stroke-linecap="round" stroke-linejoin="round" fill="none"/></g></g><g transform="translate(-73.109 420.056)"><g transform="translate(49.771 258.292)"><rect width="5.986" height="698.445" transform="translate(0 5.401) rotate(-64.457)" fill="#2ecb70"/></g><g transform="translate(0 2.276)"><rect width="354.074" height="14.965" transform="matrix(0.719, -0.695, 0.695, 0.719, 0, 246.057)" fill="#2ecb70"/></g><g transform="translate(598.506 301.128)"><path d="M243.392,744.606l-14.011-5.261c.157-.419,15.887-42.231,33.861-85.154,37.115-88.642,47.531-95.676,51.453-98.324,19.61-13.242,327.966-242.1,331.081-244.413l8.919,12.018c-12.719,9.438-311.741,231.367-331.627,244.8-2.494,1.683-13.179,13.271-46.007,91.667C259.193,702.6,243.546,744.193,243.392,744.606Z" transform="translate(-229.381 -311.454)" fill="#2ecb70"/></g><g transform="translate(51.063)"><path d="M1072.742,902.954c-.134-.906-13.6-91.439-28.419-183.516-25.486-158.336-33.935-190.775-36.587-196.983-16.128-9.124-177.729-76.906-371.073-154.417C381.529,265.759,273.366,227.415,256.416,225.1c-5.8,6.2-27.252,39.289-106.447,200.2-46.684,94.859-91,188.644-91.445,189.579l-13.53-6.392c.454-.962,46.091-97.537,93.574-193.911C235.8,217.234,245.552,213.054,250.789,210.809c4.32-1.853,9.7-4.16,131.063,41.483C465.121,283.606,567.922,324.37,639.5,353.053c89.788,35.981,183.092,74.055,255.992,104.458,117.812,49.134,121.36,52.652,123.067,54.341,3.307,3.278,8.842,8.762,39.811,200.695,15.124,93.722,29.037,187.272,29.173,188.207Z" transform="translate(-44.994 -210.029)" fill="url(#i)"/></g></g><g transform="translate(366.148 609.6)"><path d="M311.67,339.644a62.584,62.584,0,0,0,9.245-6.639c3.554-3.319,8.3-16.831,13.512-15.409s0,12.565,0,15.647,11.38-3.082,13.037-8.536,7.114-7.348,9.245,1.66,2.135,23.945-4.976,28.686-37-1.309-40.063-1.663S311.67,339.644,311.67,339.644Z" transform="translate(89.213 -187.982)" fill="url(#j)"/><path d="M449.985,474.916c-.05-.009-.089-.03-.14-.039-17.719-5.288-34.5,3.952-47.548,13.738h-.009c-4.721,3.533-8.949,7.143-12.55,10.157-6.665,5.585-11.205,9.147-12.761,6.493-4.75-8.061-35.028-93.407-35.028-93.407s-40.832,108.573-47,104.781c-1.565-.959-3.462-3.423-5.816-6.746-3.931-5.555-9.127-13.547-16.142-21.038a71.285,71.285,0,0,0-16.531-13.408c-.9-.511-1.826-1.009-2.761-1.479-17.41-8.708-28.683-6.662-33.443-4.967a13.171,13.171,0,0,0-2.592,1.176l38.258-122.788c2.832-.977,9.688-5.338,21.807-8.851a122.78,122.78,0,0,1,29.66-4.557,151,151,0,0,1,28.832,2.2c30.34,4.86,61.835,15.8,71.333,15.724.16.38.309.757.469,1.137,10.246,24.651,27.695,69.017,39.066,110.809.122.389.22.769.321,1.146.08.309.169.638.27,1.009Q448.893,470.48,449.985,474.916Z" transform="translate(-93.2 -155.652)" fill="url(#k)"/><path d="M331.029,421.3c-6.2,11.953-17.22,28.692-29.221,45.743-24.381,34.648-52.794,70.644-52.794,70.644l-24.711,5.5-27.914,6.226c10.415-35.934,26.338-77.066,39.9-109.749,14.218-34.271,25.86-59.261,25.86-59.261,4.759-1.7,16.033-3.741,33.443,4.967.935.469,1.864.968,2.761,1.479a71.285,71.285,0,0,1,16.531,13.408C321.9,407.75,327.1,415.743,331.029,421.3Z" transform="translate(-135.095 -67.056)" fill="url(#l)"/><path d="M370.716,535.592l-19.782,1.4-20.75,1.458c-9.729-14.317-20.961-40.025-30.9-65.635-10.3-26.507-19.2-52.925-23.663-66.5,3.6-3.013,7.829-6.624,12.55-10.157h.009c13.049-9.786,29.829-19.025,47.548-13.738,3.322,13.9,8.9,38.16,14.646,63.34C360.3,489.312,370.716,535.592,370.716,535.592Z" transform="translate(20.916 -63.188)" fill="url(#m)"/><path d="M303,343.016s-.232.2-.65.579c-4.5,3.99-31.275,27.463-37.991,27.294-3.759-.1-24.681-9.029-42.967-18.595l-.059-.03c-17.458-9.13-32.484-18.838-27.855-21.959,9.477-6.4,66.143,6.4,66.143,6.4l23.826-21.579c-.122.549.318,1.737,1.146,3.322a122.835,122.835,0,0,0,7.681,11.84c4.5,6.315,9.13,12.223,9.658,12.571.11.08.41.021.858-.148Z" transform="translate(-142.499 -192.631)" fill="url(#n)"/><path d="M408.17,378.036a48.653,48.653,0,0,1-7.5,9.946s-1.294.739-8.281-1.9c-2.7-1.027-6.253-2.565-10.923-4.848.968,2.832,2.384,6.285,3.99,10.035,1.648,3.821,3.492,7.942,5.288,12.021,5.487,12.491,10.454,24.571,7.431,26.3a7.464,7.464,0,0,1-1.535.148c-5.516.039-18.446-3.631-34.259-7.663-11.425-2.922-24.352-6.024-37.074-8.061a151,151,0,0,0-28.832-2.2,122.78,122.78,0,0,0-29.66,4.557c-12.119,3.512-18.975,7.874-21.807,8.851-.909.309-1.4.279-1.517-.249-.707-3.2,1.428-8.183,6.045-19.554,1.686-4.16,3.572-9.557,5.279-14.726a1.085,1.085,0,0,1,.039-.14c2.4-7.241,4.43-14.026,5.11-16.32.14-.469.22-.748.24-.808-.042.03-.2.128-.451.309-.11.068-.229.157-.368.258-1.906,1.289-6.734,4.569-10.846,7.114-1.265.778-2.473,1.5-3.492,2.063a18.679,18.679,0,0,1-2.262,1.09,3,3,0,0,1-.65.19.363.363,0,0,1-.208-.042c-.528-.359-5.338-6.594-9.946-13.179a122.139,122.139,0,0,1-7.6-11.921c-.828-1.585-1.268-2.773-1.146-3.322.169-.769,2.152-3.411,5.178-7.075,9.566-11.6,29.509-33.41,34.648-37.73,2.512-2.114,10.564-4.967,19.7-7.731,8.509-2.574,17.968-5.059,24.741-6.784,5.519-1.4,9.248-2.274,9.248-2.274a74.239,74.239,0,0,1,17,3.682c1.5.508,2.984,1.057,4.451,1.636,27.137,10.855,48.246,34.8,68.866,47.7,1.268.8,2.524,1.547,3.791,2.245a.609.609,0,0,1,.059.042c.38.208.748.407,1.128.609.009.039.03.089.042.128C415.614,361.158,412.173,371.095,408.17,378.036Z" transform="translate(-82.284 -233.479)" fill="url(#o)"/><path d="M369.268,361.725l-7.262-.368c-54.294-2.844-64.477-4.4-79.025-10.537a48.653,48.653,0,0,0,7.5-9.946c4-6.942,7.443-16.879,3.913-27.615,4.777,3.034,22.437,14.186,33.63,20.492,13.04,7.354,39.826,12.951,39.826,12.951S372.59,354.142,369.268,361.725Z" transform="translate(35.404 -196.316)" fill="url(#p)"/><path d="M239.756,348.11c.561-.647-8.533-36.744-15.881-37.457s-.713,11.852-4.5,13.987-18.728-11.852-25.842-16.831-12.8.238-16.831,14.934,5.454,26.077,14.224,30.109,36.625,2.731,45.99,7.491C237.15,357.118,236.675,351.664,239.756,348.11Z" transform="translate(-175.743 -210.658)" fill="url(#q)"/><path d="M301.808,426.746c-24.381,34.648-52.794,70.644-52.794,70.644l-24.711,5.5-27.914,6.226c10.415-35.934,26.338-77.066,39.9-109.749C253.113,402.023,278.991,408.908,301.808,426.746Z" transform="translate(-135.095 -26.761)" fill="url(#r)"/><path d="M449.919,353.045c-4.02,1.018-12.211,2.574-28.084,4.05-26.676,2.494-84.64-8.889-102.059-2.841s-22.407,71.469-25.961,91.382c-2.372,13.3,2.066,20.732,4.54,29.812a38,38,0,0,1,1.149,15.712c-2.485,18.844-8.572,16-23.485,21.329-11.7,4.189-40.055,84.78-51.717,119.3l-27.914,6.226C217.717,564.407,262.151,469,262.151,469a13.171,13.171,0,0,0-2.592,1.176l38.258-122.788c2.832-.977,9.688-5.338,21.807-8.851a122.78,122.78,0,0,1,29.66-4.557,151,151,0,0,1,28.832,2.2c30.34,4.86,61.835,15.8,71.333,15.724C449.61,352.288,449.758,352.665,449.919,353.045Z" transform="translate(-135.095 -155.652)" fill="url(#s)" style="mix-blend-mode:overlay;isolation:isolate"/><path d="M355.023,492.564l-19.782,1.4-20.75,1.458c-9.729-14.317-20.961-40.025-30.9-65.635,9.768-10.335,26.786-23.805,51.09-27.056C344.608,446.283,355.023,492.564,355.023,492.564Z" transform="translate(36.609 -20.159)" fill="url(#r)"/><path d="M382.626,596.979l-20.75,1.458c-19.8-29.123-45.794-105.432-54.561-132.138-6.665,5.585-11.205,9.147-12.761,6.493-4.75-8.061-35.028-93.407-35.028-93.407s9.9-26.08,13.209-28.924,37.362,100.812,47.13,105.681h.009c9.756,4.789,21.308,12.381,22.167,34.188C342.889,511.582,363.161,577.387,382.626,596.979Z" transform="translate(-10.777 -123.179)" fill="url(#u)" style="mix-blend-mode:overlay;isolation:isolate"/><path d="M277.854,298.067c-.419,5.745-2.892,12.909-12.731,12.042-12.52-1.1-13.645-9.637-13.518-13.45,5.519-1.4,9.248-2.274,9.248-2.274A74.239,74.239,0,0,1,277.854,298.067Z" transform="translate(-26.39 -233.479)" fill="url(#v)"/><path d="M248.537,344.944a41.867,41.867,0,0,1-5.754,3.153,3,3,0,0,1-.65.19.363.363,0,0,1-.208-.042c-.528-.359-5.338-6.594-9.946-13.179a122.139,122.139,0,0,1-7.6-11.921c-.828-1.585-1.268-2.773-1.146-3.322.169-.769,2.152-3.411,5.178-7.075C233.015,320.221,243.641,337.391,248.537,344.944Z" transform="translate(-82.284 -197.323)" fill="url(#w)"/><path d="M300.891,347.3c-2.4,1.636-13.645,9.317-16.968,10.525a3,3,0,0,1-.65.19c-4.5,3.99-31.275,27.463-37.991,27.294-3.759-.1-24.681-9.029-42.967-18.595,1.247.537,21.51,9.358,32.534,9.219,5.445-.08,22.048-15.174,38.27-31.139a.484.484,0,0,0,.077-.08c17.651-17.369,34.838-35.744,36.685-36.851C312.176,306.486,305.76,330.2,300.891,347.3Z" transform="translate(-123.424 -207.052)" fill="url(#x)" style="mix-blend-mode:overlay;isolation:isolate"/><path d="M295.974,342.878a48.653,48.653,0,0,1-7.5,9.946s-1.294.739-8.281-1.9c15.715-13.081,15.474-31.507,14.676-38.68,1.268.8,2.524,1.547,3.791,2.245a.609.609,0,0,1,.059.042c.38.208.748.407,1.128.609.009.039.03.089.042.128C303.417,326,299.976,335.936,295.974,342.878Z" transform="translate(29.913 -198.321)" fill="url(#y)"/><path d="M384.232,368.472c-54.294-2.844-64.477-4.4-79.025-10.537,0,0-2.494,1.428-19.2-6.752,0,0-16.831-38.52-13.987-41.373,2.583-2.586,11.422,25.9,40.693,38.178a68.462,68.462,0,0,0,9.569,3.195C351.507,358.585,374.814,358.356,384.232,368.472Z" transform="translate(13.178 -203.432)" fill="url(#z)" style="mix-blend-mode:overlay;isolation:isolate"/><path d="M298.706,299.7c-1.416,5.377-4.8,13.518-12.381,15.382-11.564,2.844-20.272-3.729-32.962-6.573-5.208-1.167-8.292-3.141-10.1-5.068,8.509-2.574,17.968-5.059,24.741-6.784,5.519-1.4,9.248-2.274,9.248-2.274a74.239,74.239,0,0,1,17,3.682C295.752,298.574,297.239,299.123,298.706,299.7Z" transform="translate(-42.792 -233.479)" fill="url(#aa)" style="mix-blend-mode:overlay;isolation:isolate"/><path d="M289.4,283.148a90.151,90.151,0,0,1-1,9.418c-1.3,8.031-4.059,17.119-9.9,21.84-.1.077-.19.148-.291.217-7.164,5.469-15.543.49-21.5-5.276a48.549,48.549,0,0,1-5.858-6.885c.181-3.091,1.5-4.418,2.147-6.425a8.028,8.028,0,0,0,.258-3.86,5.578,5.578,0,0,0-.707-2.105c-1.369-2.194-3.791-1.286-1.7-5.187.95-1.767,3.313-2.135,6.517-1.927,5.516.359,13.488,2.443,20.839,2.1C283.338,284.822,286.491,284.484,289.4,283.148Z" transform="translate(-29.462 -256.082)" fill="url(#ab)"/><path d="M273.783,297.087c-.03,1.3-.089,2.645-.169,3.964-.309,4.507-1.018,8.649-2.565,8.966-7.571,1.6-13.067-.187-15.8-2.013a5.641,5.641,0,0,1-1.8-1.716c-.71-1.3-1.027-9.278-1.167-14.477C258.241,297.577,266.619,302.556,273.783,297.087Z" transform="translate(-25.034 -238.547)" fill="url(#ac)"/><path d="M309.5,289.164c-6.455,6.754-9.765,10.065-13.458,11.772-2.913,1.336-6.066,1.674-11.193,1.915-7.351.339-15.323-1.746-20.839-2.1-3.2-.208-5.567.16-6.517,1.927-2.093,3.9.33,2.993,1.7,5.187a5.578,5.578,0,0,1,.707,2.105c.71,4.979-2.135,5.635-2.4,10.285a17.19,17.19,0,0,1-9.507-8.509c-3.2-6.573,4.75-8,4.75-8s-9.908-5.867-4.4-16.531,21.16-8.72,29.339-13.337a42.02,42.02,0,0,1-3.88,5.508c1.585-1.069,4.569-1.787,9.925.537C293.135,284.007,303.981,290.94,309.5,289.164Z" transform="translate(-36.096 -273.871)" fill="#0e1b3a"/><path d="M289.4,283.148a90.151,90.151,0,0,1-1,9.418c-11.742-.558-25.049-6.493-28.033-6.915-4.329-.588-6.1,1.25-5.757,5.1S253,296.036,253,296.036a8.028,8.028,0,0,0,.258-3.86,5.578,5.578,0,0,0-.707-2.105c-1.369-2.194-3.791-1.286-1.7-5.187.95-1.767,3.313-2.135,6.517-1.927,5.516.359,13.488,2.443,20.839,2.1C283.338,284.822,286.491,284.484,289.4,283.148Z" transform="translate(-29.462 -256.082)" fill="url(#ad)" style="mix-blend-mode:overlay;isolation:isolate"/><path d="M273.783,297.087c-.03,1.3-.089,2.645-.169,3.964-3.471-.181-9.519-.312-12.482.8-2.325.87-4.439,3.664-5.885,6.158a5.641,5.641,0,0,1-1.8-1.716c-.71-1.3-1.027-9.278-1.167-14.477C258.241,297.577,266.619,302.556,273.783,297.087Z" transform="translate(-25.034 -238.547)" fill="url(#ae)" style="mix-blend-mode:overlay;isolation:isolate"/><path d="M349.018,369.122c-11.425-2.922-24.352-6.024-37.074-8.061a151,151,0,0,0-28.832-2.2,122.78,122.78,0,0,0-29.66,4.557c-12.119,3.512-18.975,7.874-21.807,8.851-.909.309-1.4.279-1.517-.249-.707-3.2,1.428-8.183,6.045-19.554,1.686-4.16,3.572-9.557,5.279-14.726a1.085,1.085,0,0,1,.039-.14c2.4-7.241,4.43-14.026,5.11-16.32a97.931,97.931,0,0,1,12.689,6.645C278.983,339.783,345.755,343.613,349.018,369.122Z" transform="translate(-68.922 -180.529)" fill="url(#af)" style="mix-blend-mode:overlay;isolation:isolate"/></g></g></g><g transform="translate(1372.74 521.627)"><path d="M735.242,431.318a9.406,9.406,0,0,1-8.082,5.926c-6.416.71-23.924-6.4-25.112-11.143-1.155-4.611,1.957-14.4,2.117-14.916l.009-.018s-3.551-1.657-3.792-4.738c-.148-2.046,3.213-7.8,5.519-11.484.258-.419.508-.808.736-1.167C700.3,380.1,693.32,360.5,691.616,356.645c-2.494-5.647-58.522-48.6-64.578-53.234-.35-.258-.529-.4-.529-.4l.389-.38,12.55-12.1,19.334-18.636s62.5,60.707,65.077,74.792c1.645,8.981,3.022,32.246.457,47.251l10.356,35.435Z" transform="translate(-242.364 -121.24)" fill="url(#ag)"/><path d="M712.045,396.543c-.282.849-.6,1.707-.938,2.565-4.92,12.609-15.044,25.777-33.472,27.983-12.021,1.437-21.249.977-28.122-.178-11.843-1.986-16.683-6.048-16.683-6.048V384.421l32.436-14.694,5.255-2.375s41.842.368,44.137,8.83l.009.021C715.554,379.584,715.046,387.725,712.045,396.543Z" transform="translate(-229.92 66.714)" fill="url(#ah)"/><path d="M556.63,395.951s-14.821,24.922,31.644,43.413,64.047-6.873,64.047-6.873-3.4-43.858-5.038-46.227-50.366-9.011-50.366-9.011Z" transform="translate(-384.382 86.207)" fill="#2ecb70"/><path d="M675.765,265.25l-12.8,5.686s-5.6,18.865-15.721,30.726c-4.311,5.059-9.447,8.839-15.335,9.337-10.694.9-22.445-4.3-31.017-10.593a55.338,55.338,0,0,1-5.6-4.688c-4.062-3.913-6.615-7.782-6.775-10.555a38.485,38.485,0,0,1,1.657-14.207l.012-.021c-9.489-4.5-11.623-9.248-8.061-19.675-.95,9.011,6.324,14.866,6.324,14.866s-2.536-4.439,0-17.238a35.114,35.114,0,0,1,34.209-27.736c-11.083,3.693-15.2,9.409-15.394,9.709.659-.321,32.386-15.943,47.878.009-14.495-6.793-26.608-1.906-27.665-1.446.808-.241,7.642-1.615,29.791,12.11.938.579,1.835,1.158,2.684,1.728C680.571,256.937,675.765,265.25,675.765,265.25Z" transform="translate(-332.951 -221.152)" fill="#0e1b3a"/><path d="M633.721,249.1c-.6,6.814-2.337,15.854-7.274,17.161-8.061,2.135-25.37,1.425-29.63-2.375-2.245-2-6.205-9.438-9.447-16.041,8.571,6.294,20.323,11.493,31.017,10.593C624.274,257.941,629.41,254.161,633.721,249.1Z" transform="translate(-319.431 -168.592)" fill="url(#ai)"/><path d="M799.43,322.915a71.426,71.426,0,0,1-2.414,10.216,48.589,48.589,0,0,1-7.135,14.587,21.439,21.439,0,0,1-6.514,5.885l-14.934-7.111.009.039c.059.338.508,2.933,1.217,6.763.469,2.556,1.057,5.668,1.716,9.029.52,2.645,1.087,5.448,1.686,8.251.846,3.972,1.746,7.951,2.642,11.523.908,3.631,1.826,6.844,2.684,9.2a50.614,50.614,0,0,0,5,9.949c3.649,5.736,7.321,9.706,7.8,13.518a.994.994,0,0,1-.059.558c-.3.719-1.627.647-3.78.039-4.421-1.268-12.321-4.836-22.1-8.669-10.1-3.961-22.2-8.18-34.521-10.415a93.317,93.317,0,0,0-17.957-1.336c-21.748.33-46.34,6.7-62.9,15.632a55.545,55.545,0,0,0-13.729,9.887c-13.577,14.177-26.9,30.408-34.538,34.788a6.794,6.794,0,0,1-3.512,1.128c-2.654-.148-1.565-3.682.659-9.726,1.327-3.572,3.043-8.031,4.62-13.179a102.631,102.631,0,0,0,3.4-14.545,81.037,81.037,0,0,0,.926-10.207c.071-2.8.16-5.766.27-8.818.131-3.892.288-7.942.457-12.013.261-6.134.549-12.33.84-18.138.2-4.151.4-8.1.588-11.7.469-8.729.849-15.385.989-17.74.03-.609.048-.926.048-.926l-.018.009c-1.039.469-34.17,15.284-37.673,15.994-1.185.237-3.8-1.508-6.683-4.94a48.159,48.159,0,0,1-7.96-13.928,56.3,56.3,0,0,1-2.823-10.483,58.45,58.45,0,0,1-.668-13.678s9.917-7.093,24.453-16.4a541.329,541.329,0,0,1,48.124-27.784c4.949-2.476,9.887-4.78,14.685-6.835,10.516-4.489,20.424-7.743,28.663-8.779a158.662,158.662,0,0,1,40.4.178,161.56,161.56,0,0,1,24.441,5.157,121.422,121.422,0,0,1,16.6,6.1c2.3,1.078,5.727,3.67,9.706,7.152,6.167,5.368,13.64,12.829,20.3,19.972,4.67,5.009,8.94,9.857,12.063,13.717,2.9,3.572,4.839,6.3,5.217,7.523C800.276,314.127,800.208,318.087,799.43,322.915Z" transform="translate(-383.3 -161.696)" fill="url(#aj)"/><g transform="translate(172.435 95.504)"><path d="M759,323.589a203.011,203.011,0,0,0-141.256-4.75,193,193,0,0,0-46.5,22.9,102.631,102.631,0,0,0,3.4-14.545c51.058-30.48,115.975-38.46,176.613-17.677,3.649,5.736,7.321,9.706,7.8,13.518A.994.994,0,0,1,759,323.589Z" transform="translate(-523.61 -165.47)" opacity="0.25" style="mix-blend-mode:overlay;isolation:isolate"/><path d="M740.529,307.916c-57.613-16.041-117.922-8.687-167.733,17.8.131-3.892.288-7.942.457-12.013a238.571,238.571,0,0,1,164.633-17.309C738.733,300.366,739.632,304.344,740.529,307.916Z" transform="translate(-520.56 -183.02)" opacity="0.25" style="mix-blend-mode:overlay;isolation:isolate"/><path d="M753.845,291.1a21.439,21.439,0,0,1-6.514,5.885L732.4,289.877l.009.039c.059.338.508,2.933,1.217,6.763A254.925,254.925,0,0,0,573.233,313.13c.2-4.151.4-8.1.588-11.7A265.712,265.712,0,0,1,753.845,291.1Z" transform="translate(-519.699 -200.585)" opacity="0.25" style="mix-blend-mode:overlay;isolation:isolate"/><path d="M791.745,283.868a71.426,71.426,0,0,1-2.414,10.216,282.088,282.088,0,0,0-186.17,7.173c.03-.609.048-.926.048-.926l-.018.009c-1.039.469-34.17,15.284-37.673,15.994-1.185.237-3.8-1.508-6.683-4.94C627.242,270.722,712.152,259.686,791.745,283.868Z" transform="translate(-548.051 -218.154)" opacity="0.25" style="mix-blend-mode:overlay;isolation:isolate"/><path d="M793.968,283.361c-80.958-21.778-166.409-9.557-235.943,31.685a56.3,56.3,0,0,1-2.823-10.483c67.28-39.057,148.488-52.029,226.7-34.918C786.575,274.653,790.844,279.5,793.968,283.361Z" transform="translate(-555.202 -235.733)" opacity="0.25" style="mix-blend-mode:overlay;isolation:isolate"/><path d="M745.829,267.258A334.3,334.3,0,0,0,563.213,292.07a541.329,541.329,0,0,1,48.124-27.784,345.6,345.6,0,0,1,108.184-10.279,121.422,121.422,0,0,1,16.6,6.1C738.428,261.183,741.851,263.775,745.829,267.258Z" transform="translate(-539.428 -253.319)" opacity="0.25" style="mix-blend-mode:overlay;isolation:isolate"/></g><path d="M866.55,512.637c-.469.039-.959.1-1.446.178a32.835,32.835,0,0,0-4.252.947c-16.232,4.641-40.384,21.709-57.322,32.086-.909.549-1.787,1.087-2.645,1.594-6.835,4.071-12.232,6.766-15.056,6.606a2.086,2.086,0,0,1-1.784-.879c-4.979-7.82-46.928-90.317-62.583-130.143a29.512,29.512,0,0,0-4.519,5.888.331.331,0,0,0-.039.08c-14.545,23.5-37.733,95.892-52.985,133.293-5.807,14.257-10.466,23.434-13.061,22.888a31.331,31.331,0,0,1-5.038-1.728c-14.474-5.985-46.678-24.491-71.57-28.85-4.468-.778-7.992-1.318-10.724-1.766-5.5-.909-7.832-1.467-8.3-2.984a2.457,2.457,0,0,1-.059-1.167c.009-.059.021-.131.03-.2l.009-.042c.558-2.942,4.112-8.459,6.953-20.162,6.036-24.85,35.506-152.787,38.781-166.976.187-.837.288-1.277.288-1.277,7.642-4.379,20.961-20.611,34.538-34.788,13.159-13.746,47.459-25.079,76.63-25.518a93.317,93.317,0,0,1,17.957,1.336c24.254,4.4,47.637,16.5,56.619,19.085,5.525,10.2,11.172,25.72,17.027,42.4,8.073,22.977,16.522,48.157,25.572,64.748,14.744,27.027,36.9,69.943,38.089,82.087l.009.021C867.856,511.3,867.518,512.447,866.55,512.637Z" transform="translate(-382.921 -66.478)" fill="url(#ak)"/><path d="M677.1,399.384c-11.264,37.282-10.317,58.991-13.209,85.926-5.807,14.257-10.466,23.434-13.061,22.888a31.331,31.331,0,0,1-5.038-1.728c-14.474-5.985-46.678-24.491-71.57-28.85-4.468-.778-7.992-1.318-10.724-1.766-5.5-.909-7.832-1.467-8.3-2.984l-.059-1.167v-.05l.03-.149.009-.042c.389-1.624,3.9-13.2,25.919-17.576,23.7-4.721,38.879-7.562,54.053-52.129s27.445-62.352,39.565-62.94S690.129,356.236,677.1,399.384Z" transform="translate(-382.893 10.5)" fill="url(#al)" style="mix-blend-mode:overlay;isolation:isolate"/><path d="M652.476,421.613c-2.063,7.523-4.37,15.7-6.793,24.084-1.288,4.459-2.595,8.978-3.922,13.488v.009c-10.635,36.3-21.739,72.01-21.739,72.01l-45.013-1.416-23.265-.727,11.932-89.378,4.062-30.408L570.181,391s.689-.439,1.936-1.119C582.013,384.513,627.415,363.9,652.476,421.613Z" transform="translate(-389.576 95.355)" fill="url(#am)"/><path d="M704.732,551.262H656.625l-11.95-92.909-5.148-40.025L637.9,405.666s12.381-32.172,50.351-33.879a73.365,73.365,0,0,1,9.617.2,179.946,179.946,0,0,1,3.254,18.538c.529,4.008,1,8.251,1.416,12.669,1.057,11.163,1.8,23.455,2.283,36.026C706.926,492.612,704.732,551.262,704.732,551.262Z" transform="translate(-219.935 75.298)" fill="url(#an)"/><path d="M645.683,410.09c-1.288,4.459-2.595,8.978-3.922,13.488v.009c-10.635,36.3-21.739,72.01-21.739,72.01l-68.278-2.144,11.932-89.378C579.629,399.116,606.643,396.251,645.683,410.09Z" transform="translate(-389.576 130.964)" fill="url(#ao)"/><path d="M700.239,506.859H652.132l-11.95-92.909a79.222,79.222,0,0,1,28.811-16.392,75.289,75.289,0,0,1,31.335-2.743C702.433,448.21,700.239,506.859,700.239,506.859Z" transform="translate(-215.442 119.701)" fill="url(#r)"/><path d="M280.946,491.36s-9.584,25.214-13.878,27.07-7.489-4.366-7.489-4.366l-12.1-19.757,27.967-7.914Z" transform="translate(1.706 0.275)" fill="#209a53" opacity="0.93"/><path d="M638.964,421.613c-2.063,7.523-4.37,15.7-6.793,24.084-1.288,4.459-2.595,8.978-3.922,13.488v.009c-10.635,36.3-21.739,72.01-21.739,72.01L561.5,529.789c10.385-32.142,31.477-101.489,27.095-121.381-3.091-14.07-17.4-17.95-29.987-18.529C568.5,384.513,613.9,363.9,638.964,421.613Z" transform="translate(-376.064 95.355)" fill="url(#aq)" style="mix-blend-mode:overlay;isolation:isolate"/><path d="M773.613,362.54c-36.792-2.016-89.2-34.069-133.025-29.132A141.62,141.62,0,0,0,570.555,361.3c.187-.837.288-1.277.288-1.277,7.642-4.379,20.961-20.611,34.538-34.788,13.159-13.746,47.459-25.079,76.63-25.518a93.317,93.317,0,0,1,17.957,1.336c24.254,4.4,47.637,16.5,56.619,19.085C762.111,330.335,767.758,345.86,773.613,362.54Z" transform="translate(-352.537 -66.478)" fill="url(#ar)" style="mix-blend-mode:overlay;isolation:isolate"/><path d="M642.327,254.711a112.893,112.893,0,0,0-16.87,26.765,184.767,184.767,0,0,0-14.566,51.28l-.018.009c-.858.389-23.535,10.525-33.431,14.477l-.03.009a37.054,37.054,0,0,1-4.213,1.508c-1.856.368-7.191-4.1-11.621-12.253a56.5,56.5,0,0,1-6.514-30.776s.567-.41,1.645-1.158l.009-.009.012-.012C565.49,298.417,607.261,269.687,642.327,254.711Z" transform="translate(-383.299 -155.075)" fill="url(#as)"/><path d="M679.608,352.685l-14.934-7.111c-15.326-48.187-35.966-78.735-57.046-93.761,19.634,2.586,34.4,8.162,41.043,11.255,10.665,4.976,45.512,42.679,47.287,48.365S693.117,345.215,679.608,352.685Z" transform="translate(-279.541 -160.779)" fill="url(#at)"/><path d="M687.025,335.177s-63.29,27.733-89.248,18.485a62.005,62.005,0,0,1-6.315-2.693c-2.254-1.1-4.65-2.384-7.152-3.812-7.313-1.006-34.909-16.439-57.117-31.845-16.888-11.722-30.667-23.413-30.049-28.74,1.419-12.321,10.427-26.071,14.937-24.892s8.049,9.726,8.049,9.726,5.457.71,7.114,2.135,1.188,9.958,2.135,13.268,6.547,12.761,6.547,12.761l88.52,16.941,46.1-25.53.012-.012L681.111,319.3Z" transform="translate(-497.123 -141.492)" fill="url(#au)"/><path d="M716.847,402.011c-1.306,2.144-2.844,2.892-5.686,1.936.258-.419.508-.808.736-1.167-6.336-13.678-13.319-33.273-15.023-37.133-2.494-5.647-58.522-48.6-64.578-53.234-.039-.241-.089-.5-.14-.778-1.585-9.011-5.926-33.351-7.942-41.4-2.482-9.958,7.7,7.3,18.847,26.667q.748,1.287,1.645,2.633c12.93,19.325,49.285,46.928,58.453,58.682C712.756,370.5,718.453,399.378,716.847,402.011Z" transform="translate(-247.623 -130.242)" fill="url(#av)" style="mix-blend-mode:overlay;isolation:isolate"/><path d="M685.315,344.875a9.406,9.406,0,0,1-8.082,5.926c-6.416.71-23.924-6.4-25.112-11.143-1.155-4.611,1.957-14.4,2.117-14.916l.009-.018s9.109,5.006,13.019,3.59-5.786-10.5-5.956-12.182,7.464,3.293,9.6,7.912,1.247,16.709,10.483,18.316c1.078.19,2.206.38,3.352.57Z" transform="translate(-192.437 -34.797)" fill="url(#aw)" style="mix-blend-mode:overlay;isolation:isolate"/><path d="M719.34,263.726a184.767,184.767,0,0,0-14.566,51.28l-.018.009c-.858.389-23.535,10.525-33.431,14.477l-.03.009a37.054,37.054,0,0,1-4.213,1.508s-63.29,27.733-89.248,18.485a62.005,62.005,0,0,1-6.315-2.693c-2.254-1.1-4.65-2.384-7.152-3.812-7.313-1.006-34.909-16.439-57.117-31.845,6.3.371,14.316,5.309,27.2,11.324,22.048,10.317,71.481,19.913,108.107,3.2a124.749,124.749,0,0,0,12.909-6.915c1.906-1.146,3.809-2.363,5.706-3.622C691.578,294.992,719.34,263.726,719.34,263.726Z" transform="translate(-477.182 -137.324)" fill="url(#ax)" style="mix-blend-mode:overlay;isolation:isolate"/><path d="M670.493,250.587l-12.8,5.686s-5.6,18.865-15.721,30.726c-4.311,5.059-9.447,8.839-15.335,9.337-10.694.9-22.445-4.3-31.017-10.593a55.338,55.338,0,0,1-5.6-4.688c-4.062-3.913-6.615-7.782-6.775-10.555a38.485,38.485,0,0,1,1.657-14.207l.012-.021s3.788,14.634,15.522,19.794,16.891,2.841,16.891,2.841-21.329-4.8-25.42-17.419c29.292,10.457,45.422-9.237,46.031-10.005-.567.469-10.694,8.708-24.343,6.983,13.3-10.187,26.519-24.343,41.085-29.868C675.3,242.274,670.493,250.587,670.493,250.587Z" transform="translate(-327.679 -206.489)" fill="url(#ay)" style="mix-blend-mode:overlay;isolation:isolate"/><g transform="translate(249.581 125.554)"><path d="M633.687,291.973c2.874,17.915-4.106,29.717-22.083,35.283-18.081,6.538-27.244-1.948-29.868-21.252-2.559-19.509,3.693-37.843,21.608-39.96C621.825,263.592,631.178,276.475,633.687,291.973Zm-36.032,8.052c1.826,14.106,6.526,18.877,12.859,16.905,6.342-1.942,8.815-9.047,6.829-22.158-1.921-12.725-6.226-19.12-12.716-17.947C598.67,277.852,595.592,285.759,597.655,300.025Z" transform="translate(-581.186 -258.905)" fill="url(#az)"/><path d="M653.575,295.632c2.6,22.552-3.489,35.165-20.937,31.617-17.873-2.8-28.357-14.857-31.008-31.136-2.654-16.534,3.812-30.367,21.605-32.4C641.711,261.23,651.2,275.879,653.575,295.632Zm-35.5-.493c2.081,13.539,7.031,20.266,13.286,20.943,6.244.763,8.5-6.3,6.351-21.071-2.105-14.29-6.514-21.246-13-20.712C618.77,274.808,615.75,281.458,618.075,295.139Z" transform="translate(-542.06 -263.44)" fill="url(#ba)"/></g><path d="M597.317,296.236a115.137,115.137,0,0,1,44.591-5.317,4.457,4.457,0,0,1,4.071,4.445h0a4.448,4.448,0,0,1-4.284,4.448c-8.844.321-29.316,1.443-41.59,5.178a4.457,4.457,0,0,1-5.715-3.489l-.05-.279A4.455,4.455,0,0,1,597.317,296.236Z" transform="translate(-305.835 -84.497)" fill="url(#bb)"/><path d="M763.536,365.918c-.3.719-1.627.647-3.78.039-4.421-1.268-12.321-4.836-22.1-8.669-10.1-3.961-22.2-8.18-34.521-10.415a93.317,93.317,0,0,0-17.957-1.336c-21.748.33-46.34,6.7-62.9,15.632a55.545,55.545,0,0,0-13.729,9.887c-13.577,14.177-26.9,30.408-34.538,34.788a6.794,6.794,0,0,1-3.512,1.128c-2.654-.148-1.565-3.682.659-9.726,4.231.068,9.388-.65,12.14-3.952,5.219-6.244,19.444-45.292,55-53.023s42.641-60.808,63.432-63.729c11.65-1.648,27.255,17,42.05,36.382.52,2.645,1.087,5.448,1.686,8.251.846,3.972,1.746,7.951,2.642,11.523.908,3.631,1.826,6.844,2.684,9.2a50.614,50.614,0,0,0,5,9.949c3.649,5.736,7.321,9.706,7.8,13.518A.994.994,0,0,1,763.536,365.918Z" transform="translate(-355.708 -112.295)" opacity="0.25" fill="url(#bc)" style="mix-blend-mode:overlay;isolation:isolate"/><path d="M390.489,466.805l10.7,19.627s1.674,4.372,17.208-5.953S433.65,458.9,433.65,458.9Z" fill="#1ea255"/></g></g></svg>