<svg xmlns="http://www.w3.org/2000/svg" xmlns:xlink="http://www.w3.org/1999/xlink" width="36.945" height="36.945" viewBox="0 0 36.945 36.945"><defs><radialGradient id="a" cx="-0.025" cy="1.003" r="1.849" gradientTransform="translate(0)" gradientUnits="objectBoundingBox"><stop offset="0" stop-color="#f5ec53"/><stop offset="0.241" stop-color="#e48244"/><stop offset="0.397" stop-color="#d05667"/><stop offset="0.489" stop-color="#c84278"/><stop offset="1" stop-color="#192cfa"/></radialGradient></defs><g transform="translate(0 0)"><path d="M389.85,117.059h0a18.472,18.472,0,0,1-18.472-18.472h0A18.473,18.473,0,0,1,389.85,80.114h0a18.473,18.473,0,0,1,18.473,18.473h0A18.473,18.473,0,0,1,389.85,117.059Z" transform="translate(-371.378 -80.114)" fill="url(#a)"/><g transform="translate(8.344 8.344)"><path d="M397.706,98.139c2.7,0,3.025.01,4.093.059a5.6,5.6,0,0,1,1.881.349,3.357,3.357,0,0,1,1.922,1.922,5.6,5.6,0,0,1,.349,1.881c.048,1.068.059,1.388.059,4.093s-.01,3.025-.059,4.093a5.6,5.6,0,0,1-.349,1.881,3.356,3.356,0,0,1-1.922,1.922,5.6,5.6,0,0,1-1.881.349c-1.068.048-1.388.059-4.093.059s-3.025-.011-4.093-.059a5.589,5.589,0,0,1-1.881-.349,3.355,3.355,0,0,1-1.922-1.922,5.616,5.616,0,0,1-.349-1.881c-.049-1.068-.059-1.388-.059-4.093s.01-3.025.059-4.093a5.623,5.623,0,0,1,.349-1.881,3.356,3.356,0,0,1,1.922-1.922,5.6,5.6,0,0,1,1.881-.349c1.068-.048,1.389-.059,4.093-.059m0-1.825c-2.751,0-3.1.012-4.176.061a7.439,7.439,0,0,0-2.458.471,5.178,5.178,0,0,0-2.962,2.962,7.428,7.428,0,0,0-.471,2.458c-.049,1.081-.061,1.425-.061,4.176s.012,3.1.061,4.176a7.432,7.432,0,0,0,.471,2.459,5.179,5.179,0,0,0,2.962,2.962,7.453,7.453,0,0,0,2.458.471c1.08.049,1.425.061,4.176.061s3.1-.012,4.176-.061a7.456,7.456,0,0,0,2.459-.471,5.178,5.178,0,0,0,2.962-2.962,7.445,7.445,0,0,0,.471-2.459c.049-1.08.061-1.425.061-4.176s-.012-3.1-.061-4.176a7.442,7.442,0,0,0-.471-2.458,5.178,5.178,0,0,0-2.962-2.962,7.442,7.442,0,0,0-2.459-.471c-1.081-.049-1.425-.061-4.176-.061" transform="translate(-387.577 -96.314)" fill="#fff"/><path d="M402.345,105.88a5.2,5.2,0,1,0,5.2,5.2,5.2,5.2,0,0,0-5.2-5.2m0,8.578a3.376,3.376,0,1,1,3.376-3.376,3.376,3.376,0,0,1-3.376,3.376" transform="translate(-392.216 -100.953)" fill="#fff"/><path d="M417.809,104.337a1.216,1.216,0,1,1-1.216-1.215,1.216,1.216,0,0,1,1.216,1.215" transform="translate(-401.058 -99.615)" fill="#fff"/></g></g></svg>