<svg xmlns="http://www.w3.org/2000/svg" width="358.016" height="357.922" viewBox="0 0 358.016 357.922"><g transform="translate(-1345.375 -1410.69)"><path d="M146.087,218.565c-23.52,16.206-37.748,15.786-52.933,27.662s-30.371,9.4-41.759,0-15.66-28.207-15.66-44.042-1.422-23.752-15.184-44.536S-9.818,95.791,7.266,59.666,41.431,18.593,72.749,23.542s51.723,1.979,78.77-13.361,58.841-14.846,89.21,11.876S232.187,95.3,232.187,95.3,203.37,164.08,187.235,181.4,169.607,202.358,146.087,218.565Z" transform="translate(1703.391 1584.077) rotate(133)" fill="#cbcbcb"/><path d="M190.859,350.277c-23.52-16.206-37.748-15.786-52.933-27.662s-30.371-9.4-41.759,0-15.66,28.207-15.66,44.042-1.422,23.752-15.185,44.536-30.369,61.858-13.285,97.983S86.2,550.248,117.521,545.3s51.723-1.979,78.77,13.361,58.841,14.846,89.21-11.876-8.542-73.238-8.542-73.238-28.817-68.785-44.952-86.105S214.379,366.484,190.859,350.277Z" transform="matrix(0.974, -0.225, 0.225, 0.974, 1238.547, 1209.199)" fill="#8de3b1"/><g transform="matrix(1, -0.017, 0.017, 1, 1426.305, 1480.8)"><g transform="translate(0 4.888)"><path d="M103.473,336.213c29.093,27.464,76.411,27.322,105.686-.311a70.233,70.233,0,0,0,18.289-28q.379-1.073.712-2.151a67.651,67.651,0,0,0,2.234-9.573c.022-.138.043-.276.062-.413v0c.052-.338.1-.671.144-1.013v0a66.76,66.76,0,0,0-.084-18.634,68.322,68.322,0,0,0-21.026-39.974,75.273,75.273,0,0,0-37.342-19.038,78.4,78.4,0,0,0-12.13-1.409h0a79.532,79.532,0,0,0-23.239,2.538c-.677.182-1.351.369-2.025.564a76,76,0,0,0-30.95,17.656C74.526,264.081,74.38,308.749,103.473,336.213Z" transform="translate(-72.281 -205.897)" fill="#779e33"/><g transform="translate(0 0)"><path d="M1011.363,396.062C1045.622,379.263,977.1,412.859,1011.363,396.062Z" transform="translate(-961.565 -377.884)" fill="#89d1f7" opacity="0.5"/><path d="M494.337,461.05a80.194,80.194,0,1,1,36.7-107.308A80.193,80.193,0,0,1,494.337,461.05ZM521.07,358.628a69.091,69.091,0,1,0-31.622,92.452A69.09,69.09,0,0,0,521.07,358.628Z" transform="translate(-378.822 -308.832)" fill="#9343cc"/><path d="M625.385,625.555a69.084,69.084,0,0,1-87.651-100.719,69.1,69.1,0,1,0,109.453,83.949A68.852,68.852,0,0,1,625.385,625.555Z" transform="translate(-509.74 -489.89)" fill="#88a6b7" style="mix-blend-mode:multiply;isolation:isolate"/><path d="M596.9,1191.864l-19.385,9.5-7.877-16.062,19.388-9.505Z" transform="translate(-467.344 -1035.536)" fill="#9343cc"/><path d="M340.31,1370.95c4.911,10.017-12.988,17.6-17.608,8.178-6.12-12.483-27.272-56.66-27.272-56.66l19.534-9.141S334.995,1360.111,340.31,1370.95Z" transform="translate(-185.533 -1157.247)" fill="#852cc4"/></g><g transform="translate(27.869 43.297)"><path d="M182.359,250.092l2.729-1.577,1.8-1.035,8.834-5.1.557-.319.762-.44.007,0,.281.173,2.122,1.3,34.56,21.211,9.842,6.042,8.827,5.416,10.609,6.511L250.579,289.6l-31.193,18.008-68.327-39.447Zm68.5,37.82,9.838-5.681-15.348-9.421-4.191-2.571-6.372-3.91-2.512-1.542L200.57,245.328l-3.481-2.136-.066-.041-9.584,5.535-1.787,1.031-1.839,1.061L153.7,268.164l65.682,37.921Z" transform="translate(-151.059 -241.614)" fill="#dee8be"/></g><g transform="translate(52.406 32.885)"><path d="M93.649,218.687c.386.992.772,1.068,1.158-.087l.8.47.53.31,2.533,1.484,4.322,2.53,2.381,1.4.114.065.288.169,2.068,1.212,36.538,21.415,5.735,3.357,33.01,19.347,4.395,2.552q-.334.66-.712,1.315l-.416-.419-.019-.014-4.661-2.732L161.131,259l-8.543-5-10.812-6.338-32.812-19.23-3.433-2.009-1.359-.8-.209-.125L96.3,221.008l-1.984-1.163-.2-.12-1.136-.666A3.183,3.183,0,0,0,93.649,218.687Z" transform="translate(-92.98 -218.6)" fill="#dee8be"/></g></g><g transform="translate(57.837 0)"><path d="M81.749,222.7l1.332.633,1.454.685,2.5,1.188.7.041,2.7.163,10.105.6.709.043,1.242.728,27.416,16.077,1.968,1.152,14.071,8.252,2.142,1.256,4.346,2.549-.851,5.085-.285,1.691,0,.03h19.042l3.645-1.813,1.413-.7,6.629-3.3.06-.03c0-.073,0-.147,0-.223v0c.005-.391.008-.829.014-1.318.046-.652.09.378.13.7a25.177,25.177,0,0,0-.084-11.4L148.386,223.9l-1.81-1.123-13.582-8.4-2.337-1.443-6.586-4.074-.277-.171-.014-.008-.753-.467-.429-.264-.41-.256-2.327-1.438-1.125-.7-1.136-.7-3.351,1.669-1.984.987-.614.307h0l-1.277.636-11.6,5.77-1.125.56-.753.372-.66.329L87.3,219.934l-1.851.921Z" transform="translate(-81.749 -166.665)" fill="#dedeca" style="mix-blend-mode:multiply;isolation:isolate"/><g transform="translate(0.001)"><g transform="translate(2.945)"><path d="M355.011,70.39v41.776l2.224-1.284V69.1Z" transform="translate(-333.358 -67.801)" fill="#bacbcf"/><path d="M365.418,70.39v41.776l-2.223-1.284V69.1Z" transform="translate(-343.764 -67.801)" fill="#c1d4d8"/><path d="M368.858,128.5l-1,.576-.846-.506-.459,1.262-.3.176v-3.065l.235.14.671-1.846-.906-.541v-1.17l1.256.75.672-1.846-1.686-1.006-.242.668v-2.944l.383-1.056-.383-.229v-1.172l.735.438.672-1.845-1.407-.84v-4.588l.212.126.673-1.846-.885-.527v-1.172l1.235.738.672-1.846-1.686-1.006-.221.607v-2.941l.363-1-.363-.216V99.6l.714.426.672-1.846-1.385-.828V92.765l.191.115.673-1.846-.864-.516V89.348l1.214.724.672-1.846-1.688-1.006-.2.547V84.828l.341-.942-.341-.2v-1.17l.691.413.673-1.846-.235-.141L369.1,80.8l1.429.853.365-1,1.1-.091-.588,1.617L373.1,83.18l.673-1.846-1.362-.812,2.812-.233L375,80.9l1.688,1.006.652-1.79,1.822-.152,1.115.665.285-.781,1.1-.091-.507,1.4,1.686,1.008.673-1.846-1.048-.625,2.342-.194v.2l-.066.18.066.039v1.172l-.416-.249-.671,1.847,1.087.648V84.5l-1.439-.857-.672,1.845,1.688,1.008.423-1.161v2.938l-.566,1.554.566.337v1.172l-.916-.547-.672,1.845,1.588.947v3.273l-.043.119.043.027v1.17l-.394-.235-.673,1.846,1.067.635v1.172l-1.416-.844-.672,1.845,1.688,1.006.4-1.1v2.94l-.544,1.494.544.325v1.17l-.895-.533-.672,1.845,1.567.934v3.346l-.023.059.023.014v1.171l-.372-.222-.672,1.846,1.044.622v1.172l-1.394-.832-.672,1.845.659.394-1,.578-.014-.008-.007.02-1.357.785.485-1.331-1.686-1.006-.672,1.846,1.339.8-1,.576-.694-.413-.375,1.031-1.839,1.065-1.373-.819-.672,1.845.132.08-1.563.9.2-.547-1.686-1.006-.672,1.846.814.485-1,.576-.167-.1-.09.247-1.357.785.568-1.558-1.686-1.006-.672,1.846Zm1.887-4.539-1.686-1.006-.673,1.845,1.686,1.006Zm1.021-2.809-1.686-1.006-.672,1.846L371.095,123Zm1.373-3.77.672-1.845-1.686-1.006-.672,1.845Zm-2.037-.043-.672,1.846,1.686,1,.673-1.845Zm3.059-2.764.673-1.846-1.688-1.006-.672,1.846Zm4.761-13.078-1.686-1.006-.672,1.845,1.686,1.007Zm-.142,3.333-.672,1.845,1.686,1.006.672-1.845Zm-2.574,4.128.672-1.845-1.686-1.008-.672,1.846Zm-2.036-.043-.673,1.845,1.688,1.008.671-1.846Zm.492-4.3.673-1.845-1.687-1.007-.672,1.846Zm2.567,1.532.672-1.847-1.686-1.006-.673,1.846Zm2.044-5.616.672-1.845-1.688-1.008-.672,1.846ZM378.4,94.35l-1.686-1.007-.673,1.846,1.688,1.006Zm-2.709,1.8L375.02,98,376.706,99l.673-1.846Zm-1.022,2.807L374,100.806l1.686,1.006.672-1.846Zm.142-3.333-1.686-1.006-.672,1.846,1.686,1.006Zm-2.709,1.8-.672,1.845,1.688,1.006.672-1.845Zm-1.021,2.808-.672,1.846,1.686,1.006.672-1.847Zm.872,6.185,1.686,1.006.672-1.846-1.686-1.006Zm-.351.961-.672,1.846,1.687,1.006.672-1.846Zm2.417,10.525,1.686,1.006.672-1.846-1.686-1.006Zm2.709-1.8.672-1.845-1.686-1.006-.673,1.846Zm1.022-2.807.672-1.846-1.686-1.006-.672,1.846Zm1.023-2.807.672-1.846-1.686-1.006-.673,1.846Zm-.143,3.333,1.686,1.006.673-1.846-1.688-1.006Zm2.709-1.8.672-1.845-1.686-1.006-.671,1.845Zm1.022-2.807.673-1.845-1.688-1.008-.672,1.846Zm-.871-6.185-1.688-1.006-.672,1.847,1.688,1.006Zm.35-.961.672-1.846-1.686-1.006-.672,1.846Zm-.871-6.186-1.687-1.006-.672,1.846,1.686,1.006Zm.35-.961.672-1.846L380.3,92.067l-.671,1.845Zm1.021-2.809.673-1.845-1.687-1.008-.672,1.846Zm-.871-6.184-1.688-1.008-.672,1.846,1.688,1.006Zm-2.711,1.8-.672,1.845,1.688,1.008.672-1.846Zm-1.021,2.807-.672,1.846,1.686,1.006.673-1.846Zm.143-3.332L376.191,86.2l-.672,1.846,1.688,1.006Zm-2.709,1.8L374.5,90.85l1.688,1.006.672-1.845Zm-1.023,2.807-.672,1.846,1.688,1.006.672-1.847Zm.143-3.333L372.6,87.473l-.672,1.847,1.688,1.006Zm-2.709,1.8-.672,1.846,1.686,1.006.673-1.847Zm.143-3.332-1.688-1.007-.671,1.846,1.686,1.006Zm-2.709,1.8-.673,1.846L370.03,91.6l.672-1.847Zm.871,6.185,1.688,1.006.671-1.846-1.686-1.008Zm-.35.961-.672,1.846,1.686,1.006.673-1.846ZM368.515,98.7l-.673,1.847,1.688,1.006.672-1.846Zm.871,6.186,1.688,1.006.672-1.846-1.686-1.006Zm-.35.962-.672,1.845,1.686,1.008.673-1.846Zm.872,6.184,1.686,1.006.672-1.845-1.686-1.006Zm-.35.962-.673,1.846,1.688,1.006.672-1.846Zm-1.023,2.807-.672,1.846,1.686,1.006.672-1.846Zm5.8,6.877-1.686-1.006-.672,1.846,1.686,1Zm1.023-2.809-1.686-1L373,120.715l1.686,1.006Zm2.566,1.532-1.686-1.006-.672,1.846,1.686,1.006Zm1.023-2.807-1.688-1.006-.672,1.845,1.686,1.006Zm1.021-2.808-1.686-1.007-.672,1.846,1.686,1.006Zm2.567,1.53-1.688-1.006-.672,1.846,1.686,1.006Zm1.021-2.807-1.686-1.006-.672,1.845,1.686,1.006Zm-.665-3.815-.672,1.846,1.686,1.006.673-1.847Zm-.521-7.147L381.7,105.4l1.688,1.008.672-1.846Zm1.165-6.14-1.688-1.006-.672,1.845,1.688,1.006Zm-.665-3.815-.673,1.846,1.687,1.006.672-1.845Zm-.523-7.146-.672,1.845,1.688,1.008.672-1.846Zm-2.216-2.493,1.688,1.006.672-1.847L380.8,82.112Zm-2.566-1.532,1.688,1.006.672-1.845-1.688-1.008Zm-1.023,2.807,1.687,1.008L378.9,84.4l-1.686-1.006Zm-2.566-1.53,1.687,1.006.672-1.845-1.688-1.008Zm-1.022,2.807,1.686,1.008.672-1.846-1.686-1.008Zm-2.567-1.53,1.688,1.006.672-1.846-1.686-1.006Zm-2.566-1.532,1.688,1.006.672-1.845L368.493,81.6Zm.665,3.815.673-1.846-1.688-1.006-.673,1.846Zm-1.165,6.14,1.688,1.006.672-1.846-1.688-1.006Zm.665,3.814.672-1.845-1.686-1.008-.672,1.846Zm.521,7.148.673-1.846-1.688-1.006-.672,1.846Zm-1.163,6.14,1.686,1.006.672-1.846-1.686-1.006Zm.663,3.814.673-1.847-1.688-1.006-.672,1.846Zm.522,7.146.673-1.845-1.686-1.006-.672,1.846Z" transform="translate(-363.983 -75.371)" fill="#6d97a4"/><path d="M359.458,65.627l-2.224,1.284-2.223-1.284,2.223-1.294Z" transform="translate(-335.581 -64.333)" fill="#e3faff"/><path d="M355.021,70.889,376.666,69.1v2.569l-21.654,1.8Z" transform="translate(-352.788 -67.801)" fill="#bacbcf"/><path d="M357.244,67.452l21.645-1.794-2.223-1.283-21.655,1.8Z" transform="translate(-355.011 -64.363)" fill="#e3faff"/></g><path d="M182.2,110.024l1.919,1.109v.618l-.368-.33-1.016,1.681,1.384,1.245v2.139l-.708,1.172.708.638v1.353l-1.238-1.114-1.016,1.681,1.46,1.314.794-1.313v1.942l-.032.055.032.031V123.6l-.562-.507-1.017,1.681L184,126.083l.118-.2v1.943l-.9,1.494.9.813v1.353l-1.433-1.29-1.016,1.681,1.46,1.314.989-1.635V133.5l-.227.378.227.2v1.352l-.757-.682-1.016,1.682,1.46,1.313.313-.519v2.154l-.082-.073-1.016,1.681,1.1.988v2.868l-.423.7.423.379v1.355l-.953-.857-1.016,1.681,1.46,1.313.509-.84v2.651l-.277-.248-.8,1.318-.871-.5.906-1.5-1.46-1.314-1.016,1.682.7.63-4.214-2.435h0l-1.46-1.314-.212.35-.871-.5.322-.533-1.46-1.312-.532.88-.871-.5.642-1.061-1.46-1.314-.853,1.41-.871-.5.961-1.591-1.459-1.314-1.017,1.681,1.083.975-4.652-2.689.056-.093-1.46-1.314-.267.442-.871-.5.376-.622-1.46-1.314-.587.971-.871-.5.7-1.154-1.46-1.312-.908,1.5-5.066-2.927-.015-.014,0,0-.871-.5.112-.185-1.46-1.314-.323.534-.871-.5.433-.715-1.46-1.314-.643,1.064-.871-.5.753-1.245-1.46-1.314-.964,1.594-4.631-2.677-.4-.358-.058.094-.873-.5.167-.277-1.459-1.314-.378.625-.872-.5.488-.806-1.458-1.312-.7,1.155-.873-.5.809-1.336-1.46-1.314-1.016,1.681.02.018-4.21-2.432-.784-.705-.113.187-.871-.5.222-.368-1.46-1.314-.433.718-.872-.5.544-.9-1.46-1.314-.753,1.246-.871-.5.863-1.429-1.46-1.313-1.016,1.681.4.361-1.353-.781v-.435l.189.17,1.016-1.681-1.205-1.083v-2.6l.53-.875-.53-.476v-1.353l1.061.953L120.674,106l-1.46-1.314-.617,1.019v-2.925l.385.346L120,101.448l-1.4-1.26v-2.1l.725-1.2-.725-.652V94.888l1.255,1.129,1.016-1.681-1.46-1.314-.811,1.34V92.418l.051-.081-.051-.044V90.94l.58.521,1.016-1.681-1.46-1.314-.136.223V86.745l.92-1.522-.92-.826V83.044l1.45,1.3,1.016-1.68-1.46-1.314L118.6,83.018V81.073l.244-.4-.244-.219V79.1l.774.7,1.017-1.682L118.927,76.8l-.33.545V75.149l.1.089.853-1.412.871.5-.964,1.593,1.461,1.314,1.016-1.682-1.09-.979,4.659,2.692-.056.1,1.46,1.314.268-.444.87.5-.376.625,1.46,1.314.589-.974.871.5-.7,1.155,1.46,1.314.909-1.5,5.06,2.924.021.018,0-.006.871.5-.114.187,1.461,1.314.323-.535.87.5-.433.715,1.461,1.314.644-1.064.87.5-.753,1.245L144,90.106l.964-1.594,4.621,2.671.4.363.059-.1.869.5-.167.277,1.46,1.314.379-.625.87.5-.488.807,1.461,1.314.7-1.155.869.5-.808,1.338,1.461,1.314,1.015-1.681-.023-.02,4.2,2.428.8.716.114-.189.871.5-.225.371,1.461,1.314.434-.719.871.5-.545.9,1.461,1.315.755-1.249.871.5-.865,1.43,1.461,1.314,1.017-1.682-.407-.367,4.2,2.428,1.177,1.06.17-.281.871.5-.279.462,1.46,1.315.49-.811.871.5-.6.992,1.461,1.314.809-1.34.871.5-.921,1.522,1.462,1.314,1.016-1.681Zm-3.232,3.636,1.46,1.314,1.017-1.682-1.461-1.314Zm-32.936,9.85h0l1.165,1.048,1.016-1.682-1.46-1.314-1.016,1.681Zm1.547-2.557,0,0L148.737,122l1.017-1.682-1.461-1.314-1.016,1.681Zm1.546-2.556h0l1.163,1.047,1.017-1.682-1.46-1.314-1.018,1.681Zm22.454,1.811-1.016,1.682,1.46,1.314,1.016-1.682Zm1.99.438,1.017-1.681-1.461-1.314-1.016,1.68Zm-22.9-4.807h0l1.164,1.047,1.016-1.682-1.46-1.314-1.016,1.681Zm-19.621-13.7,1.46,1.312,1.016-1.681-1.46-1.312Zm.254-2.366-1.46-1.314-1.016,1.681,1.46,1.314Zm1.967,4.364,1.46,1.314,1.016-1.681-1.46-1.314Zm6.243-.926-1.46-1.314-1.016,1.681,1.461,1.314Zm-.254,2.365,1.461,1.314,1.014-1.681-1.46-1.312Zm-1.967-4.363L135.83,99.9l-1.016,1.681,1.46,1.314Zm-1.8,4.922,1.46,1.314,1.016-1.681-1.46-1.314Zm2.221,2,1.46,1.314,1.016-1.681-1.46-1.313Zm2.221,2,1.46,1.313,1.016-1.679-1.46-1.314Zm3.007-1.245,1.016-1.679-1.461-1.314-1.016,1.681Zm.762.686,1.46,1.312,1.015-1.679-1.46-1.314Zm2.221,2,1.46,1.314L148.4,111.2l-1.46-1.312Zm6.291,1.711h0l1.164,1.045,1.016-1.682-1.46-1.314-1.016,1.681Zm-.048-2.636-1.46-1.314-1.016,1.679,1.46,1.314Zm-2.222-2-1.46-1.312-1.016,1.679,1.46,1.314Zm-1.8,4.922,1.46,1.314,1.016-1.679-1.461-1.314Zm4.446,4,1.461,1.314,1.016-1.682-1.46-1.314Zm3.007-1.244,1.017-1.682-1.461-1.314-1.016,1.684Zm.762.686,1.46,1.314,1.017-1.682-1.461-1.314Zm2.222,2,1.46,1.314,1.017-1.682L159.6,117.33Zm4.023-2.926-1.46-1.314-1.017,1.682,1.46,1.314Zm-.256,2.366,1.46,1.314,1.017-1.682-1.461-1.314ZM160.8,121.01l1.46,1.314,1.017-1.682-1.461-1.314Zm2.221,2,1.46,1.313,1.017-1.681-1.461-1.314Zm3.006-1.243,1.017-1.682-1.46-1.314-1.017,1.682Zm.762.684,1.461,1.314,1.016-1.682-1.46-1.314Zm2.221,2,1.461,1.314,1.016-1.682-1.46-1.314Zm2.222,2,1.461,1.314,1.016-1.681-1.46-1.314Zm-.42-6.922-1.46-1.314-1.017,1.682,1.461,1.314Zm-2.222-2-1.46-1.314-1.017,1.682,1.461,1.314Zm-2.221-2-1.46-1.314-1.017,1.681,1.461,1.314Zm-2.221-2-1.46-1.314-1.017,1.682,1.461,1.314Zm-2.222-2-1.46-1.314L159.45,111.9l1.461,1.314Zm-3.006,1.243-1.017,1.682,1.46,1.314,1.018-1.682Zm-.762-.684-1.461-1.314-1.016,1.682,1.46,1.314Zm-2.222-2-1.46-1.314-1.018,1.682.3.268h0l1.162,1.046Zm-2.227-2-1.46-1.314-1.016,1.681,1.46,1.313Zm-2.221-2-1.46-1.314-1.016,1.679,1.46,1.314Zm-2.222-2-1.46-1.313-1.016,1.679,1.46,1.314Zm-3.007,1.243-1.014,1.681,1.46,1.314,1.016-1.681Zm-.76-.684-1.46-1.314-1.016,1.681,1.46,1.314Zm-2.221-2-1.461-1.314-1.015,1.679,1.46,1.314Zm-2.221-2L139.6,99.34l-1.015,1.681,1.46,1.314Zm-2.222-2-1.462-1.314-1.016,1.681,1.461,1.314Zm-2.221-2-1.461-1.314-1.016,1.681,1.461,1.314ZM133.608,97.9l-1.016,1.681,1.46,1.313,1.016-1.679Zm-.761-.686-1.46-1.314-1.016,1.681,1.46,1.314Zm-2.222-2-1.46-1.314-1.016,1.681,1.46,1.314Zm-2.221-2-1.46-1.314-1.016,1.681,1.46,1.314Zm-1.8,4.922,1.46,1.314,1.016-1.681-1.46-1.314Zm.676,4.555,1.46,1.314,1.016-1.681-1.46-1.314Zm-.531.877-1.016,1.681,1.46,1.314,1.016-1.681Zm1.205,3.679,1.46,1.314,1.016-1.681-1.46-1.312Zm3.007-1.243,1.016-1.681-1.46-1.313-1.016,1.679Zm.761.685,1.46,1.313,1.016-1.679-1.46-1.314Zm2.222,2L135.4,110l1.016-1.679-1.46-1.314Zm2.221,2,1.46,1.314,1.016-1.681-1.46-1.314Zm2.222,2,1.46,1.314,1.016-1.679-1.46-1.314Zm2.221,2,1.46,1.313,1.016-1.679-1.46-1.314Zm3.006-1.245,1.016-1.679-1.46-1.314-1.016,1.681Zm.762.686,1.46,1.314,1.016-1.681-1.46-1.312Zm2.221,2,1.461,1.314,1.015-1.679-1.46-1.314Zm4.447,4,1.46,1.314,1.018-1.682-1.46-1.314Zm2.222,2,1.46,1.313,1.017-1.681-1.46-1.314Zm3.007-1.243,1.016-1.683-1.46-1.312-1.017,1.682Zm.762.684,1.46,1.314,1.016-1.682-1.46-1.314Zm2.222,2,1.46,1.314,1.016-1.682-1.46-1.314Zm2.221,2,1.46,1.314,1.017-1.682-1.461-1.313Zm2.221,2,1.46,1.313,1.016-1.681-1.46-1.314Zm3.006-1.243,1.017-1.682-1.461-1.314-1.016,1.682Zm.762.684,1.46,1.314,1.017-1.682-1.461-1.314Zm2.222,2,1.46,1.314,1.017-1.681-1.46-1.314Zm2.221,2,1.46,1.313,1.017-1.681-1.46-1.314Zm2.221,2,1.46,1.314,1.017-1.682-1.461-1.314Zm1.8-4.924-1.46-1.314-1.017,1.682,1.461,1.313Zm-.676-4.555-1.46-1.314-1.016,1.681,1.46,1.314Zm.53-.875,1.017-1.682-1.461-1.314-1.016,1.682Zm.341-6.238-1.46-1.314-1.017,1.681,1.461,1.314Zm-2.221-2-1.462-1.315-1.016,1.682,1.46,1.314Zm-3.007,1.242-1.016,1.682,1.46,1.314,1.017-1.682Zm-.76-.684-1.461-1.314-1.016,1.682,1.46,1.314Zm-2.221-2-1.461-1.314-1.016,1.682,1.46,1.314Zm-2.222-2-1.461-1.314-1.017,1.682,1.461,1.314Zm-2.221-2-1.461-1.314L161,109.341l1.461,1.314Zm-2.223-2-1.46-1.314-1.017,1.682,1.461,1.314Zm-3.006,1.244-1.017,1.682,1.461,1.314,1.016-1.682Zm-.762-.686-1.46-1.314-1.016,1.682.3.269h0l1.162,1.045Zm-2.226-2-1.461-1.314-1.016,1.68,1.461,1.313Zm-2.223-2-1.46-1.314L150.56,103.9l1.461,1.314Zm-2.221-2-1.46-1.314-1.016,1.679,1.461,1.314Zm-2.221-2-1.46-1.314L146.117,99.9l1.461,1.314Zm-3.006,1.243-1.016,1.681,1.46,1.314,1.016-1.681Zm-.762-.684-1.46-1.314-1.016,1.681,1.46,1.313Zm-2.222-2-1.46-1.314-1.016,1.679,1.46,1.314Zm-2.221-2-1.46-1.314-1.016,1.68,1.46,1.314Zm-2.222-2-1.46-1.314-1.016,1.681,1.46,1.314Zm-2.221-2-1.461-1.314-1.015,1.681,1.46,1.312Zm-3.007,1.243-1.016,1.681,1.461,1.312,1.016-1.681Zm-.76-.686-1.461-1.314-1.016,1.681,1.46,1.314Zm-2.221-2-1.461-1.314-1.016,1.681,1.46,1.314Zm-2.223-2-1.46-1.313-1.016,1.681,1.46,1.314Zm-3.006,1.245-1.016,1.681,1.46,1.313,1.016-1.681Zm-.34,6.236,1.46,1.314,1.016-1.681-1.46-1.314Zm.676,4.556,1.459,1.314,1.017-1.681-1.46-1.314Zm-.531.877-1.016,1.681,1.46,1.313,1.016-1.679Zm-.34,6.236,1.46,1.314,1.016-1.681-1.46-1.314Zm2.222,2,1.46,1.314,1.016-1.681-1.46-1.314Zm2.221,2,1.46,1.313,1.016-1.681-1.46-1.312Zm3.006-1.245,1.016-1.679-1.46-1.314-1.014,1.681Zm.762.686,1.461,1.313,1.015-1.679-1.46-1.314Zm2.223,2,1.46,1.314,1.015-1.681-1.46-1.314Zm2.221,2,1.46,1.314,1.016-1.68-1.461-1.313Zm2.222,2,1.46,1.313,1.015-1.679-1.46-1.314Zm2.221,2,1.46,1.312,1.015-1.679-1.458-1.314ZM144.29,118l1.016-1.679-1.46-1.314-1.016,1.681Zm.762.686,1.46,1.314,1.016-1.681L146.067,117Zm4.447,4,1.46,1.314,1.017-1.682L150.515,121Zm2.222,2L153.18,126l1.017-1.682L152.738,123Zm2.221,2L155.4,128l1.017-1.682L154.959,125Zm3.006-1.244,1.017-1.682-1.46-1.314-1.017,1.682Zm.762.684,1.46,1.314,1.017-1.682-1.46-1.314Zm2.222,2,1.461,1.314,1.016-1.682-1.46-1.312Zm2.223,2,1.46,1.312,1.016-1.68-1.46-1.314Zm2.22,2,1.461,1.314,1.016-1.682-1.46-1.314Zm3.007-1.244,1.016-1.682-1.46-1.314-1.016,1.682Zm.762.684,1.46,1.314,1.017-1.682-1.461-1.314Zm2.221,2,1.46,1.314,1.018-1.681-1.461-1.314Zm2.222,2,1.46,1.312,1.017-1.68-1.462-1.314Zm2.221,2,1.46,1.314,1.017-1.682-1.461-1.314Zm2.222,2,1.46,1.314,1.017-1.68-1.461-1.314Zm1.8-4.924-1.46-1.313L176.352,135l1.462,1.314Zm-.676-4.555-1.46-1.314-1.016,1.682,1.46,1.314Zm-.674-4.556-1.461-1.314L175,125.888l1.46,1.314Zm.528-.875,1.017-1.682-1.461-1.314-1.016,1.682Zm.341-6.237-1.461-1.314-1.016,1.682,1.461,1.314Zm-.676-4.555-1.46-1.314L175.2,114.22l1.461,1.314Zm-2.222-2-1.46-1.315-1.017,1.682,1.461,1.314Zm-2.221-2-1.46-1.314-1.017,1.682,1.461,1.314Zm-3.007,1.243-1.016,1.682,1.46,1.314,1.017-1.682Zm-.76-.684L168,109.1l-1.016,1.682,1.46,1.314Zm-2.221-2L165.78,107.1l-1.016,1.682,1.46,1.314Zm-2.221-2-1.461-1.314-1.016,1.682L164,108.1Zm-2.222-2-1.461-1.314-1.016,1.682,1.46,1.314Zm-2.221-2-1.461-1.314-1.016,1.681.3.27h0l1.162,1.045Zm-3.007,1.242-1.016,1.682.3.269h0l1.162,1.045,1.016-1.683Zm-.766-.687-1.461-1.314-1.014,1.681,1.46,1.314Zm-2.221-2-1.461-1.314-1.015,1.679,1.46,1.314Zm-2.222-2L150.9,97.665l-1.016,1.679,1.461,1.314Zm-2.221-2-1.461-1.314-1.016,1.681,1.461,1.314Zm-2.223-2-1.46-1.314-1.016,1.681,1.461,1.314Zm-3.006,1.243L143.895,97.9l1.46,1.313,1.016-1.679Zm-.762-.684-1.46-1.314-1.016,1.679,1.46,1.314Zm-2.222-2-1.46-1.314-1.016,1.681,1.46,1.314Zm-2.221-2-1.46-1.314-1.016,1.681,1.46,1.314Zm-2.221-2-1.46-1.314-1.016,1.68,1.46,1.314Zm-2.221-2-1.46-1.314-1.016,1.681,1.46,1.314Zm-3.006,1.243-1.017,1.681,1.461,1.314,1.016-1.681ZM131.5,88.1l-1.462-1.314-1.016,1.68,1.461,1.314Zm-2.222-2-1.461-1.314L126.8,86.473l1.461,1.314Zm-2.222-2-1.461-1.314-1.016,1.682,1.46,1.312Zm-2.221-2-1.461-1.314-1.016,1.681,1.461,1.314Zm-1.8,4.924,1.46,1.312,1.016-1.681-1.46-1.314Zm-.53.875-1.016,1.68,1.46,1.314,1.016-1.68Zm-.34,6.237,1.46,1.313,1.016-1.681-1.46-1.314Zm.675,4.555,1.461,1.313,1.016-1.681-1.46-1.312Zm-.53.877-1.016,1.681,1.46,1.312,1.016-1.681Zm-.34,6.236,1.46,1.312,1.016-1.68-1.46-1.313Zm.676,4.555,1.46,1.313L125.117,110l-1.46-1.314Zm2.222,2,1.46,1.314L127.338,112l-1.46-1.314Zm2.221,2,1.46,1.314L129.56,114l-1.46-1.313Zm2.221,2,1.46,1.313L131.781,116l-1.46-1.312Zm3.006-1.245,1.016-1.679-1.46-1.314-1.016,1.681Zm.762.686,1.46,1.313,1.016-1.679-1.46-1.314Zm2.221,2,1.46,1.314,1.016-1.681-1.46-1.312Zm2.221,2,1.46,1.313,1.016-1.681-1.46-1.312Zm2.223,2,1.458,1.313,1.016-1.679-1.46-1.314Zm2.221,2,1.46,1.314,1.014-1.681-1.46-1.313Zm3.006-1.243,1.016-1.681-1.46-1.312-1.016,1.679Zm2.986,2.688,1.461,1.314,1.016-1.682-1.46-1.314Zm2.223,2,1.46,1.314,1.016-1.682-1.46-1.314Zm2.221,2,1.46,1.312,1.016-1.682-1.46-1.313Zm2.222,2,1.46,1.314,1.016-1.682-1.46-1.314ZM157.623,130l1.017-1.682L157.18,127l-1.017,1.682Zm.762.684,1.46,1.314,1.017-1.682L159.4,129Zm2.221,2,1.46,1.313,1.017-1.682L161.624,131Zm2.222,2,1.46,1.312,1.017-1.681L163.845,133Zm2.221,2,1.46,1.314,1.017-1.682-1.46-1.314Zm3.007-1.243,1.016-1.682-1.46-1.312-1.016,1.681Zm.762.684,1.46,1.314,1.016-1.681-1.46-1.314Zm2.221,2,1.46,1.312,1.016-1.68-1.46-1.314Zm2.222,2,1.46,1.314,1.016-1.682-1.46-1.314Zm2.221,2,1.46,1.314,1.016-1.682-1.46-1.312Zm2.221,2,1.46,1.314,1.016-1.681-1.46-1.314Zm3.006-1.243,1.017-1.681-1.461-1.314-1.016,1.681Zm.341-6.236-1.46-1.314L178.574,137l1.461,1.314Zm-.676-4.556-1.46-1.314-1.016,1.681,1.46,1.314Zm-.676-4.557-1.46-1.314-1.016,1.682,1.46,1.314Zm.53-.875,1.018-1.681-1.461-1.315-1.016,1.682Zm.342-6.238-1.461-1.314-1.016,1.682,1.461,1.314Zm-.676-4.555-1.46-1.314-1.017,1.682,1.461,1.314Zm-3.153-4.187,1.461,1.314,1.017-1.682-1.461-1.314Zm-2.222-2,1.461,1.315L177,109.3l-1.461-1.314Zm-1.2-3.68-1.017,1.682,1.461,1.314,1.017-1.68Zm-3.239-.316,1.461,1.314,1.016-1.682-1.46-1.314Zm-1.546,2.557,1.461,1.314,1.016-1.682-1.46-1.314Zm-2.221-2,1.461,1.314,1.016-1.682-1.46-1.316Zm-2.222-2,1.46,1.314,1.017-1.682-1.46-1.314Zm-2.221-2,1.46,1.314,1.017-1.682-1.46-1.314Zm-1.2-3.68-1.017,1.681.3.27h0l1.162,1.045,1.017-1.682Zm-3.243-.322,1.461,1.314,1.015-1.679-1.46-1.315Zm-1.546,2.557,1.46,1.314,1.016-1.681L156.89,99.1Zm-2.221-2,1.46,1.314,1.016-1.681-1.46-1.314Zm-2.221-2,1.46,1.314,1.016-1.679-1.46-1.314Zm-2.221-2,1.46,1.314,1.016-1.679-1.461-1.315ZM148,91.11l-1.014,1.681,1.46,1.314,1.016-1.681Zm-3.237-.317,1.461,1.314,1.016-1.681-1.461-1.314Zm-1.546,2.556,1.461,1.314,1.016-1.679-1.461-1.314Zm-2.222-2,1.461,1.314,1.016-1.679-1.461-1.315Zm-2.221-2,1.461,1.314,1.015-1.681-1.46-1.314Zm-2.222-2,1.46,1.314,1.016-1.681-1.46-1.314Zm-1.205-3.679-1.016,1.681,1.46,1.313,1.017-1.679Zm-3.237-.319,1.46,1.314,1.016-1.681-1.46-1.314Zm-1.546,2.557,1.46,1.314,1.016-1.681-1.46-1.314Zm-2.222-2,1.46,1.314,1.016-1.681-1.46-1.314Zm-2.221-2,1.46,1.314,1.016-1.682-1.46-1.314Zm-1.206-3.68L123.9,79.918l1.461,1.314,1.016-1.681Zm-3.239-.317,1.461,1.314,1.016-1.681-1.46-1.314Zm-.086,3.871,1.017-1.681L121.149,78.8l-1.016,1.68Zm-.784,3.241,1.46,1.314,1.016-1.681-1.46-1.314Zm-.086,3.871,1.016-1.681-1.46-1.314-1.016,1.681Zm.676,4.555,1.016-1.681-1.46-1.314-1.017,1.681Zm-.785,3.242,1.46,1.314,1.017-1.681-1.46-1.314Zm-.086,3.871,1.016-1.681-1.46-1.314-1.016,1.681Zm.676,4.555,1.016-1.681-1.46-1.314-1.016,1.682Zm-.784,3.243,1.46,1.313L122.9,108l-1.46-1.312Zm.929,2.189-1.458-1.313-1.016,1.681,1.458,1.312Zm2.222,2-1.459-1.312-1.016,1.68,1.458,1.313Zm2.221,2-1.46-1.314-1.015,1.681,1.458,1.312Zm2.221,2-1.458-1.313-1.016,1.679,1.46,1.314Zm1.207,3.679,1.015-1.681-1.458-1.312-1.016,1.681Zm3.236.319L131,119.239l-1.016,1.681,1.46,1.313ZM134,118l-1.46-1.314-1.016,1.681,1.46,1.313Zm2.222,2-1.46-1.312-1.016,1.679,1.46,1.314Zm2.221,2-1.46-1.313-1.016,1.679,1.46,1.314Zm2.221,2-1.46-1.314-1.016,1.681,1.46,1.312Zm1.206,3.677,1.016-1.679-1.46-1.312-1.016,1.679Zm3.243.322-1.46-1.313-1.016,1.681.3.267h0l1.165,1.047Zm1.545-2.557-1.46-1.312-1.016,1.68.3.267h0l1.164,1.048Zm2.222,2-1.46-1.314-1.018,1.682,1.46,1.314Zm2.222,2-1.46-1.314-1.017,1.682,1.46,1.314Zm2.221,2-1.46-1.313-1.017,1.682,1.46,1.312Zm1.205,3.68,1.016-1.681-1.46-1.314-1.017,1.682Zm3.238.317-1.46-1.314-1.016,1.682,1.46,1.314Zm1.547-2.557-1.461-1.314-1.016,1.682,1.46,1.314Zm2.22,2-1.46-1.313-1.016,1.681,1.46,1.314Zm2.221,2-1.46-1.314-1.016,1.682,1.46,1.313Zm1.206,3.68,1.017-1.682-1.46-1.314-1.017,1.682Zm3.239.316-1.461-1.313-1.016,1.681,1.46,1.314Zm1.546-2.557-1.46-1.313-1.017,1.681,1.461,1.314Zm2.221,2-1.46-1.314-1.017,1.682,1.461,1.313Zm2.222,2-1.46-1.314-1.016,1.682,1.46,1.312Zm2.221,2-1.46-1.313-1.016,1.681,1.46,1.314Zm1.206,3.68,1.016-1.681-1.46-1.314-1.016,1.681Zm3.237.317-1.46-1.314-1.016,1.682,1.46,1.312Zm1.546-2.557-1.46-1.314-1.016,1.682,1.46,1.312Zm.087-3.871-1.017,1.682,1.461,1.312,1.016-1.681Zm-.676-4.556L180.8,139l1.461,1.314,1.016-1.681Zm-.676-4.555-1.016,1.681,1.46,1.314,1.016-1.681Zm.785-3.242-1.461-1.314-1.016,1.68,1.46,1.314Zm.084-3.871-1.016,1.681,1.46,1.314,1.017-1.681Zm-.674-4.556-1.018,1.681,1.462,1.314,1.016-1.681Zm.784-3.243-1.46-1.314-1.017,1.682,1.461,1.314Zm.086-3.871-1.016,1.682,1.46,1.314,1.018-1.681Z" transform="translate(-93.036 -71.245)" fill="#86afb8"/><g transform="translate(0 1.81)"><path d="M188.356,70.992,237.2,99.213l21.133,12.211v52.513l-2.945,1.707-.427-.256V112.049l-21.133-10.873-42.1-24.292v48.585l-2.945,1.707-1.068-.6-2.3-54.96Z" transform="translate(-185.411 -70.992)" fill="#9dbdc4"/><path d="M266.222,113.686v53.637l-.427-.256-2.947-1.665v-49.71L199.619,79.146v49.71l-1.068-.6-2.3-1.366V73.3Z" transform="translate(-196.247 -72.671)" fill="#c1d4d8"/><path d="M258.3,111.424l-2.954.6L185.375,71.6l2.954-.606Z" transform="translate(-185.375 -70.992)" fill="#e3faff"/></g><path d="M105.776,214.441v41.776L108,254.933V213.145Z" transform="translate(-13.434 -172.698)" fill="#9dbdc4"/><path d="M116.179,214.441v41.776l-2.224-1.284V213.145Z" transform="translate(-23.837 -172.698)" fill="#c1d4d8"/><path d="M110.223,209.678,108,210.962l-2.224-1.284L108,208.384Z" transform="translate(-15.659 -169.231)" fill="#e3faff"/><path d="M105.785,214.94l21.645-1.794v2.569l-21.653,1.8Z" transform="translate(-32.865 -172.698)" fill="#9dbdc4"/><path d="M108.009,211.5l21.645-1.795-2.223-1.283-21.655,1.8Z" transform="translate(-35.089 -169.261)" fill="#e3faff"/><path d="M119.742,272.545l-1,.576-.847-.5-.458,1.26-.306.177V270.99l.235.139.673-1.845-.908-.541v-1.17l1.258.749.672-1.847-1.686-1.006-.243.668v-2.942l.385-1.058-.385-.229v-1.171l.735.438.673-1.846-1.408-.839V253.9l.214.128.672-1.847-.885-.528v-1.171l1.236.736.672-1.846-1.686-1.006-.222.607v-2.941l.364-1-.364-.216v-1.171l.714.426.673-1.846-1.387-.826v-4.589l.192.115L118,235.08l-.864-.516v-1.171l1.214.725.673-1.846-1.688-1.008-.2.548v-2.94l.343-.94-.343-.205v-1.171l.693.413.672-1.847-.235-.139,1.723-.144,1.429.853.365-1,1.1-.091-.59,1.617,1.687,1.006.672-1.846-1.36-.812,2.812-.233-.222.609,1.688,1.006.652-1.79,1.821-.152,1.116.666.284-.783,1.1-.091-.509,1.4,1.688,1.006.672-1.846-1.047-.624,2.342-.2v.2l-.066.18.066.039v1.17l-.416-.249-.673,1.846,1.089.649v1.171l-1.439-.857-.672,1.845,1.688,1.008.423-1.159v2.938l-.566,1.554.566.336v1.172l-.916-.547-.672,1.846,1.588.947V240.9l-.043.119.043.025v1.172l-.395-.235-.672,1.845,1.067.637v1.171l-1.416-.844-.672,1.845,1.686,1.007.4-1.1v2.94l-.545,1.494.545.325v1.172l-.9-.534-.672,1.846,1.567.934v3.344l-.023.06.023.013v1.172l-.372-.222-.672,1.845,1.044.623v1.172l-1.4-.832-.672,1.845.66.395-1,.576-.013-.008-.007.021-1.358.784.485-1.329-1.686-1.006-.673,1.845,1.34.8-1,.576-.694-.413-.375,1.033-1.839,1.064-1.374-.819-.672,1.845.133.08-1.563.9.2-.545-1.686-1.006-.672,1.845.812.486-1,.576-.167-.1-.09.249-1.357.786.568-1.56-1.686-1.006-.672,1.846Zm1.887-4.539L119.943,267l-.672,1.846,1.686,1.006Zm1.023-2.808-1.686-1.006-.672,1.845,1.686,1.006Zm1.373-3.77.672-1.846-1.686-1.006-.673,1.846Zm-2.037-.045-.672,1.847L123,264.237l.672-1.846Zm3.059-2.764.672-1.845-1.686-1.008-.672,1.846Zm4.761-13.078-1.686-1.006-.672,1.846,1.686,1.006Zm-.142,3.333-.672,1.846,1.686,1.006.671-1.846Zm-2.574,4.13.672-1.846-1.686-1.006L125.4,252Zm-2.036-.045-.673,1.846,1.688,1.006.672-1.846Zm.492-4.294.672-1.846-1.686-1.006-.672,1.846Zm2.567,1.53.672-1.845-1.688-1.008-.672,1.846Zm2.044-5.615.672-1.846-1.688-1.006-.672,1.845Zm-.872-6.185L127.6,237.39l-.672,1.845,1.688,1.008Zm-2.709,1.8-.672,1.846,1.686,1.006.672-1.846Zm-1.022,2.807-.673,1.846,1.688,1.006.672-1.845Zm.142-3.332-1.686-1.007-.673,1.846,1.688,1.007Zm-2.709,1.8-.672,1.846L124,244.327l.673-1.846Zm-1.021,2.807-.673,1.847,1.688,1.006.672-1.846Zm.871,6.186,1.688,1.006.672-1.846-1.686-1.006Zm-.35.962-.672,1.845,1.686,1.006.673-1.845Zm2.417,10.523,1.686,1.006.672-1.845-1.686-1.006Zm2.708-1.8.673-1.846L126.6,257.3l-.672,1.846Zm1.023-2.807.672-1.847-1.686-1.006-.672,1.845Zm1.022-2.809.673-1.845-1.688-1.008-.672,1.847Zm-.142,3.333,1.686,1.006.673-1.846-1.688-1.006Zm2.709-1.8.672-1.846-1.686-1.006-.673,1.847Zm1.021-2.809.672-1.845-1.686-1.006-.672,1.845Zm-.871-6.184-1.688-1.006-.672,1.845,1.686,1.008Zm.35-.962.672-1.845-1.688-1.008-.672,1.847Zm-.872-6.184-1.686-1.008-.673,1.846,1.688,1.006Zm.351-.962.672-1.847-1.688-1.006-.672,1.846Zm1.022-2.808.672-1.846-1.688-1.006-.672,1.845Zm-.873-6.185-1.686-1.006-.673,1.845,1.687,1.008Zm-2.709,1.8-.672,1.846,1.688,1.006.672-1.846Zm-1.021,2.807-.672,1.846,1.686,1.006.673-1.845Zm.143-3.331-1.688-1.008-.672,1.846,1.686,1.007Zm-2.71,1.8-.672,1.846,1.688,1.006.672-1.846Zm-1.022,2.807-.672,1.846,1.686,1.006.673-1.846Zm.143-3.331-1.687-1.008-.672,1.846,1.686,1.006Zm-2.709,1.8-.672,1.845,1.686,1.007.672-1.846ZM122.61,231l-1.688-1.006-.671,1.846,1.686,1.006Zm-2.709,1.8-.673,1.847,1.688,1.006.672-1.846Zm.871,6.186,1.687,1.006.672-1.846-1.688-1.006Zm-.35.961-.672,1.846,1.686,1.006.672-1.846Zm-1.023,2.809-.672,1.845,1.688,1.008.672-1.846Zm.872,6.184,1.686,1.008.673-1.846-1.688-1.006Zm-.35.962-.672,1.847,1.686,1.006.672-1.846Zm.873,6.186,1.686,1.006.672-1.847-1.686-1.006Zm-.351.961-.671,1.846,1.686,1.006.673-1.846Zm-1.021,2.809-.672,1.845,1.686,1.006.672-1.845Zm5.8,6.875-1.686-1.006-.672,1.846,1.686,1.006Zm1.023-2.807-1.686-1.006-.673,1.846,1.686,1Zm2.566,1.53-1.686-1.006-.672,1.846,1.686,1.006Zm1.022-2.807-1.686-1.006-.672,1.846,1.686,1.006Zm1.023-2.807-1.686-1.006-.673,1.845,1.688,1.006Zm2.566,1.53-1.686-1.006-.672,1.846,1.686,1.006Zm1.023-2.808-1.688-1.006-.672,1.846,1.688,1.006Zm-.665-3.814-.672,1.845,1.686,1.006.672-1.845Zm-.523-7.148-.672,1.846,1.688,1.006.672-1.847Zm1.166-6.14-1.687-1.006-.672,1.846,1.686,1.006Zm-.666-3.814-.672,1.845,1.688,1.008.671-1.846Zm-.521-7.148-.672,1.846,1.688,1.006.672-1.845ZM131.015,228l1.688,1.006.672-1.845-1.688-1.008Zm-2.566-1.532,1.686,1.008.673-1.846-1.688-1.006Zm-1.023,2.809,1.688,1.006.672-1.846-1.687-1.006Zm-2.566-1.531,1.686,1.007.673-1.846-1.688-1.006Zm-1.023,2.809,1.688,1.006.672-1.846-1.686-1.006Zm-2.566-1.532,1.688,1.006.672-1.845-1.688-1.008Zm-2.566-1.53,1.686,1.006.673-1.847-1.688-1.006Zm.665,3.814.671-1.846-1.686-1.006-.673,1.846Zm-1.165,6.14,1.686,1.006.673-1.846-1.688-1.006Zm.665,3.815.672-1.846-1.686-1.006-.673,1.846Zm.521,7.146.672-1.846-1.686-1.006-.672,1.846Zm-1.165,6.14,1.688,1.006.672-1.847-1.686-1.006Zm.665,3.815.672-1.846-1.686-1.006-.672,1.846Zm.522,7.147.673-1.847-1.686-1.006-.673,1.846Z" transform="translate(-44.214 -180.266)" fill="#6d97a4"/><path d="M180.368,109.143l1.508-.126-.527-1.89-1.958.162.429,1.538-1.243-.718-.205-.735-.933.077-2.494-1.44-.354-1.267-1.61.133-1.667-.962-.5-1.8-1.957.164.073.261-1.934-1.117.565-.046-.527-1.893-1.959.163.222.8-2.76-1.594,1.244-.1-.528-1.893-1.958.163.371,1.329-1.243-.718-.148-.526-.669.055-1.527-.883L160,96.113l-.528-1.893-1.957.163.519,1.863-1.243-.718-.3-1.061-1.347.113-1.989-1.148-.444-1.595L150.753,92l.015.054-1.61-.929.3-.025-.528-1.893-1.957.163.163.587L144.7,88.55l.978-.082-.527-1.893-1.959.163.313,1.121-1.243-.718-.089-.319-.4.034-1.527-.881,1.657-.138-.527-1.893-1.959.163.461,1.655-1.243-.718-.238-.853-1.082.09L135,82.95l-.386-1.387-1.761.146-1.527-.881.035,0-.527-1.893-1.959.163.105.378-2.113-1.22.714-.059-.528-1.894-1.957.163.254.913-1.244-.718-.031-.11-.139.011-1.528-.881,1.393-.115-.529-1.894-1.959.163.4,1.447-1.244-.718-.178-.644-.819.068-2.633-1.52-.059-.211,1.075.111.2.731,1.959-.164-.257-.926,1.074.113.2.729L123,72.685l-.259-.926,1.074.111.2.731,1.959-.163-.258-.928,1.074.111.2.731,1.959-.163-.258-.927,1.075.113.2.731,1.959-.163-.259-.927,1.074.111.2.731,1.959-.163-.258-.928,1.074.111.2.732,1.959-.163-.2-.713,2.629,1.519-1.137.094.528,1.893,1.958-.163-.347-1.246,1.243.718.124.444.562-.048,1.528.882-1.816.15.528,1.893,1.959-.163-.5-1.779,1.242.717.273.978,1.241-.1,2.119,1.224.422,1.511,1.918-.16,1.527.882-.194.015.528,1.893,1.959-.163-.141-.5,2.307,1.332-.873.072.527,1.893,1.959-.163-.289-1.037,1.243.718.065.233.3-.024,1.529.882-1.551.129.528,1.891,1.957-.163-.437-1.571,1.242.718.215.768.975-.081,2.442,1.409.363,1.3L170,89.389l1.614.932.512,1.837,1.959-.163L174,91.7l1.984,1.146-.607.051.527,1.891,1.957-.163-.23-.829,1.243.718.007.027.032,0,1.529.882-1.286.107.527,1.891,1.959-.163-.381-1.363,1.245.718.156.559.709-.059,2.766,1.6.3,1.093,1.388-.117,1.939,1.12.452,1.627,1.957-.163-.024-.086,1.662.96-.342.028.527,1.891,1.957-.163-.173-.62,2.49,1.437-1.021.085.527,1.891,1.957-.163-.322-1.154,1.245.718.1.35.446-.036,1.409.814-20.846,1.732Zm13.914-3.093.527,1.89,1.957-.163-.527-1.89Zm-67.5-30.735-.528-1.893-1.959.163.529,1.893Zm58.077,33.454-.528-1.891-1.957.163.527,1.891Zm2.978-.247-.527-1.891-1.957.163.527,1.891Zm5.428-2.387-1.957.163.527,1.891,1.958-.163Zm-2.76-2.716.527,1.891,1.957-.163-.527-1.891Zm-2.175,3.126.527,1.891,1.957-.163-.527-1.891Zm1.155-3.041-1.957.163.527,1.891,1.957-.163Zm-2.76-2.716.527,1.891,1.957-.163-.527-1.891Zm-2.175,3.127.527,1.891,1.957-.163-.527-1.891Zm1.155-3.041-1.957.163.527,1.891,1.957-.163Zm-2.761-2.716.528,1.891,1.957-.163-.527-1.891Zm-2.978.247.527,1.893,1.959-.163-.529-1.891Zm-2.977.249.527,1.891,1.957-.163-.527-1.891Zm-.8-2.879.527,1.891,1.958-.163-.527-1.891Zm-1.02.086-1.959.163.528,1.891,1.958-.163ZM172.4,93.144l.528,1.891,1.957-.163-.527-1.891Zm-1.02.086-1.957.161.527,1.893,1.959-.163Zm-2.76-2.716.527,1.891,1.959-.163-.528-1.891Zm-1.02.085-1.957.163.527,1.893,1.957-.163Zm-2.76-2.715.527,1.891,1.959-.163L166.8,87.72Zm-2.979.247.528,1.893,1.957-.163-.527-1.893Zm-3.78-2.63.527,1.891,1.959-.163-.527-1.891Zm-1.02.084-1.957.163.527,1.893,1.959-.163Zm-2.76-2.715.527,1.891,1.959-.163-.528-1.891Zm-1.02.084-1.959.163.528,1.893,1.957-.163Zm-2.761-2.715.528,1.891,1.958-.163-.527-1.891Zm-1.019.084-1.959.163.527,1.893,1.959-.163Zm-2.761-2.716.527,1.893,1.959-.163-.527-1.893Zm-2.979.249.528,1.893,1.959-.163-.528-1.893Zm-3.78-2.63.528,1.893,1.957-.164-.527-1.891Zm-1.019.084-1.959.163.527,1.893,1.959-.163ZM136.2,72.593l.527,1.893,1.959-.163-.527-1.893Zm-2.978.249.527,1.893,1.959-.163-.528-1.893ZM127.8,75.231l1.959-.163-.527-1.893-1.959.161Zm2.761,2.715-.527-1.893-1.959.163.527,1.893Zm2.177-3.127-.528-1.893-1.959.163.528,1.893Zm-1.157,3.042,1.959-.163-.528-1.893-1.959.163Zm2.761,2.715-.528-1.893-1.959.163.528,1.894Zm2.175-3.126-.529-1.893-1.957.163.527,1.893Zm-1.156,3.042,1.959-.163-.528-1.893-1.957.163Zm2.761,2.715-.528-1.893-1.957.164.527,1.891Zm2.175-3.125-.527-1.893-1.959.163.527,1.893Zm.8,2.878-.527-1.893-1.959.163.527,1.893Zm2.175-3.126-.527-1.893-1.959.163L141.314,80Zm.8,2.879-.527-1.893-1.959.163.528,1.893Zm.8,2.878-.527-1.893-1.959.163.528,1.893Zm2.177-3.127-.528-1.893-1.959.163.528,1.893ZM145.9,85.506l1.959-.163-.528-1.893-1.959.163Zm2.761,2.715-.528-1.893-1.957.163.527,1.893Zm2.175-3.127-.527-1.891-1.959.163.527,1.891Zm-1.156,3.042,1.959-.163-.527-1.893-1.959.163Zm2.761,2.715-.527-1.891-1.959.163.527,1.891Zm2.175-3.126-.527-1.891L152.126,86l.528,1.891Zm-1.155,3.042,1.957-.163-.527-1.893-1.959.163Zm2.76,2.715-.527-1.891-1.959.163.528,1.891Zm2.176-3.125-.528-1.893-1.957.163.527,1.891Zm.8,2.878-.528-1.893-1.957.163.527,1.893Zm2.175-3.126-.527-1.893-1.959.164.527,1.891Zm.8,2.878-.527-1.891-1.959.163.527,1.893Zm.8,2.879-.527-1.891-1.959.163.527,1.891Zm2.175-3.127-.527-1.891-1.959.163.528,1.891ZM164,95.78l1.957-.163-.527-1.893-1.959.163Zm2.76,2.715-.527-1.891-1.959.163.528,1.891Zm2.175-3.127-.527-1.891-1.957.163.527,1.891Zm-1.155,3.042,1.957-.163-.527-1.891-1.957.161Zm2.76,2.715-.527-1.891-1.957.163.527,1.891ZM172.712,98l-.528-1.891-1.957.163.527,1.891Zm-1.157,3.042,1.959-.163-.528-1.891-1.957.163Zm2.761,2.715-.528-1.891-1.957.163.528,1.891Zm2.175-3.126-.527-1.891-1.959.163.528,1.891Zm-1.155,3.042,1.957-.163-.527-1.891-1.959.163Zm2.76,2.716-.527-1.893-1.959.163.528,1.891Zm2.175-3.127-.527-1.893-1.957.163.527,1.891Zm.8,2.878-.527-1.891-1.957.163.527,1.891Zm2.177-3.126-.528-1.891-1.958.163.527,1.891Zm-1.156,3.042,1.959-.163L183.524,104l-1.958.164Z" transform="translate(-111.046 -68.994)" fill="#e3faff"/></g></g><g transform="translate(46.365 37.794)"><path d="M351.79,339.412c.543.888-1.32,2.011-2.049,2.5-.873.583-1.433,1.357-2.6.909a2.118,2.118,0,0,1-1.18-1.15c-.268-.647.208-1.061.116-1.615-.083-.5-.768-.849-1.163-1.117q-1.35-.917-2.608-1.96a8.966,8.966,0,0,0-2.321-1.811,20.735,20.735,0,0,0-6.129-1.456,11.91,11.91,0,0,1-7.159-2.846,70.782,70.782,0,0,1-5.925-6.027,10.732,10.732,0,0,0-2.4-1.841l-7.807-4.89a12.739,12.739,0,0,1-2.189-2.076,1.151,1.151,0,0,1-.152-1.33,1.717,1.717,0,0,1,1.47-.494l2.4-.013a1.217,1.217,0,0,0,.792-.19c.13-.109.218-.276.376-.34a.7.7,0,0,1,.409.007,5.09,5.09,0,0,1,2.96,1.375,15.388,15.388,0,0,1,.946,1.618,7.527,7.527,0,0,0,2.779,2.236l3.5,1.994a8.567,8.567,0,0,1,1.807,1.244c.416.407.746.9,1.157,1.307a9.106,9.106,0,0,0,1.807,1.3,23.619,23.619,0,0,0,5.055,2.606,7.388,7.388,0,0,1,2.169.771c.59.407,1.2.769,1.816,1.136l.343.205,2.078,1.25a30.476,30.476,0,0,1,4.976,3.463,10.474,10.474,0,0,0,2.131,1.491,11.218,11.218,0,0,1,1.99,1.856,8.651,8.651,0,0,0,2.047,1.44A1.323,1.323,0,0,1,351.79,339.412Z" transform="translate(-300.835 -283.667)" fill="#dedeca" style="mix-blend-mode:multiply;isolation:isolate"/><g transform="translate(29.374 21.684)"><path d="M266.745,295.721a1.626,1.626,0,0,1,.444.715,3.009,3.009,0,0,0,.334.971,2.17,2.17,0,0,1,.248,1.235c-.1.34-.241.373-.619.435a2.466,2.466,0,0,1-.742,0,2.411,2.411,0,0,1-.4-.276c-.076-.091-.326-.345-.378-.388a1.857,1.857,0,0,1-.541-.906,2.149,2.149,0,0,1,.148-1.146c.122-.213.549-.79.856-.8A1.708,1.708,0,0,1,266.745,295.721Z" transform="translate(-234.429 -292.192)" fill="#ff7954"/><path d="M349.8,295.311a4.566,4.566,0,0,1-.338.594s-6.014.988-6.242,1.034a1.3,1.3,0,0,1-.539-.056,3.868,3.868,0,0,1-.813-.516,1.912,1.912,0,0,1-.383-.657c-.029-.154-.375-.52-.444-.675s-.315-.66-.315-.66l-.521-.316a3.6,3.6,0,0,0-.682-.474c-.2-.067-.853-1.047-.853-1.047s.691-2.6,1.19-4.331c.2-.708.375-1.27.453-1.451.271-.628.962-3.112,1.529-3.22s.856-.145.971-.294a7.666,7.666,0,0,1,2.218.022c.2.067.725.3.953.375a4.452,4.452,0,0,1,1.372.553c.65.41,2.61.544,3.243.883a4.377,4.377,0,0,1,1.325,4.079c-.467,1.679-.825,2.413-1.348,2.84a2.091,2.091,0,0,1-1.646.366c-.024-.008-.049-.016-.072-.022l-.024-.008a4.809,4.809,0,0,0-.478-.117v0a3.714,3.714,0,0,0,.1.855s.137.182.311.423c.209.286.474.659.624.907A2.416,2.416,0,0,1,349.8,295.311Z" transform="translate(-338.665 -283.165)" fill="#414654"/><path d="M357.661,309.1s-3.4.559-5.181.855c-.591.1-1.005.168-1.061.179a1.3,1.3,0,0,1-.539-.056,3.867,3.867,0,0,1-.813-.516,1.912,1.912,0,0,1-.383-.657c-.029-.154-.375-.52-.444-.675s-.315-.66-.315-.66l-.521-.316a3.594,3.594,0,0,0-.682-.474c-.2-.067-.853-1.047-.853-1.047l.244-.911c.246-.914.635-2.337.946-3.42.12-.075.191-.116.191-.116a22.143,22.143,0,0,1,2.985,1.1,1.076,1.076,0,0,1,.492,1.1l1.415.461a23.259,23.259,0,0,0,2.487,1.327,3.861,3.861,0,0,0,.928.129v0a3.714,3.714,0,0,0,.1.855s.658.874.935,1.33a2.416,2.416,0,0,1,.406.911A4.568,4.568,0,0,1,357.661,309.1Z" transform="translate(-346.867 -296.362)" fill="#3d414f"/><path d="M343.561,297.261a3.044,3.044,0,0,1-.567.964,1.837,1.837,0,0,1-.256.234l-.006,0h0a1.326,1.326,0,0,1-.544.247,1.424,1.424,0,0,1-1.727-.349,2.147,2.147,0,0,1-.5-1.132,8.52,8.52,0,0,1-.04-1.906,5.632,5.632,0,0,1,.268-1.363,4.135,4.135,0,0,1,1.264-1.482c.641-.7,1.728-.083,1.821,0,.066.061.381,1.844.557,2.869.072.418.121.71.121.71S343.76,296.729,343.561,297.261Z" transform="translate(-330.92 -289.706)" fill="#ababab" style="mix-blend-mode:multiply;isolation:isolate"/><path d="M343.561,305.248a3.046,3.046,0,0,1-.567.964,3,3,0,0,0-.256.234l-.006,0h0a3.8,3.8,0,0,1-.829.023,5.294,5.294,0,0,0-.865-.282.657.657,0,0,0-.576.156,2.147,2.147,0,0,1-.5-1.132,8.52,8.52,0,0,1-.04-1.906,4.141,4.141,0,0,0,.565-.155c.249-.167,2.4.251,3.345.183.072.418.121.71.121.71S343.76,304.716,343.561,305.248Z" transform="translate(-330.92 -297.693)" fill="#ababab" style="mix-blend-mode:multiply;isolation:isolate"/><path d="M303.59,295s-1,.089-2.155.182c-1.117.092-2.374.189-2.99.213-1.251.051-3.3-.438-3.9-.434s-.855.18-2.666.467-2.551-.094-3.89.107-3.384.432-3.384.432a4.737,4.737,0,0,1,.922-3.982v0a3.467,3.467,0,0,1,1.715-1.248,14.151,14.151,0,0,1,1.905.384c.161.116,2.282.023,2.852.108a27.747,27.747,0,0,0,3.321-.114,20.29,20.29,0,0,1,5.81,1.294A3.3,3.3,0,0,1,303.59,295Z" transform="translate(-275.507 -288.678)" fill="#f2b48a"/><path d="M309.364,298.537c-1.117.092-2.374.189-2.99.213-1.251.051-3.3-.438-3.9-.434s-.855.181-2.666.467-2.551-.094-3.89.107-3.384.432-3.384.432a4.738,4.738,0,0,1,.922-3.982,6.2,6.2,0,0,0-.5,1.878c-.032,1.077,1.742.434,2.188.287a20.407,20.407,0,0,1,3.113-.1c.072.024,1.4.665,1.4.665a18.823,18.823,0,0,1,3-.664c.743,0,1.624.313,2.89.5s3.685.258,3.685.258A1.251,1.251,0,0,1,309.364,298.537Z" transform="translate(-283.436 -292.031)" fill="#edc0af" style="mix-blend-mode:multiply;isolation:isolate"/><path d="M354.456,311.25a.069.069,0,0,1-.016-.009s0,0,0,0S354.454,311.246,354.456,311.25Z" transform="translate(-345.38 -303.608)" fill="#f2b48a"/><path d="M280.274,295.08a1.919,1.919,0,0,1-.625.168c-.251,0-1.556.011-1.556.011s-1.035-.244-1.875-.517-4.447-1.219-4.447-1.219,1.663,1.092,1.533,1.859-1.533,2.042-1.533,2.042,4.808-.124,5.275-.131a4.63,4.63,0,0,1,1.466.185,5.889,5.889,0,0,0,1.475.32c.475.021.84-1.305.84-1.305Z" transform="translate(-249.281 -290.708)" fill="#fff"/><path d="M372.792,316.734c-.591.1-1.005.168-1.061.179a1.306,1.306,0,0,1-.539-.056,3.869,3.869,0,0,1-.813-.516,1.912,1.912,0,0,1-.384-.657c-.029-.154-.375-.52-.444-.675s-.315-.66-.315-.66l-.521-.316a3.594,3.594,0,0,0-.682-.474c-.2-.067-.853-1.047-.853-1.047l.244-.911c.164-.152.272-.248.272-.248l.459.673.864-1.432-.492,1.512a8.272,8.272,0,0,0,.709.57,5.725,5.725,0,0,0,.829-.159c.421-.072-.222.495-.275.6a4.433,4.433,0,0,1-.577.487l.249.212,2.162-.1-.892.6s-1.2-.093-1.149.1.812.5.812.5l1.168.261A3.363,3.363,0,0,1,372.792,316.734Z" transform="translate(-367.179 -303.14)" fill="#ababab" style="mix-blend-mode:multiply;isolation:isolate"/><path d="M348.327,325.811l.1-.321-.433-.535a1.209,1.209,0,0,0-.772-.2C346.709,324.764,348.327,325.811,348.327,325.811Z" transform="translate(-337.368 -313.449)" fill="#ababab" style="mix-blend-mode:multiply;isolation:isolate"/><path d="M353.866,309.038a2.718,2.718,0,0,1-.671-.129c-.164-.106-.852-.728-.852-.728s-1.3-.889-1.444-1.067a.9.9,0,0,1-.127-.506s-.031-.354-.167-.464a7.028,7.028,0,0,1-.171-1.632,4.294,4.294,0,0,0,.292,1.3c.169.135.218.27.281.236s.613-.371.613-.371l.685.382c.353.2.479.266.519.285.357,1.221.977,1.489,1.105,1.532a4.807,4.807,0,0,0-.478-.117v0a3.711,3.711,0,0,0,.1.855S353.691,308.8,353.866,309.038Z" transform="translate(-343.763 -298.709)" fill="#ababab" style="mix-blend-mode:multiply;isolation:isolate"/><path d="M322.251,335.32c-.145.2-.19.3-.343.346a2.136,2.136,0,0,1-.672,0,43.432,43.432,0,0,1-5.977-1.163,37.672,37.672,0,0,1-3.886-2.086c-.412-.2-1.234-.734-1.423-.849s-3.088-2.332-4.312-3.182a5.156,5.156,0,0,1-1.24-1.362,3.434,3.434,0,0,1-.5-.8,2.261,2.261,0,0,1,.083-.833c.008-.06.025-.13.081-.151s.076.012.117.011a.361.361,0,0,0,.106-.028,1.151,1.151,0,0,1,.257-.047,1.934,1.934,0,0,1,.527.039,1.232,1.232,0,0,0,.131.024,1.555,1.555,0,0,0,.346-.036.648.648,0,0,1,.308.035,1.156,1.156,0,0,0,.4-.013c.142-.014.283-.038.423-.063l1.331-.228a11.635,11.635,0,0,1,1.327-.175,3.327,3.327,0,0,1,.85.014.73.73,0,0,1,.2.077.426.426,0,0,1,.139.12c.416.567.7,1.225,1.14,1.78.451.572,2.115,2.268,2.263,2.381a4.992,4.992,0,0,0,1.5,1.071,29.25,29.25,0,0,1,3.591,1.276c1.042.511,3.893,1.983,3.893,1.983A9.8,9.8,0,0,1,322.251,335.32Z" transform="translate(-300.088 -313.439)" fill="#f2b48a"/><path d="M325.587,335.665a2.136,2.136,0,0,1-.672,0,43.432,43.432,0,0,1-5.977-1.163,37.68,37.68,0,0,1-3.886-2.086c-.412-.2-1.234-.734-1.423-.849s-3.088-2.332-4.312-3.182a5.154,5.154,0,0,1-1.24-1.362,3.437,3.437,0,0,1-.5-.8,2.261,2.261,0,0,1,.083-.833c.008-.06.025-.13.081-.151s.076.012.117.011a.361.361,0,0,0,.106-.028,1.151,1.151,0,0,1,.257-.047,1.934,1.934,0,0,1,.527.039,1.233,1.233,0,0,0,.131.024,1.555,1.555,0,0,0,.346-.036.648.648,0,0,1,.309.035,1.156,1.156,0,0,0,.4-.013c.142-.014.283-.038.423-.063l1.331-.228a11.641,11.641,0,0,1,1.327-.175,3.327,3.327,0,0,1,.851.014.73.73,0,0,1,.2.077,11.7,11.7,0,0,0-2.6.292c-.668.26-2.092.195-2.647.492s-.906.317-.888.587a10.13,10.13,0,0,0,2.845,2.677c1.475,1.012,2.781,1.808,3.111,2.1a4.213,4.213,0,0,0,1.2,1.052,2.422,2.422,0,0,0,1.477.11l.22.549a6.813,6.813,0,0,0,2.371,1.356,24.249,24.249,0,0,0,4.155.688,18.3,18.3,0,0,1,2,.428A1.4,1.4,0,0,1,325.587,335.665Z" transform="translate(-303.767 -313.439)" fill="#edc0af" style="mix-blend-mode:multiply;isolation:isolate"/><path d="M289.887,350.773a14.09,14.09,0,0,1,.129,2.153c-.08.451-1.832,1.176-1.832,1.176s4.907.861,5.435,1.033a4,4,0,0,1,1.5.739,2.772,2.772,0,0,1,.646,1.644c.045.678,1.236.442,1.494-.921a4.46,4.46,0,0,0,.005-2.095,1.421,1.421,0,0,0-.512-.711,3.641,3.641,0,0,0-.689-.37c-.152-.063-.773-.437-.773-.437s-1.369-.4-1.76-.546S290.1,350.88,289.887,350.773Z" transform="translate(-270.289 -332.397)" fill="#fff"/><path d="M286.345,360.076a3.38,3.38,0,0,1,.52,1.3,3.134,3.134,0,0,1-.311,1.16c-.082.212-.216.46-.424.486a.843.843,0,0,0-.366.146,1.213,1.213,0,0,0,.013.253,9.229,9.229,0,0,1,.376,1.692c-.017.379.081,1.021.418,1.065s.734-.159,1.1-.676.552-.431.556-.974-.038-.822-.023-.949.03-.786.03-.786a.98.98,0,0,1-.087-.466c.03-.216.089-.926.085-.994a7.4,7.4,0,0,0-.456-.719l-.856-.345Z" transform="translate(-260.493 -339.172)" fill="#fa2d2d"/><path d="M268.571,295.849s.19-.208-.138-.246-.666.382-.666.382a3.446,3.446,0,0,0-.408.57c-.118.24-.295.66-.295.66l.04.53.343,1.067.1.5a10.72,10.72,0,0,0,1.337.011c.2-.053.508-.185.681-.216s.095-.7-.011-.946Z" transform="translate(-236.845 -292.221)" fill="#fa2d2d"/></g><g transform="translate(5.134 1.828)"><path d="M381.95,276.936l-1.39-.89a12.885,12.885,0,0,1-2.477-1.458c-.6-.587-2.564-2.121-3.041-2.471s-1.959-1.653-1.959-1.653l-1.633-1.122-.059-.048v0l-.816-.69-.086-.071-.646-1.224s-.6-1.6-.641-1.8a7.216,7.216,0,0,0-.338-.822l.053-.062.009-.01a2.972,2.972,0,0,1,.417-.422l.024-.007c.068-.02.242-.059.407-.095l.014,0c.184-.04.355-.075.355-.075a2.855,2.855,0,0,0,.27-.457,1.929,1.929,0,0,1,.391-.781,3.66,3.66,0,0,1,.55-.531,10.028,10.028,0,0,0,1.095-.992,9.335,9.335,0,0,1,1.072-.968l.344-.175a7.079,7.079,0,0,0,.954-1.022c.067-.205,1.586.334,1.586.334s2.9.686,3.533,2.119a9.157,9.157,0,0,0,.932,1.785l.7.743.2.23,1.017.362a13.924,13.924,0,0,1,1.6.28,6.566,6.566,0,0,0,.917.207,7.187,7.187,0,0,1-1.183,1.219,3.712,3.712,0,0,0-1.1,1.1c-.174.307-.868,3.274-1.075,3.677a31.659,31.659,0,0,0-.983,3.16,5.93,5.93,0,0,0,.642,1.934l.129.262Z" transform="translate(-355.907 -245.741)" fill="#4fa1ff"/><path d="M413.315,261.955a2.1,2.1,0,0,1-.993.1.258.258,0,0,1-.176-.174c-.111-.423-.692-.8-1.483-1.72a1.052,1.052,0,0,1-.314-.727c.02-.53.634-.927,1.311-1.253a5.405,5.405,0,0,1,2.478-.534,8.248,8.248,0,0,1,.2.825,4.52,4.52,0,0,0,.26.562.956.956,0,0,0,.507.323C415.559,260.359,413.315,261.955,413.315,261.955Z" transform="translate(-397.042 -244.705)" fill="#f2b48a"/><path d="M416.226,263.446l.954.418-.608.569a.258.258,0,0,1-.176-.174c-.111-.423-.692-.8-1.484-1.72a1.052,1.052,0,0,1-.314-.727l3.659-.93a3.165,3.165,0,0,1-.636,1.389,6.151,6.151,0,0,1-1.311.665l-.47.112Z" transform="translate(-401.293 -247.082)" fill="#edc0af" style="mix-blend-mode:multiply;isolation:isolate"/><path d="M410.81,264.962a2.494,2.494,0,0,0,.553-.382,4.241,4.241,0,0,0,.549-.657c.078-.157.312-.59.223-.686s.072-.176-.26-.392a.74.74,0,0,1,.519-.22,1.014,1.014,0,0,1,.219,1.116,8.793,8.793,0,0,1-.831,1.6l-.653-.213-.051.814a2.252,2.252,0,0,1-1.09.221,1.791,1.791,0,0,1-.924-.588,3.119,3.119,0,0,1-.2-.64,3.288,3.288,0,0,0,.844.373C410.092,265.4,410.81,264.962,410.81,264.962Z" transform="translate(-394.162 -248.352)" fill="#ff4f42"/><path d="M420.032,247.338a5.77,5.77,0,0,1-1.009,1.5s-.5.144-.929.253h0a5.375,5.375,0,0,1-.531.12,1.784,1.784,0,0,1-1.012-.164,5.207,5.207,0,0,1-1.294-1.153,1.945,1.945,0,0,1-.147-.224v0c-.124-.211-.261-.488-.363-.7v-.006c-.094-.2-.16-.35-.16-.35s-.151-.361-.279-.783a3.5,3.5,0,0,1-.186-.923,2.94,2.94,0,0,1,.544-1.274c.137-.21.245-.353.245-.353a10.632,10.632,0,0,1,1.856-.781.629.629,0,0,1,.217.031s0,0,0,0a4.553,4.553,0,0,1,1.333.808,4.11,4.11,0,0,1,.675.681,5.726,5.726,0,0,1,.632,1.155c.2.464.317.844.317.844a2.359,2.359,0,0,1,.145,1.095A1.466,1.466,0,0,1,420.032,247.338Z" transform="translate(-403.008 -233.692)" fill="#f2b48a"/><path d="M414.534,250.912a1.8,1.8,0,0,0,.01.491,3.605,3.605,0,0,1,.075.484s-.083.158-.127.122a5.255,5.255,0,0,1-.282-.454,1.523,1.523,0,0,0-.117-.407.913.913,0,0,1-.184-.362.738.738,0,0,1,.115-.44.288.288,0,0,1,.413.181A1.725,1.725,0,0,1,414.534,250.912Z" transform="translate(-397.467 -239.385)" fill="#ffc59e"/><path d="M423.825,245.364s-.928.266-.98.464a1.728,1.728,0,0,0,.018.865,3.08,3.08,0,0,1,.008.937,2.735,2.735,0,0,0,.48.826c.351.421.556.908.807.762a2.2,2.2,0,0,0,.535-.632,4.179,4.179,0,0,0-.074-.444c-.018-.006-.446.229-.641.166a4.246,4.246,0,0,1-.558-.272s-.34-.281-.344-.339a3.39,3.39,0,0,1,.193-.977,7.025,7.025,0,0,1,1.312-.406s.238.419.278.488.247.515.247.515-.153.087.041.12.5-.243.5-.243l-.4-.266-.274-.465-.2-.269,1.029-.494.066-.8-.49-.273S424.018,245.256,423.825,245.364Z" transform="translate(-411.134 -235.25)" fill="#ffc59e"/><path d="M414.886,242.5l-.445.981.17.938s.154.2.321.41c.112.147.232.3.311.412.04.057.069.1.083.125a7.592,7.592,0,0,0,.632.665c.031.043.719,1.111.719,1.111l1.036.76,1.009.192h0a5.4,5.4,0,0,1-.531.12,1.784,1.784,0,0,1-1.012-.164,5.207,5.207,0,0,1-1.294-1.153,1.955,1.955,0,0,1-.147-.224c-.017.092-.033.187-.033.187s-.278-.091-.292-.186-.68-1.186-.68-1.186a2.645,2.645,0,0,1-.593-1.8,3.545,3.545,0,0,1,1.843-2.314,2.825,2.825,0,0,1,.718-.247,2.135,2.135,0,0,1,.245.079,6.1,6.1,0,0,1,.666.324s0,0,0,0c.483.268,1.02.6,1.333.808l.271.176.687.472a9.035,9.035,0,0,1,.4.969.444.444,0,0,1-.05.22c.2.465.317.844.317.844a2.358,2.358,0,0,1,.145,1.095c-.035-.053-.064-.1-.084-.133a9.5,9.5,0,0,0-1.486-1.154s-.866-.407-1.193-.592-.955-.652-.955-.652l-1.164-.722-.178-.111Z" transform="translate(-403.637 -232.696)" fill="#edc0af" style="mix-blend-mode:multiply;isolation:isolate"/><path d="M393.633,252.89a1.654,1.654,0,0,0-.073.688c.074.191.313,1.086.313,1.086l.347.748-1.9-.346s-1.057-.193-1.5-.335a6.1,6.1,0,0,1-.936-.426s-1.4-.647-1.281-.766.494-.58.494-.58l.305-.567s1.866-1.829,2.618-1.766.932,1.136,1.12,1.394S393.781,252.621,393.633,252.89Z" transform="translate(-370.189 -239.613)" fill="#4191e0"/><path d="M425.041,282.816l-.4-.175s-.625-.187-1.153-.3a3.376,3.376,0,0,0-.5-.075c-.492-.024-2.951-2.368-2.951-2.368l1.044-1.4.673-.159a1.4,1.4,0,0,0,.381-.194l.428,0,.009-.01.417-.422.024-.007.407-.095.014,0-.1,1.851a11.847,11.847,0,0,0,.859,1.991,6.171,6.171,0,0,1,.473.713h0c.19.321.35.615.368.648Z" transform="translate(-409.556 -259.264)" fill="#4191e0"/><path d="M421.825,243.989c-.031.066-.061.12-.061.12l-.223-.391-.544-.666a1.782,1.782,0,0,1-.549-.406c-.24-.271-.324-.5-.493-.649a3.488,3.488,0,0,0-.981-.263,3.092,3.092,0,0,0-.909.454c-.182.213-.216.351-.58.46a.666.666,0,0,0-.08.027,2.027,2.027,0,0,0-.563.307,4.678,4.678,0,0,0-.191,1.038c.037.239.19.812.19.812l-.025.223-.012.1.141.616v.006a4.131,4.131,0,0,1,.395.55c-.006.018-.018.085-.032.155v0c-.017.092-.033.187-.033.187s-.277-.091-.292-.186-.68-1.186-.68-1.186a2.645,2.645,0,0,1-.593-1.8,3.545,3.545,0,0,1,1.843-2.314,2.823,2.823,0,0,1,.718-.247,3.144,3.144,0,0,1,2.081.258,4.03,4.03,0,0,1,1.126,1.6,9.022,9.022,0,0,1,.4.969A.443.443,0,0,1,421.825,243.989Z" transform="translate(-405.209 -232.509)" fill="#704125"/><path d="M393.306,302.493l-1.39-.89a12.882,12.882,0,0,1-2.477-1.458c-.6-.587-2.564-2.121-3.041-2.471s-1.959-1.653-1.959-1.653l-1.633-1.122-.059-.048-.4-.175s-.625-.187-1.153-.3l.5-.242.238.021.446.042h0l1.795,1.243,3.331,2.741-.584-1.347s2.381,1.545,2.437,1.654.474.565.641.822.667.808.846,1.093,1.208.62,1.208.62l1.037,1.026Z" transform="translate(-367.263 -271.299)" fill="#ababab" style="mix-blend-mode:multiply;isolation:isolate"/><path d="M430.763,259.5s-.315-.091-.341-.023a1.658,1.658,0,0,0-.022.328s.483.628.575.76.2.316.339.337a.323.323,0,0,0,.235-.06.721.721,0,0,0-.135-.317c-.116-.151-.2-.307-.281-.409S430.763,259.5,430.763,259.5Z" transform="translate(-418.88 -246.038)" fill="#ffc59e"/><path d="M439.974,252.512l-1.759-.158a7.028,7.028,0,0,1-2.035-.721c-.58-.312-2.636-1.288-2.865-1.454a5.864,5.864,0,0,1-1.356-1.974c-.441-1.017-.932-3.38-1.238-4.353a12.937,12.937,0,0,0-.71-1.865c-.129-.235-.764-.441-.764-.441l-.831-.6-.65-.128s-.479-.2-.512-.223-.731-.249-.814-.322a.105.105,0,0,1-.037-.083.255.255,0,0,1,.041-.126s.028-.069.2-.071a3.92,3.92,0,0,1,.615.115s.947.127.978.12.063-.127.063-.127-.413-.3-.439-.308-.485-.356-.643-.447a4.206,4.206,0,0,1-.508-.443c-.059-.054-.066-.121-.016-.163a.3.3,0,0,1,.259-.025,3.237,3.237,0,0,1,.829.417c.2.121.728.482.728.482l.149-.072.058-.179s-.1-.147-.113-.157-.921-.959-1-1.022-.3-.307-.259-.442a.092.092,0,0,1,.048-.057.686.686,0,0,1,.338-.044s.908.755.922.776.706.481.706.481l.2-.206.085-.087-.077-.17-.37-.809s-.4-.534-.363-.732.256-.229.444,0,.621.725.621.725.567,1.171.63,1.34,1.074,1.042,1.142,1.358a19.942,19.942,0,0,0,.922,2.559c.322.666,2.473,4.757,2.536,4.892a.781.781,0,0,0,.36.335,17.106,17.106,0,0,1,3.047.855,3.448,3.448,0,0,1,.687.894,6.558,6.558,0,0,0,.583,1.245l0,.007a0,0,0,0,1,0,0c.117.138.41.315.332.659S439.974,252.512,439.974,252.512Z" transform="translate(-426.402 -229.494)" fill="#f2b48a"/><path d="M459.216,242.078c-.148.292-.372.68-.632.686a1.431,1.431,0,0,1-.6-.2,1.338,1.338,0,0,1-.295-.466,7.215,7.215,0,0,1,.087-1.009l.446-.445.038-.335s-.181-.46-.231-.62.154-.45.219-.532a.122.122,0,0,1,.071-.04h0a.269.269,0,0,1,.29.214c.085.242.232.873.253.971a9.983,9.983,0,0,1,.367,1.1C459.244,241.624,459.365,241.785,459.216,242.078Z" transform="translate(-454.035 -231.233)" fill="#f2b48a"/><path d="M470.6,244.716a4.212,4.212,0,0,1-.508-.443c-.059-.054-.066-.121-.016-.163l.313.311.6.43.5.365.2.256s-.413-.3-.439-.308S470.753,244.807,470.6,244.716Z" transform="translate(-469.782 -234.869)" fill="#edc0af" style="mix-blend-mode:multiply;isolation:isolate"/><path d="M467.6,240.288a.091.091,0,0,1,.048-.057l.55.716.639.582.382.295-.17.07-.137.193.058-.179s-.1-.147-.112-.157-.921-.959-1-1.022S467.558,240.423,467.6,240.288Z" transform="translate(-466.651 -232.044)" fill="#edc0af" style="mix-blend-mode:multiply;isolation:isolate"/><path d="M465.337,237.316l.431.578.309.687-.006.276-.37-.809S465.3,237.514,465.337,237.316Z" transform="translate(-462.902 -229.922)" fill="#edc0af" style="mix-blend-mode:multiply;isolation:isolate"/><path d="M439.974,261.775l-1.759-.158a7.022,7.022,0,0,1-2.035-.721c-.58-.312-2.636-1.288-2.865-1.454a5.865,5.865,0,0,1-1.356-1.974c-.441-1.017-.932-3.38-1.238-4.353a12.934,12.934,0,0,0-.71-1.865c-.129-.235-.764-.441-.764-.441l-.831-.6-.65-.128s-.479-.2-.512-.223-.731-.249-.814-.322a.105.105,0,0,1-.037-.083l.313.105s1.3.409,1.384.45.391.127.391.127a4.563,4.563,0,0,0,.814.535,1.1,1.1,0,0,0,.824.118s.273.1.233.227a4.045,4.045,0,0,0,.17.907c.08.413.784,2.333,1.118,3.4a9.68,9.68,0,0,0,1.737,3.418,4.568,4.568,0,0,0,1.689.735s1.178.565,1.857.922a6.344,6.344,0,0,0,2.353.766c.553.029.562-.511.527-.8.117.138.41.315.332.659S439.974,261.775,439.974,261.775Z" transform="translate(-426.402 -238.756)" fill="#edc0af" style="mix-blend-mode:multiply;isolation:isolate"/><path d="M460.764,242.582a1.338,1.338,0,0,1-.295-.466,7.193,7.193,0,0,1,.087-1.009l.446-.445.038-.335s-.181-.46-.23-.62.154-.45.219-.532a.122.122,0,0,1,.071-.04.489.489,0,0,0-.152.373,9.038,9.038,0,0,1,.366,1.292c-.035.223-.246.359-.415.622s-.178.245-.155.478A2.26,2.26,0,0,1,460.764,242.582Z" transform="translate(-456.816 -231.246)" fill="#edc0af" style="mix-blend-mode:multiply;isolation:isolate"/><path d="M408.415,223.988c-.085.123-.257.3-1.026.57s-2.066-.627-2.145-.7-.8-1.089-1.123-1.5a21.106,21.106,0,0,1-1.032-2.007c-.211-.374-.408-.336-1.125-.786s-3.611-2.316-4.593-2.873a3.672,3.672,0,0,0-1.52-.591,7.565,7.565,0,0,1-1.346-.467,2.228,2.228,0,0,0-.781-.134,5.893,5.893,0,0,1-.837-.058c-.154-.05-.638-.133-.751-.17a.123.123,0,0,1-.076-.1.229.229,0,0,1,.061-.221,2.344,2.344,0,0,1,.51-.083,4.428,4.428,0,0,1,.564.024,1.717,1.717,0,0,0,.627-.039c.132-.037.428-.411.428-.411l.04-.229.048-.282-.245-.437s-.938-.85-.984-.9-.609-.607-.514-.792a.2.2,0,0,1,.082-.086.307.307,0,0,1,.3.053c.072.058,1.173,1,1.179,1.02a.893.893,0,0,0,.162.093l.317-.26-.074-.195v0l-.454-1.2a2.536,2.536,0,0,1-.1-.755l.009-.011a.371.371,0,0,1,.363-.038c.036.052.31.656.31.656l.219.493.222.417-.147-1.586a1.681,1.681,0,0,1,.077-.193.218.218,0,0,1,.067-.094.262.262,0,0,1,.247.08c.034.058.126.411.139.455,0,0,0,0,0,0s.043-.042.086-.09.221-.048.221-.048a.279.279,0,0,1,.138.119,4.91,4.91,0,0,1,.173.652s.163,1.188.164,1.2.024.382.031.43.472,1.062.572,1.2a1.1,1.1,0,0,0,.4.343,25.027,25.027,0,0,0,2.575,1.156c1.362.558,3.733,1.466,4.255,1.748a5.546,5.546,0,0,1,1.612,1.569c.362.561,1.248,1.747,1.861,2.613a4.816,4.816,0,0,1,.57,1.1,5.2,5.2,0,0,1,.242.807S408.5,223.865,408.415,223.988Z" transform="translate(-385.359 -210.111)" fill="#f2b48a"/><path d="M443.268,212.175a2.534,2.534,0,0,1-.1-.755l.009-.011.136.5.223.537.19.923Z" transform="translate(-434.517 -211.055)" fill="#edc0af" style="mix-blend-mode:multiply;isolation:isolate"/><path d="M444.215,216.9c-.046-.049-.609-.607-.514-.792a.2.2,0,0,1,.082-.086l-.019.136.541.71.893.744.324.5-.127.406.048-.282-.245-.437S444.26,216.949,444.215,216.9Z" transform="translate(-436.464 -214.415)" fill="#edc0af" style="mix-blend-mode:multiply;isolation:isolate"/><path d="M440.648,212.265l-.147-1.586a1.671,1.671,0,0,1,.078-.193l.108,1.014.117.9-.084.392Z" transform="translate(-430.879 -210.384)" fill="#edc0af" style="mix-blend-mode:multiply;isolation:isolate"/><path d="M436.546,213.494s-.068-1.259-.066-1.611c0,0,.043-.042.086-.09l.132.5v.975l-.014.461.044.072-.095.5a3.67,3.67,0,0,0,.079.456c.031.077.1.693.1.693l.028.645a.238.238,0,0,0,.209.055.223.223,0,0,1,.208.091l.1.237-.257.1a2.056,2.056,0,0,1-.294-.061c-.035-.022-.407-.541-.407-.541s.08-.8.071-.954-.049-1.138-.049-1.138Z" transform="translate(-426.328 -211.336)" fill="#edc0af" style="mix-blend-mode:multiply;isolation:isolate"/><path d="M408.41,237.506c-.085.123-.257.3-1.026.57s-2.066-.627-2.145-.7-.8-1.089-1.123-1.5a21.089,21.089,0,0,1-1.032-2.007c-.211-.374-.408-.336-1.125-.785s-3.611-2.316-4.593-2.873a3.672,3.672,0,0,0-1.52-.591,7.567,7.567,0,0,1-1.346-.467,2.228,2.228,0,0,0-.781-.134,5.9,5.9,0,0,1-.837-.058c-.154-.05-.638-.133-.751-.17a.123.123,0,0,1-.076-.1l.08-.017.926.223a10.273,10.273,0,0,1,1.245-.094c.321.024.983.467,1.426.569a8.74,8.74,0,0,0,1.092.145,3.9,3.9,0,0,1,1.135.58c.658.457,2.327,1.616,3.78,2.452a5.8,5.8,0,0,0,1.973.869s.643.455.51.711c-.047.09-.394.144-.394.144l.6,1.241,1.02,1.391a5.955,5.955,0,0,1,.771.191c.4.129,1.18.37,1.18.37s.642-.064.7-.228a8.359,8.359,0,0,0,.059-1.068,5.2,5.2,0,0,1,.242.807S408.5,237.383,408.41,237.506Z" transform="translate(-385.354 -223.629)" fill="#edc0af" style="mix-blend-mode:multiply;isolation:isolate"/></g><g transform="translate(0 0)"><g transform="translate(0)"><path d="M467.178,211.805l-1.594,1.549s.345,1.71.463,2.012l.118.3s1.976.6,2.077.612-.086.007.024.007a3.608,3.608,0,0,0,1.025-.87,8.552,8.552,0,0,0,.608-.709,4,4,0,0,0-.182-1.227,7.436,7.436,0,0,0-.352-.965A4.878,4.878,0,0,0,467.178,211.805Z" transform="translate(-461.66 -209.517)" fill="#e6e2c9"/><path d="M466.308,215.552c-.1-.268-.4-1.7-.451-1.96l1.537-1.494a10.3,10.3,0,0,1,1.311.319,2.69,2.69,0,0,1,.793.359,8,8,0,0,1,.341.941,4.037,4.037,0,0,1,.179,1.18c-.047.062-.221.285-.589.684a4.438,4.438,0,0,1-.961.843l-.025,0c-.081-.012-1.246-.361-2.03-.6Z" transform="translate(-461.851 -209.73)" fill="#f0ecd2"/><path d="M488.79,209.988a4.827,4.827,0,0,0-.668.616,6.572,6.572,0,0,0-.613.9l-.1-.052c-.146-.079-.412-.225-.459-.264l-.063-.054a1.152,1.152,0,0,1-.031-.358c.019-.105.042-.207.068-.313a4.906,4.906,0,0,1,1.432-2.405.644.644,0,0,1,.244-.04,1.89,1.89,0,0,1,.3.057c.177.047.329.1.329.1s-.011.01-.013.014a.1.1,0,0,1-.012.014.058.058,0,0,0-.012.02,1.282,1.282,0,0,0-.075.142,1.93,1.93,0,0,0-.08.189c-.02.045-.037.1-.054.151a3.69,3.69,0,0,0-.2,1.2C488.791,209.962,488.79,209.988,488.79,209.988Z" transform="translate(-486.775 -206.759)" fill="#cfc8ad"/><path d="M487.8,211.586c-.233-.126-.417-.231-.448-.256l-.044-.038a1.258,1.258,0,0,1-.023-.315c.018-.093.04-.193.066-.3a4.841,4.841,0,0,1,1.4-2.358.56.56,0,0,1,.2-.032,1.882,1.882,0,0,1,.289.055c.068.018.133.038.187.055l.045.015c-.013.021-.035.063-.062.121a1.93,1.93,0,0,0-.082.2c-.019.043-.037.1-.055.153a3.761,3.761,0,0,0-.2,1.226v.038a4.764,4.764,0,0,0-.65.6,6.169,6.169,0,0,0-.585.851Z" transform="translate(-487.128 -206.957)" fill="#d9d2b6"/><path d="M479.578,203.536a3.614,3.614,0,0,0-.6.347,1.157,1.157,0,0,0-.338.368,4.484,4.484,0,0,0-1.353.209,3.3,3.3,0,0,0-.565.221c-.045.027-.083.048-.113.067-.007.005-.016.01-.02.014s-.035.028-.047.039l-.007.005s-.153-.057-.329-.1a1.894,1.894,0,0,0-.3-.057.645.645,0,0,0-.244.04,4.925,4.925,0,0,1,3.591-1.293.014.014,0,0,1,.01,0l.021.007A.643.643,0,0,1,479.578,203.536Z" transform="translate(-474.076 -203.386)" fill="#e5dfc0"/><path d="M476.224,204.771a4.872,4.872,0,0,1,3.342-1.1l.017.005.072.021a.84.84,0,0,1,.089.034,3.373,3.373,0,0,0-.492.3,1.372,1.372,0,0,0-.336.352,4.657,4.657,0,0,0-1.332.213,3.327,3.327,0,0,0-.579.227l-.124.074-.042.033-.1-.034c-.055-.018-.123-.039-.2-.058a2,2,0,0,0-.314-.059Z" transform="translate(-474.395 -203.585)" fill="#efe9c9"/><path d="M465.325,206.071h0a4.88,4.88,0,0,1,2.188.711h0l.2-.24a6.946,6.946,0,0,1,.665-.624,2.76,2.76,0,0,0-.422-.735,2.61,2.61,0,0,0-.637-.615s-.051-.105-.8-.389a3.088,3.088,0,0,0-1.213-.247,3.575,3.575,0,0,0-.6.347,1.158,1.158,0,0,0-.34.368l.337.41A5.657,5.657,0,0,1,465.325,206.071Z" transform="translate(-459.806 -203.782)" fill="#f0ebd0"/><path d="M465.607,206.2a5.559,5.559,0,0,0-.612-.994l-.3-.37a1.25,1.25,0,0,1,.295-.3,3.528,3.528,0,0,1,.573-.333,2.937,2.937,0,0,1,.959.17c.067.022.137.046.209.074a2.47,2.47,0,0,1,.762.362l.01.02h.012a2.566,2.566,0,0,1,.617.6,2.973,2.973,0,0,1,.393.667,6.4,6.4,0,0,0-.634.6l-.155.186a3.194,3.194,0,0,0-.8-.353A10.518,10.518,0,0,0,465.607,206.2Z" transform="translate(-460.038 -203.981)" fill="#faf5d9"/><path d="M463.885,223.734a5.343,5.343,0,0,0,.007-.882l-.047-.029a2.154,2.154,0,0,0-.222-.073c-.3-.086-.99-.267-.99-.267h0v0a8.557,8.557,0,0,1-.608.709,3.7,3.7,0,0,1-1.022.87h0a3.343,3.343,0,0,1,.043.941,4.929,4.929,0,0,1-.149.911l.32.1a2.808,2.808,0,0,0,.858.052s.49-.338.834-.64a3.988,3.988,0,0,0,.663-.873A4.81,4.81,0,0,0,463.885,223.734Z" transform="translate(-454.392 -217.292)" fill="#ddd9c1"/><path d="M461.166,226.1a5.425,5.425,0,0,0,.133-.856,3.684,3.684,0,0,0-.032-.9,4.927,4.927,0,0,0,.995-.87c.342-.37.518-.589.583-.675.162.043.689.182.94.254l.123.037c.042.014.07.024.09.033l0,0a4.932,4.932,0,0,1-.008.826,4.809,4.809,0,0,1-.311.8,3.938,3.938,0,0,1-.645.85c-.3.265-.724.562-.811.623a2.655,2.655,0,0,1-.81-.051Z" transform="translate(-454.575 -217.522)" fill="#e7e3ca"/><path d="M482.98,217.886c-.118-.3-.463-2.012-.463-2.012s-.123-.025-.9-.281-1.007-.327-1.007-.327a4.973,4.973,0,0,0-.669.615,6.63,6.63,0,0,0-.612.9,4.653,4.653,0,0,0,.133.952,6.811,6.811,0,0,0,.37,1.111,6.226,6.226,0,0,0,.634.341c.366.171,1.181.426,1.181.426s.185-.211.792-.782.66-.644.66-.644Z" transform="translate(-478.593 -212.037)" fill="#ddd9c1"/><path d="M481.752,219.713c-.268-.087-.756-.251-1.016-.372a6.41,6.41,0,0,1-.606-.325,6.859,6.859,0,0,1-.356-1.077,4.837,4.837,0,0,1-.131-.917,6.423,6.423,0,0,1,.593-.873,4.883,4.883,0,0,1,.628-.582l.438.141.706.231c.424.138.611.193.687.214.057.279.348,1.7.457,1.979l.1.26c-.053.055-.2.21-.625.605-.472.443-.688.669-.764.75Z" transform="translate(-478.833 -212.257)" fill="#e7e3ca"/><path d="M483.886,230.672s-.059.126-.131.251a.768.768,0,0,1-.183.229l-.018.01-.028.014a.185.185,0,0,0-.027.012.9.9,0,0,1-.117.048c-.03.011-.062.024-.1.035,0,0-1.266-.545-1.471-.7a4.085,4.085,0,0,1-1.277-1.444,1.326,1.326,0,0,1,.121-.3,2.467,2.467,0,0,1,.289-.392l0,0a6.279,6.279,0,0,0,.634.341c.365.171,1.182.429,1.182.429a4.326,4.326,0,0,0,.661.945Z" transform="translate(-479.707 -221.627)" fill="#cfc8ad"/><path d="M483.531,231.446a15.69,15.69,0,0,1-1.431-.677,4.038,4.038,0,0,1-1.244-1.391,1.5,1.5,0,0,1,.109-.26,1.991,1.991,0,0,1,.24-.332,6.545,6.545,0,0,0,.589.313c.286.134.846.321,1.074.395l.087.028a4.54,4.54,0,0,0,.658.933l.431.485c-.023.047-.062.124-.107.2a.639.639,0,0,1-.157.2l-.068.033a.805.805,0,0,1-.109.045Z" transform="translate(-479.953 -221.882)" fill="#d9d2b6"/><path d="M471.373,235.5a4.895,4.895,0,0,1-3.506.752l-.028-.025a2.275,2.275,0,0,1-.192-.182l-.036-.035a.768.768,0,0,0,.183-.229c.072-.124.131-.251.131-.251a3.6,3.6,0,0,0,1.257-.079c.584-.168,1.067-.343,1.067-.343l.32.1a2.007,2.007,0,0,0,.533.062c.183,0,.326-.011.326-.011C471.456,235.281,471.419,235.393,471.373,235.5Z" transform="translate(-463.747 -226.488)" fill="#cfc8ad"/><path d="M468.093,236.385a2.284,2.284,0,0,1-.17-.158,1.35,1.35,0,0,0,.138-.193c.047-.081.088-.161.112-.21a3.58,3.58,0,0,0,1.233-.087c.507-.146.943-.3,1.048-.336l.3.094a2.1,2.1,0,0,0,.555.065c.1,0,.191,0,.251-.005-.008.026-.02.063-.039.111a4.816,4.816,0,0,1-3.413.731Z" transform="translate(-463.951 -226.698)" fill="#d9d2b6"/><g transform="translate(0 0.008)"><path d="M478.485,206.975l-.337-.41a4.446,4.446,0,0,0-1.351.209c-.747.232-.788.4-.788.4a2.711,2.711,0,0,0-.3.827,5.407,5.407,0,0,0-.107.933s.229.071,1.007.327.9.281.9.281l1.594-1.549A5.656,5.656,0,0,0,478.485,206.975Z" transform="translate(-473.585 -205.709)" fill="#383838"/><path d="M462.21,213.453a3.631,3.631,0,0,0-.068-.679,6.177,6.177,0,0,0-.393-.8,2.9,2.9,0,0,0-.666-.727,6.943,6.943,0,0,0-.665.624l-.2.24h0a7.41,7.41,0,0,1,.352.965,4,4,0,0,1,.182,1.227h0s.69.182.99.267c.241.069.268.094.27.1l.075-.232A5.106,5.106,0,0,0,462.21,213.453Z" transform="translate(-452.513 -209.116)" fill="#4f4f4f"/><path d="M474.987,227.579a3.338,3.338,0,0,0-.043-.941c-.02,0-.07,0,0,0h0c.007,0,0,0-.027-.007-.1-.013-2.077-.612-2.077-.612s-.053.073-.66.644-.792.782-.792.782a4.251,4.251,0,0,0,.66.946l.466.522a3.567,3.567,0,0,0,1.256-.08c.583-.168,1.065-.343,1.065-.343A4.926,4.926,0,0,0,474.987,227.579Z" transform="translate(-468.338 -219.876)" fill="#1b1c1e"/><path d="M492.589,221.92l0,0a2.46,2.46,0,0,0-.289.392,1.332,1.332,0,0,0-.121.3,3.986,3.986,0,0,1-.431-.662c-.013-.025-.022-.051-.033-.076-.026-.071-.073-.205-.132-.367a4.868,4.868,0,0,1-.224-1.7l.111-.325.063.054c.047.039.314.185.459.264l.1.052a4.667,4.667,0,0,0,.134.952A6.65,6.65,0,0,0,492.589,221.92Z" transform="translate(-491.351 -215.12)" fill="#0a0b0d"/><path d="M462.066,231.858c.046-.11.083-.222.055-.239,0,0,.489-.337.834-.64a3.967,3.967,0,0,0,.656-.867s0,0,0-.007l.022.067A4.889,4.889,0,0,1,462.066,231.858Z" transform="translate(-454.44 -222.852)" fill="#232323"/><path d="M470.594,204.15l-.024.018s0,0-.009-.005a1.089,1.089,0,0,0-.2-.118c-.042-.021-.094-.046-.153-.073-.029-.015-.061-.028-.1-.041l-.064-.026c-.073-.032-.154-.063-.248-.1a3.07,3.07,0,0,0-1.213-.247.643.643,0,0,0-.3-.135l-.021-.007c.028,0,.056,0,.083.007h.008a4.8,4.8,0,0,1,.848.139A4.882,4.882,0,0,1,470.594,204.15Z" transform="translate(-463.083 -203.416)" fill="#4f4f4f"/><path d="M481.293,238.671c-.138-.024-.277-.051-.413-.088a1.3,1.3,0,0,1-.134-.036c.037-.011.07-.024.1-.035a.907.907,0,0,0,.117-.048.177.177,0,0,1,.027-.012l.028-.014.018-.01.036.035c.065.063.151.143.192.182Z" transform="translate(-477.172 -228.913)" fill="#232323"/></g><path d="M459.8,220.54c-.016.032-.03.06-.048.091,0-.014-.009-.029-.012-.043a.046.046,0,0,1-.006-.02s0,0,0,0a4.719,4.719,0,0,0,.319-.82,5.409,5.409,0,0,0,.006-.881l.076-.232a5.281,5.281,0,0,0,.123-.983,3.344,3.344,0,0,0-.059-.624.065.065,0,0,0,.016-.01c.009,0,.015-.008.024-.01.006.023.01.042.015.065.016.063.03.124.04.187a4.874,4.874,0,0,1,.047,1.659,5.059,5.059,0,0,1-.1.515A4.779,4.779,0,0,1,459.8,220.54Z" transform="translate(-450.557 -213.302)" fill="#bfbdaf"/><path d="M460.019,222.058c.006-.252-.01-.54-.014-.609l.071-.219a3.716,3.716,0,0,0,.105-.689,4.825,4.825,0,0,1-.143,1.445Z" transform="translate(-450.429 -215.878)" fill="#c9c7b9"/><path d="M461.379,207.508s.039.029.1.082l.052.046a2.678,2.678,0,0,1,.513.6,6.173,6.173,0,0,1,.393.8l.01.055.039-.02c-.029-.113-.062-.225-.1-.336l-.026-.076a4.934,4.934,0,0,0-1.688-2.306l-.078-.058q-.134-.1-.275-.184l-.026.019a.106.106,0,0,1,.026.026,2.61,2.61,0,0,1,.637.615,3.382,3.382,0,0,1,.313.489l.033.067A1.531,1.531,0,0,1,461.379,207.508Z" transform="translate(-452.807 -205.373)" fill="#ddd9c1"/><path d="M462.973,209.81a2.971,2.971,0,0,0-.444-.489l-.054-.047c-.038-.033-.068-.057-.086-.07-.011-.029-.033-.087-.072-.166l-.034-.069a3.448,3.448,0,0,0-.293-.464,4.854,4.854,0,0,1,.736.881Q462.86,209.592,462.973,209.81Z" transform="translate(-453.755 -207.114)" fill="#e7e3ca"/></g><path d="M471.135,210.625c-.016.032-.03.06-.048.091a4.922,4.922,0,0,1-5.077,2.437c-.138-.024-.277-.051-.413-.088a1.317,1.317,0,0,1-.134-.036s-1.266-.545-1.471-.7a4.084,4.084,0,0,1-1.277-1.444,3.99,3.99,0,0,1-.431-.662c-.013-.025-.022-.051-.033-.076-.026-.071-.073-.205-.132-.367a4.87,4.87,0,0,1-.224-1.7l.111-.325a1.152,1.152,0,0,1-.031-.358c.019-.105.042-.207.068-.313a4.909,4.909,0,0,1,5.023-3.7.014.014,0,0,1,.01,0c.028,0,.056,0,.083.007H467.1a4.866,4.866,0,0,0-3.077,1.3,5.21,5.21,0,0,0-.936,1.183,4.023,4.023,0,0,0-.556,2.195,4.816,4.816,0,0,0,.6,2.115,5.442,5.442,0,0,0,2.633,2.417c.059.024.12.047.18.069a3.992,3.992,0,0,0,3.308-.51,6.744,6.744,0,0,0,1.816-1.517s0,0,0-.007C471.092,210.613,471.116,210.605,471.135,210.625Z" transform="translate(-461.89 -203.386)" fill="#c5c5c5" style="mix-blend-mode:multiply;isolation:isolate"/></g></g></g></g></svg>