<svg xmlns="http://www.w3.org/2000/svg" xmlns:xlink="http://www.w3.org/1999/xlink" width="358.016" height="357.922" viewBox="0 0 358.016 357.922"><defs><clipPath id="a"><rect width="272" height="233" transform="translate(236.253 1539)" fill="#fff" stroke="#707070" stroke-width="1"/></clipPath></defs><g transform="translate(-211.457 -1399.19)"><path d="M146.087,218.565c-23.52,16.206-37.748,15.786-52.933,27.662s-30.371,9.4-41.759,0-15.66-28.207-15.66-44.042-1.422-23.752-15.184-44.536S-9.818,95.791,7.266,59.666,41.431,18.593,72.749,23.542s51.723,1.979,78.77-13.361,58.841-14.846,89.21,11.876S232.187,95.3,232.187,95.3,203.37,164.08,187.235,181.4,169.607,202.358,146.087,218.565Z" transform="translate(504.714 1741.89) rotate(-167)" fill="#cbcbcb"/><path d="M190.859,350.277c-23.52-16.206-37.748-15.786-52.933-27.662s-30.371-9.4-41.759,0-15.66,28.207-15.66,44.042-1.422,23.752-15.185,44.536-30.369,61.858-13.285,97.983S86.2,550.248,117.521,545.3s51.723-1.979,78.77,13.361,58.841,14.846,89.21-11.876-8.542-73.238-8.542-73.238-28.817-68.785-44.952-86.105S214.379,366.484,190.859,350.277Z" transform="translate(596.947 1151.884) rotate(47)" fill="#8de3b1"/><g transform="translate(37.747 -61)" clip-path="url(#a)"><g transform="translate(236.048 1543.031)"><g transform="translate(0 0)"><g transform="translate(3.535 3.536)" opacity="0.25" style="mix-blend-mode:multiply;isolation:isolate"><path d="M411.461,123.253v131.1a10.3,10.3,0,0,1-10.3,10.3H241.021a10.3,10.3,0,0,1-10.3-10.3v-131.1a10.292,10.292,0,0,1,10.3-10.3H401.166A10.292,10.292,0,0,1,411.461,123.253Z" transform="translate(-230.725 -111.339)" fill="#2a507a"/><path d="M411.461,123.253v18.329H230.725V123.253a10.292,10.292,0,0,1,10.3-10.3H401.166A10.292,10.292,0,0,1,411.461,123.253Z" transform="translate(-230.725 -111.339)" fill="#2a507a"/><path d="M2.324,0H18.273A2.324,2.324,0,0,1,20.6,2.324V18.273A2.324,2.324,0,0,1,18.273,20.6H2.325A2.325,2.325,0,0,1,0,18.273V2.324A2.324,2.324,0,0,1,2.324,0Z" transform="translate(7.168 38.358)" fill="#2a507a"/><rect width="20.597" height="20.597" rx="2.324" transform="translate(36.513 38.358)" fill="#2a507a"/><rect width="20.597" height="20.597" rx="2.324" transform="translate(65.858 38.358)" fill="#2a507a"/><rect width="20.597" height="20.597" rx="2.324" transform="translate(95.203 38.358)" fill="#2a507a"/><rect width="20.597" height="20.597" rx="2.324" transform="translate(124.549 38.358)" fill="none" stroke="#2a507a" stroke-miterlimit="10" stroke-width="1.302"/><rect width="20.597" height="20.597" rx="2.324" transform="translate(153.894 38.358)" fill="#2a507a"/><path d="M2.325,0H18.273A2.324,2.324,0,0,1,20.6,2.324V18.273A2.325,2.325,0,0,1,18.273,20.6H2.325A2.325,2.325,0,0,1,0,18.273V2.325A2.325,2.325,0,0,1,2.325,0Z" transform="translate(7.168 65.994)" fill="#2a507a"/><path d="M2.325,0H18.273A2.324,2.324,0,0,1,20.6,2.324V18.273A2.324,2.324,0,0,1,18.273,20.6H2.324A2.324,2.324,0,0,1,0,18.273V2.325A2.325,2.325,0,0,1,2.325,0Z" transform="translate(36.513 65.994)" fill="#2a507a"/><path d="M2.325,0H18.273A2.324,2.324,0,0,1,20.6,2.324V18.273A2.324,2.324,0,0,1,18.273,20.6H2.324A2.324,2.324,0,0,1,0,18.273V2.325A2.325,2.325,0,0,1,2.325,0Z" transform="translate(65.858 65.994)" fill="none" stroke="#2a507a" stroke-miterlimit="10" stroke-width="1.302"/><path d="M2.324,0H18.273A2.325,2.325,0,0,1,20.6,2.325V18.273A2.324,2.324,0,0,1,18.273,20.6H2.325A2.325,2.325,0,0,1,0,18.273V2.324A2.324,2.324,0,0,1,2.324,0Z" transform="translate(95.203 65.994)" fill="#2a507a"/><rect width="20.597" height="20.597" rx="2.324" transform="translate(124.549 65.994)" fill="#2a507a"/><path d="M2.324,0H18.273A2.324,2.324,0,0,1,20.6,2.324V18.273A2.325,2.325,0,0,1,18.273,20.6H2.324A2.324,2.324,0,0,1,0,18.273V2.324A2.324,2.324,0,0,1,2.324,0Z" transform="translate(153.894 65.994)" fill="#2a507a"/><path d="M2.324,0H18.273A2.324,2.324,0,0,1,20.6,2.324V18.273A2.325,2.325,0,0,1,18.273,20.6H2.325A2.325,2.325,0,0,1,0,18.273V2.324A2.324,2.324,0,0,1,2.324,0Z" transform="translate(7.168 93.63)" fill="#2a507a"/><path d="M2.324,0H18.273A2.324,2.324,0,0,1,20.6,2.324V18.273A2.324,2.324,0,0,1,18.273,20.6H2.325A2.325,2.325,0,0,1,0,18.273V2.324A2.324,2.324,0,0,1,2.324,0Z" transform="translate(36.513 93.63)" fill="#2a507a"/><path d="M2.324,0H18.273A2.324,2.324,0,0,1,20.6,2.324V18.273A2.324,2.324,0,0,1,18.273,20.6H2.325A2.325,2.325,0,0,1,0,18.273V2.324A2.324,2.324,0,0,1,2.324,0Z" transform="translate(65.858 93.63)" fill="#2a507a"/><path d="M2.324,0H18.273A2.324,2.324,0,0,1,20.6,2.324V18.273A2.325,2.325,0,0,1,18.273,20.6H2.324A2.324,2.324,0,0,1,0,18.273V2.324A2.324,2.324,0,0,1,2.324,0Z" transform="translate(95.203 93.63)" fill="#2a507a"/><path d="M2.324,0H18.273A2.324,2.324,0,0,1,20.6,2.324V18.273A2.324,2.324,0,0,1,18.273,20.6H2.325A2.325,2.325,0,0,1,0,18.273V2.324A2.324,2.324,0,0,1,2.324,0Z" transform="translate(124.549 93.63)" fill="#2a507a"/><path d="M2.324,0H18.273A2.324,2.324,0,0,1,20.6,2.324V18.273A2.324,2.324,0,0,1,18.273,20.6H2.325A2.325,2.325,0,0,1,0,18.273V2.324A2.324,2.324,0,0,1,2.324,0Z" transform="translate(153.894 93.63)" fill="#2a507a"/><path d="M2.325,0H18.273A2.324,2.324,0,0,1,20.6,2.324V18.273A2.324,2.324,0,0,1,18.273,20.6H2.325A2.325,2.325,0,0,1,0,18.273V2.325A2.325,2.325,0,0,1,2.325,0Z" transform="translate(7.168 121.267)" fill="none" stroke="#2a507a" stroke-miterlimit="10" stroke-width="1.302"/><path d="M2.324,0H18.273A2.325,2.325,0,0,1,20.6,2.325V18.273A2.324,2.324,0,0,1,18.273,20.6H2.324A2.324,2.324,0,0,1,0,18.273V2.324A2.324,2.324,0,0,1,2.324,0Z" transform="translate(36.513 121.267)" fill="#2a507a"/><path d="M2.324,0H18.273A2.325,2.325,0,0,1,20.6,2.325V18.273A2.324,2.324,0,0,1,18.273,20.6H2.324A2.324,2.324,0,0,1,0,18.273V2.324A2.324,2.324,0,0,1,2.324,0Z" transform="translate(65.858 121.267)" fill="#2a507a"/><rect width="20.597" height="20.597" rx="2.324" transform="translate(95.203 121.267)" fill="#2a507a"/><path d="M2.324,0H18.273A2.325,2.325,0,0,1,20.6,2.325V18.273A2.324,2.324,0,0,1,18.273,20.6H2.324A2.324,2.324,0,0,1,0,18.273V2.324A2.324,2.324,0,0,1,2.324,0Z" transform="translate(124.549 121.267)" fill="#2a507a"/><path d="M2.324,0H18.273A2.325,2.325,0,0,1,20.6,2.325V18.273A2.324,2.324,0,0,1,18.273,20.6H2.324A2.324,2.324,0,0,1,0,18.273V2.324A2.324,2.324,0,0,1,2.324,0Z" transform="translate(153.894 121.267)" fill="#2a507a"/><path d="M248.728,134.7a3.745,3.745,0,1,1-3.746-3.746A3.745,3.745,0,0,1,248.728,134.7Z" transform="translate(-234.1 -117.118)" fill="#2a507a"/><circle cx="3.746" cy="3.746" r="3.746" transform="translate(39.033 13.839)" fill="#2a507a"/><circle cx="3.746" cy="3.746" r="3.746" transform="translate(70.93 13.839)" fill="#2a507a"/><path d="M389.664,134.7a3.746,3.746,0,1,1-3.746-3.746A3.745,3.745,0,0,1,389.664,134.7Z" transform="translate(-279.346 -117.118)" fill="#2a507a"/><path d="M436.642,134.7a3.745,3.745,0,1,1-3.745-3.746A3.745,3.745,0,0,1,436.642,134.7Z" transform="translate(-294.428 -117.118)" fill="#2a507a"/><path d="M483.621,134.7a3.745,3.745,0,1,1-3.746-3.746A3.745,3.745,0,0,1,483.621,134.7Z" transform="translate(-309.51 -117.118)" fill="#2a507a"/><line y1="17.584" transform="translate(10.883)" fill="none" stroke="#2a507a" stroke-linecap="round" stroke-miterlimit="10" stroke-width="5.414"/><line y1="17.584" transform="translate(42.779)" fill="none" stroke="#2a507a" stroke-linecap="round" stroke-miterlimit="10" stroke-width="5.414"/><line y1="17.584" transform="translate(74.675)" fill="none" stroke="#2a507a" stroke-linecap="round" stroke-miterlimit="10" stroke-width="5.414"/><line y1="17.584" transform="translate(138.468)" fill="none" stroke="#2a507a" stroke-linecap="round" stroke-miterlimit="10" stroke-width="5.414"/><line y1="17.584" transform="translate(170.365)" fill="none" stroke="#2a507a" stroke-linecap="round" stroke-miterlimit="10" stroke-width="5.414"/><path d="M342.891,278.738" transform="translate(-266.735 -164.562)" fill="#2a507a"/><path d="M344.975,254.288a16.621,16.621,0,0,1-1.826.534,17.57,17.57,0,0,1,.7,4.614h3.313A8.046,8.046,0,0,0,344.975,254.288Zm-2.74-1.915a16.61,16.61,0,0,1,.687,1.721c.485-.113.961-.242,1.43-.4A7.656,7.656,0,0,0,342.235,252.373Zm-1.018-.363a7.91,7.91,0,0,0-1.769-.275v2.78a16.365,16.365,0,0,0,2.723-.267A16.505,16.505,0,0,0,341.218,252.01Zm1.179,2.973a17.194,17.194,0,0,1-2.949.291v4.161h3.636A16.338,16.338,0,0,0,342.4,254.983Zm-3.328-3.256c-.13,0-.251,0-.38.008h.76C339.319,251.727,339.2,251.727,339.069,251.727Zm-2.15.283a16.851,16.851,0,0,0-.953,2.23,16.213,16.213,0,0,0,2.723.275v-2.78A7.91,7.91,0,0,0,336.919,252.01Zm-3.135,1.672a14.5,14.5,0,0,0,1.43.4c.2-.582.428-1.156.687-1.713A7.927,7.927,0,0,0,333.784,253.682Zm1.955,1.293a16.671,16.671,0,0,0-.687,4.46h3.636v-4.161A17.207,17.207,0,0,1,335.74,254.975Zm-2.569-.7a8.051,8.051,0,0,0-2.19,5.163h3.313a18.008,18.008,0,0,1,.695-4.63A15.177,15.177,0,0,1,333.171,254.272Zm6.278,5.922v4.169a17.184,17.184,0,0,1,2.941.3,16.489,16.489,0,0,0,.695-4.468Zm4.4,0a17.208,17.208,0,0,1-.7,4.622,18.619,18.619,0,0,1,1.826.534,8.014,8.014,0,0,0,2.19-5.155Zm-8.613,5.357c-.485.113-.97.242-1.446.4a8.089,8.089,0,0,0,2.141,1.333C335.667,266.715,335.433,266.141,335.231,265.551Zm7.676-.008a15.76,15.76,0,0,1-.695,1.737,7.722,7.722,0,0,0,2.141-1.342C343.876,265.786,343.391,265.656,342.906,265.543Zm-3.458-.42v2.788a8.291,8.291,0,0,0,1.745-.275,15.821,15.821,0,0,0,.961-2.238A16.093,16.093,0,0,0,339.448,265.123Zm-3.466.283a17.256,17.256,0,0,0,.97,2.23,7.98,7.98,0,0,0,1.737.275v-2.788A16.11,16.11,0,0,0,335.982,265.406Zm-1.689-5.212h-3.313a8.04,8.04,0,0,0,2.19,5.172,17.571,17.571,0,0,1,1.834-.542A17.3,17.3,0,0,1,334.294,260.194Zm.759,0a16.784,16.784,0,0,0,.7,4.468,17.971,17.971,0,0,1,2.941-.3v-4.169Z" transform="translate(-262.911 -155.89)" fill="#2a507a"/><path d="M342.329,275.558c.129.007.251.007.38.007s.251,0,.38-.007" transform="translate(-266.555 -163.541)" fill="#2a507a"/><path d="M342.891,248.554" transform="translate(-266.735 -154.872)" fill="#2a507a"/><path d="M247.554,181.6l4.966,4.153,7.156-9.946" transform="translate(-236.128 -131.518)" fill="none" stroke="#2a507a" stroke-linecap="round" stroke-linejoin="round" stroke-width="3.906"/><path d="M421.25,181.6l4.966,4.153,7.156-9.946" transform="translate(-291.892 -131.518)" fill="none" stroke="#2a507a" stroke-linecap="round" stroke-linejoin="round" stroke-width="3.906"/><path d="M290.744,301.9l4.967,4.153,7.156-9.945" transform="translate(-249.994 -170.137)" fill="none" stroke="#2a507a" stroke-linecap="round" stroke-linejoin="round" stroke-width="3.906"/></g><g transform="translate(0 1.618)"><path d="M406.254,118.046v131.1a10.3,10.3,0,0,1-10.3,10.3H235.814a10.3,10.3,0,0,1-10.3-10.3v-131.1a10.292,10.292,0,0,1,10.3-10.3H395.959A10.292,10.292,0,0,1,406.254,118.046Z" transform="translate(-225.518 -107.75)" fill="#fff"/><path d="M406.254,118.046v18.329H225.518V118.046a10.292,10.292,0,0,1,10.3-10.3H395.959A10.292,10.292,0,0,1,406.254,118.046Z" transform="translate(-225.518 -107.75)" fill="#2ecb70"/></g><g transform="translate(7.168 38.358)"><path d="M2.324,0H18.273A2.324,2.324,0,0,1,20.6,2.324V18.273A2.324,2.324,0,0,1,18.273,20.6H2.325A2.325,2.325,0,0,1,0,18.273V2.324A2.324,2.324,0,0,1,2.324,0Z" fill="#ace2f9"/><rect width="20.597" height="20.597" rx="2.324" transform="translate(29.345)" fill="#ace2f9"/><rect width="20.597" height="20.597" rx="2.324" transform="translate(58.69)" fill="#ace2f9"/><rect width="20.597" height="20.597" rx="2.324" transform="translate(88.035)" fill="#ace2f9"/><rect width="20.597" height="20.597" rx="2.324" transform="translate(117.38)" fill="none" stroke="#ace2f9" stroke-miterlimit="10" stroke-width="1.302"/><rect width="20.597" height="20.597" rx="2.324" transform="translate(146.725)" fill="#ace2f9"/><g transform="translate(0 27.636)"><path d="M2.325,0H18.273A2.324,2.324,0,0,1,20.6,2.324V18.273A2.325,2.325,0,0,1,18.273,20.6H2.325A2.325,2.325,0,0,1,0,18.273V2.325A2.325,2.325,0,0,1,2.325,0Z" fill="#ace2f9"/><path d="M2.325,0H18.273A2.324,2.324,0,0,1,20.6,2.324V18.273A2.324,2.324,0,0,1,18.273,20.6H2.324A2.324,2.324,0,0,1,0,18.273V2.325A2.325,2.325,0,0,1,2.325,0Z" transform="translate(29.345)" fill="#ace2f9"/><path d="M2.325,0H18.273A2.324,2.324,0,0,1,20.6,2.324V18.273A2.324,2.324,0,0,1,18.273,20.6H2.324A2.324,2.324,0,0,1,0,18.273V2.325A2.325,2.325,0,0,1,2.325,0Z" transform="translate(58.69)" fill="none" stroke="#ace2f9" stroke-miterlimit="10" stroke-width="1.302"/><path d="M2.324,0H18.273A2.325,2.325,0,0,1,20.6,2.325V18.273A2.324,2.324,0,0,1,18.273,20.6H2.325A2.325,2.325,0,0,1,0,18.273V2.324A2.324,2.324,0,0,1,2.324,0Z" transform="translate(88.035)" fill="#ace2f9"/><path d="M2.325,0H18.273A2.324,2.324,0,0,1,20.6,2.324V18.273A2.324,2.324,0,0,1,18.273,20.6H2.324A2.324,2.324,0,0,1,0,18.273V2.325A2.325,2.325,0,0,1,2.325,0Z" transform="translate(117.38)" fill="#ace2f9"/><path d="M2.324,0H18.273A2.325,2.325,0,0,1,20.6,2.325V18.273A2.325,2.325,0,0,1,18.273,20.6H2.324A2.324,2.324,0,0,1,0,18.273V2.324A2.324,2.324,0,0,1,2.324,0Z" transform="translate(146.725)" fill="#ace2f9"/></g><g transform="translate(0 55.273)"><path d="M2.324,0H18.273A2.324,2.324,0,0,1,20.6,2.324V18.273A2.325,2.325,0,0,1,18.273,20.6H2.325A2.325,2.325,0,0,1,0,18.273V2.324A2.324,2.324,0,0,1,2.324,0Z" fill="#ace2f9"/><path d="M2.324,0H18.273A2.324,2.324,0,0,1,20.6,2.324V18.273A2.324,2.324,0,0,1,18.273,20.6H2.325A2.325,2.325,0,0,1,0,18.273V2.324A2.324,2.324,0,0,1,2.324,0Z" transform="translate(29.345)" fill="#ace2f9"/><path d="M2.324,0H18.273A2.324,2.324,0,0,1,20.6,2.324V18.273A2.324,2.324,0,0,1,18.273,20.6H2.325A2.325,2.325,0,0,1,0,18.273V2.324A2.324,2.324,0,0,1,2.324,0Z" transform="translate(58.69)" fill="#ace2f9"/><path d="M2.324,0H18.273A2.324,2.324,0,0,1,20.6,2.324V18.273A2.325,2.325,0,0,1,18.273,20.6H2.324A2.324,2.324,0,0,1,0,18.273V2.324A2.324,2.324,0,0,1,2.324,0Z" transform="translate(88.035)" fill="#ace2f9"/><path d="M2.324,0H18.273A2.324,2.324,0,0,1,20.6,2.324V18.273A2.324,2.324,0,0,1,18.273,20.6H2.325A2.325,2.325,0,0,1,0,18.273V2.324A2.324,2.324,0,0,1,2.324,0Z" transform="translate(117.38)" fill="#ace2f9"/><path d="M2.324,0H18.273A2.324,2.324,0,0,1,20.6,2.324V18.273A2.324,2.324,0,0,1,18.273,20.6H2.325A2.325,2.325,0,0,1,0,18.273V2.324A2.324,2.324,0,0,1,2.324,0Z" transform="translate(146.725)" fill="#ace2f9"/></g><g transform="translate(0 82.909)"><path d="M2.325,0H18.273A2.324,2.324,0,0,1,20.6,2.324V18.273A2.324,2.324,0,0,1,18.273,20.6H2.325A2.325,2.325,0,0,1,0,18.273V2.325A2.325,2.325,0,0,1,2.325,0Z" fill="none" stroke="#ace2f9" stroke-miterlimit="10" stroke-width="1.302"/><path d="M2.324,0H18.273A2.325,2.325,0,0,1,20.6,2.325V18.273A2.324,2.324,0,0,1,18.273,20.6H2.324A2.324,2.324,0,0,1,0,18.273V2.324A2.324,2.324,0,0,1,2.324,0Z" transform="translate(29.345)" fill="#ace2f9"/><path d="M2.324,0H18.273A2.325,2.325,0,0,1,20.6,2.325V18.273A2.324,2.324,0,0,1,18.273,20.6H2.324A2.324,2.324,0,0,1,0,18.273V2.324A2.324,2.324,0,0,1,2.324,0Z" transform="translate(58.69)" fill="#ace2f9"/><rect width="20.597" height="20.597" rx="2.324" transform="translate(88.035)" fill="#ace2f9"/><path d="M2.324,0H18.273A2.325,2.325,0,0,1,20.6,2.325V18.273A2.324,2.324,0,0,1,18.273,20.6H2.324A2.324,2.324,0,0,1,0,18.273V2.324A2.324,2.324,0,0,1,2.324,0Z" transform="translate(117.38)" fill="#ace2f9"/><path d="M2.324,0H18.273A2.325,2.325,0,0,1,20.6,2.325V18.273A2.324,2.324,0,0,1,18.273,20.6H2.324A2.324,2.324,0,0,1,0,18.273V2.324A2.324,2.324,0,0,1,2.324,0Z" transform="translate(146.725)" fill="#ace2f9"/></g></g><g transform="translate(7.137 13.839)"><path d="M243.52,129.495a3.745,3.745,0,1,1-3.745-3.746A3.745,3.745,0,0,1,243.52,129.495Z" transform="translate(-236.029 -125.749)" fill="#bde7ff"/><circle cx="3.746" cy="3.746" r="3.746" transform="translate(31.897 0)" fill="#bde7ff"/><circle cx="3.746" cy="3.746" r="3.746" transform="translate(63.793 0)" fill="#bde7ff"/><path d="M384.456,129.495a3.745,3.745,0,1,1-3.745-3.746A3.746,3.746,0,0,1,384.456,129.495Z" transform="translate(-281.275 -125.749)" fill="#bde7ff"/><path d="M431.435,129.495a3.746,3.746,0,1,1-3.746-3.746A3.746,3.746,0,0,1,431.435,129.495Z" transform="translate(-296.357 -125.749)" fill="#bde7ff"/><path d="M478.413,129.495a3.745,3.745,0,1,1-3.745-3.746A3.745,3.745,0,0,1,478.413,129.495Z" transform="translate(-311.44 -125.749)" fill="#bde7ff"/></g><g transform="translate(10.882)"><line y1="17.584" fill="none" stroke="#9343cc" stroke-linecap="round" stroke-miterlimit="10" stroke-width="5.414"/></g><g transform="translate(42.779)"><line y1="17.584" fill="none" stroke="#9343cc" stroke-linecap="round" stroke-miterlimit="10" stroke-width="5.414"/></g><g transform="translate(74.675)"><line y1="17.584" fill="none" stroke="#9343cc" stroke-linecap="round" stroke-miterlimit="10" stroke-width="5.414"/></g><g transform="translate(138.468)"><line y1="17.584" fill="none" stroke="#9343cc" stroke-linecap="round" stroke-miterlimit="10" stroke-width="5.414"/></g><g transform="translate(106.219)"><line y1="17.584" fill="none" stroke="#9343cc" stroke-linecap="round" stroke-miterlimit="10" stroke-width="5.414"/></g><g transform="translate(170.365)"><line y1="17.584" fill="none" stroke="#9343cc" stroke-linecap="round" stroke-miterlimit="10" stroke-width="5.414"/></g><g transform="translate(76.155 114.176)"><path d="M337.683,273.531" transform="translate(-337.683 -273.531)" fill="#fff"/></g><path d="M242.346,176.4l4.966,4.153,7.156-9.946" transform="translate(-230.921 -126.31)" fill="none" stroke="#2ecb70" stroke-linecap="round" stroke-linejoin="round" stroke-width="3.906"/><path d="M416.043,176.4l4.966,4.153,7.156-9.946" transform="translate(-286.685 -126.31)" fill="none" stroke="#2ecb70" stroke-linecap="round" stroke-linejoin="round" stroke-width="3.906"/><path d="M285.537,296.689l4.966,4.152,7.156-9.945" transform="translate(-244.787 -164.93)" fill="none" stroke="#2ecb70" stroke-linecap="round" stroke-linejoin="round" stroke-width="3.906"/></g><g transform="translate(71.219 23.662)"><g transform="translate(0.311 0.311)" opacity="0.25" style="mix-blend-mode:multiply;isolation:isolate"><rect width="13.233" height="9.802" transform="translate(61.741 43.803) rotate(-31.727)" fill="#2a507a"/><path d="M421.805,201.9h0a16.582,16.582,0,0,1,11.256-6.959h0Z" transform="translate(-360.065 -158.097)" fill="#2a507a"/><rect width="9.802" height="13.233" transform="matrix(0.526, -0.851, 0.851, 0.526, 152.657, 45.182)" fill="#2a507a"/><path d="M574.559,201.9h0a16.584,16.584,0,0,0-11.256-6.959h0Z" transform="translate(-405.491 -158.097)" fill="#2a507a"/><rect width="20.707" height="6.77" transform="translate(105.05 29.482)" fill="#2a507a"/><path d="M508.272,162.651v13.725H480.086V162.651A39.458,39.458,0,0,1,508.272,162.651Z" transform="translate(-378.775 -146.895)" fill="#2a507a"/><line y1="13.723" transform="translate(102.906 15.759)" fill="none" stroke="#2a507a" stroke-miterlimit="10" stroke-width="1.083"/><line y1="13.723" transform="translate(105.156 15.759)" fill="none" stroke="#2a507a" stroke-miterlimit="10" stroke-width="1.083"/><line y1="13.723" transform="translate(107.406 15.759)" fill="none" stroke="#2a507a" stroke-miterlimit="10" stroke-width="1.083"/><line y1="13.723" transform="translate(109.656 15.759)" fill="none" stroke="#2a507a" stroke-miterlimit="10" stroke-width="1.083"/><line y1="13.723" transform="translate(111.906 15.759)" fill="none" stroke="#2a507a" stroke-miterlimit="10" stroke-width="1.083"/><line y1="13.723" transform="translate(114.156 15.759)" fill="none" stroke="#2a507a" stroke-miterlimit="10" stroke-width="1.083"/><line y1="13.723" transform="translate(116.406 15.759)" fill="none" stroke="#2a507a" stroke-miterlimit="10" stroke-width="1.083"/><line y1="13.723" transform="translate(118.656 15.759)" fill="none" stroke="#2a507a" stroke-miterlimit="10" stroke-width="1.083"/><line y1="13.723" transform="translate(120.906 15.759)" fill="none" stroke="#2a507a" stroke-miterlimit="10" stroke-width="1.083"/><line y1="13.723" transform="translate(123.156 15.759)" fill="none" stroke="#2a507a" stroke-miterlimit="10" stroke-width="1.083"/><line y1="13.723" transform="translate(125.406 15.759)" fill="none" stroke="#2a507a" stroke-miterlimit="10" stroke-width="1.083"/><line y1="13.723" transform="translate(127.656 15.759)" fill="none" stroke="#2a507a" stroke-miterlimit="10" stroke-width="1.083"/><path d="M508.272,162.651H480.086A39.458,39.458,0,0,1,508.272,162.651Z" transform="translate(-378.775 -146.895)" fill="#2a507a"/><circle cx="81.603" cy="81.603" r="81.603" transform="translate(0 115.404) rotate(-45)" fill="#2a507a"/><circle cx="73.516" cy="73.516" r="73.516" transform="translate(11.436 115.404) rotate(-45)" fill="#2a507a" opacity="0.7"/><circle cx="70.943" cy="70.943" r="70.943" transform="translate(44.461 44.461)" fill="#2a507a"/><line x1="6.984" transform="translate(174.952 115.404)" fill="none" stroke="#2a507a" stroke-linecap="round" stroke-miterlimit="10" stroke-width="5.414"/><line y1="6.984" transform="translate(115.404 174.952)" fill="none" stroke="#2a507a" stroke-linecap="round" stroke-miterlimit="10" stroke-width="5.414"/><line x2="6.984" transform="translate(48.872 115.404)" fill="none" stroke="#2a507a" stroke-linecap="round" stroke-miterlimit="10" stroke-width="5.414"/><line y2="6.984" transform="translate(115.404 48.872)" fill="none" stroke="#2a507a" stroke-linecap="round" stroke-miterlimit="10" stroke-width="5.414"/><line x1="6.048" y1="3.492" transform="translate(166.973 145.18)" fill="none" stroke="#2a507a" stroke-linecap="round" stroke-miterlimit="10" stroke-width="3.248"/><line y1="6.048" x2="3.492" transform="translate(82.135 166.973)" fill="none" stroke="#2a507a" stroke-linecap="round" stroke-miterlimit="10" stroke-width="3.248"/><line x2="6.048" y2="3.492" transform="translate(57.787 82.135)" fill="none" stroke="#2a507a" stroke-linecap="round" stroke-miterlimit="10" stroke-width="3.248"/><line x1="3.492" y2="6.048" transform="translate(145.18 57.787)" fill="none" stroke="#2a507a" stroke-linecap="round" stroke-miterlimit="10" stroke-width="3.248"/><line x1="3.491" y1="6.049" transform="translate(145.168 166.979)" fill="none" stroke="#2a507a" stroke-linecap="round" stroke-miterlimit="10" stroke-width="3.248"/><line y1="3.491" x2="6.049" transform="translate(57.779 145.168)" fill="none" stroke="#2a507a" stroke-linecap="round" stroke-miterlimit="10" stroke-width="3.248"/><line x2="3.491" y2="6.049" transform="translate(82.148 57.779)" fill="none" stroke="#2a507a" stroke-linecap="round" stroke-miterlimit="10" stroke-width="3.248"/><line x1="6.049" y2="3.491" transform="translate(166.979 82.148)" fill="none" stroke="#2a507a" stroke-linecap="round" stroke-miterlimit="10" stroke-width="3.248"/><path d="M516.984,313.385a2.2,2.2,0,0,1-1.784-.906l-18.007-24.705,17.72-48a2.206,2.206,0,0,1,4.138,1.528l-16.9,45.788,16.615,22.8a2.206,2.206,0,0,1-1.781,3.5Z" transform="translate(-384.267 -172.025)" fill="#2a507a"/><circle cx="5.514" cy="5.514" r="5.514" transform="translate(109.89 109.89)" fill="#2a507a"/></g><g transform="translate(0 0)"><g transform="translate(0)"><g transform="translate(61.741 36.845)"><g transform="translate(0 0)"><rect width="13.233" height="9.802" transform="translate(0 6.959) rotate(-31.727)" fill="#662594"/><path d="M416.6,196.693h0a16.581,16.581,0,0,1,11.255-6.959h0Z" transform="translate(-416.598 -189.734)" fill="#662594"/></g><g transform="translate(90.916 0)"><rect width="9.802" height="13.233" transform="matrix(0.526, -0.851, 0.851, 0.526, 0, 8.337)" fill="#662594"/><path d="M569.351,196.693h0a16.581,16.581,0,0,0-11.256-6.959h0Z" transform="translate(-552.941 -189.734)" fill="#662594"/></g></g><g transform="translate(101.311 13.154)"><rect width="20.707" height="6.77" transform="translate(3.739 16.328)" fill="#2ecb70"/><path d="M503.065,157.443v13.726H474.879V157.443A39.457,39.457,0,0,1,503.065,157.443Z" transform="translate(-474.879 -154.841)" fill="#1f9a52"/><g transform="translate(1.595 2.605)"><line y1="13.723" fill="none" stroke="#fff" stroke-miterlimit="10" stroke-width="1.083"/><g transform="translate(2.25)"><line y1="13.723" fill="none" stroke="#fff" stroke-miterlimit="10" stroke-width="1.083"/></g><g transform="translate(4.5)"><line y1="13.723" fill="none" stroke="#fff" stroke-miterlimit="10" stroke-width="1.083"/></g><g transform="translate(6.75)"><line y1="13.723" fill="none" stroke="#fff" stroke-miterlimit="10" stroke-width="1.083"/></g><g transform="translate(9)"><line y1="13.723" fill="none" stroke="#fff" stroke-miterlimit="10" stroke-width="1.083"/></g><g transform="translate(11.25)"><line y1="13.723" fill="none" stroke="#fff" stroke-miterlimit="10" stroke-width="1.083"/></g><g transform="translate(13.5)"><line y1="13.723" fill="none" stroke="#fff" stroke-miterlimit="10" stroke-width="1.083"/></g><g transform="translate(15.75)"><line y1="13.723" fill="none" stroke="#fff" stroke-miterlimit="10" stroke-width="1.083"/></g><g transform="translate(18)"><line y1="13.723" fill="none" stroke="#fff" stroke-miterlimit="10" stroke-width="1.083"/></g><g transform="translate(20.25)"><line y1="13.723" fill="none" stroke="#fff" stroke-miterlimit="10" stroke-width="1.083"/></g><g transform="translate(22.5)"><line y1="13.723" fill="none" stroke="#fff" stroke-miterlimit="10" stroke-width="1.083"/></g><g transform="translate(24.75)"><line y1="13.723" fill="none" stroke="#fff" stroke-miterlimit="10" stroke-width="1.083"/></g></g><path d="M503.065,157.443H474.879A39.457,39.457,0,0,1,503.065,157.443Z" transform="translate(-474.879 -154.841)" fill="#2ecb70"/></g><circle cx="81.603" cy="81.603" r="81.603" transform="translate(0 115.404) rotate(-45)" fill="#9343cc"/><circle cx="73.516" cy="73.516" r="73.516" transform="translate(11.436 115.404) rotate(-45)" fill="#ace2f9" opacity="0.7"/><g transform="translate(44.461 44.461)"><circle cx="70.943" cy="70.943" r="70.943" fill="#fff"/></g><g transform="translate(48.872 48.872)"><g transform="translate(126.08 66.532)"><line x1="6.984" fill="none" stroke="#2ecb70" stroke-linecap="round" stroke-miterlimit="10" stroke-width="5.414"/></g><g transform="translate(66.532 126.08)"><line y1="6.984" fill="none" stroke="#2ecb70" stroke-linecap="round" stroke-miterlimit="10" stroke-width="5.414"/></g><g transform="translate(0 66.532)"><line x2="6.984" fill="none" stroke="#2ecb70" stroke-linecap="round" stroke-miterlimit="10" stroke-width="5.414"/></g><g transform="translate(66.532)"><line y2="6.984" fill="none" stroke="#2ecb70" stroke-linecap="round" stroke-miterlimit="10" stroke-width="5.414"/></g></g><g transform="translate(57.779 57.779)" opacity="0.3"><g transform="translate(109.193 87.401)"><line x1="6.048" y1="3.492" fill="none" stroke="#101747" stroke-linecap="round" stroke-miterlimit="10" stroke-width="3.248"/></g><g transform="translate(24.356 109.193)"><line y1="6.048" x2="3.492" fill="none" stroke="#101747" stroke-linecap="round" stroke-miterlimit="10" stroke-width="3.248"/></g><g transform="translate(0.007 24.356)"><line x2="6.048" y2="3.492" fill="none" stroke="#101747" stroke-linecap="round" stroke-miterlimit="10" stroke-width="3.248"/></g><g transform="translate(87.401 0.008)"><line x1="3.492" y2="6.048" fill="none" stroke="#101747" stroke-linecap="round" stroke-miterlimit="10" stroke-width="3.248"/></g><g transform="translate(87.389 109.2)"><line x1="3.491" y1="6.049" fill="none" stroke="#101747" stroke-linecap="round" stroke-miterlimit="10" stroke-width="3.248"/></g><g transform="translate(0 87.389)"><line y1="3.491" x2="6.049" fill="none" stroke="#101747" stroke-linecap="round" stroke-miterlimit="10" stroke-width="3.248"/></g><g transform="translate(24.369)"><line x2="3.491" y2="6.049" fill="none" stroke="#101747" stroke-linecap="round" stroke-miterlimit="10" stroke-width="3.248"/></g><g transform="translate(109.2 24.369)"><line x1="6.049" y2="3.491" fill="none" stroke="#101747" stroke-linecap="round" stroke-miterlimit="10" stroke-width="3.248"/></g></g><g transform="translate(112.926 66.301)"><path d="M511.776,308.177a2.2,2.2,0,0,1-1.784-.906l-18.006-24.7,17.719-48a2.206,2.206,0,1,1,4.138,1.528l-16.9,45.788,16.615,22.8a2.2,2.2,0,0,1-1.781,3.5Z" transform="translate(-491.986 -233.119)" fill="#cbcbcb"/></g><g transform="translate(109.89 109.89)"><circle cx="5.514" cy="5.514" r="5.514" fill="#2ecb70"/></g></g></g></g></g></g></g></svg>