<svg xmlns="http://www.w3.org/2000/svg" width="36.945" height="36.945" viewBox="0 0 36.945 36.945"><g transform="translate(0 0)"><path d="M75.939,117.059h0A18.473,18.473,0,0,1,57.467,98.587h0A18.473,18.473,0,0,1,75.939,80.114h0A18.473,18.473,0,0,1,94.412,98.587h0A18.473,18.473,0,0,1,75.939,117.059Z" transform="translate(-57.467 -80.114)" fill="#29a9e1"/><path d="M74.222,114.631a11.486,11.486,0,0,0,17.669-10.2,8.179,8.179,0,0,0,2.015-2.091,8.047,8.047,0,0,1-2.319.636,4.045,4.045,0,0,0,1.775-2.234,8.1,8.1,0,0,1-2.564.981,4.041,4.041,0,0,0-6.882,3.683,11.462,11.462,0,0,1-8.324-4.22,4.044,4.044,0,0,0,1.25,5.392,4.034,4.034,0,0,1-1.83-.505,4.043,4.043,0,0,0,3.239,4.011,4.044,4.044,0,0,1-1.823.069,4.04,4.04,0,0,0,3.772,2.8A8.116,8.116,0,0,1,74.222,114.631Z" transform="translate(-65.592 -89.975)" fill="#fff"/></g></svg>