<svg xmlns="http://www.w3.org/2000/svg" width="36.945" height="36.945" viewBox="0 0 36.945 36.945"><g transform="translate(0)"><path d="M180.331,320.305h0a18.473,18.473,0,0,1-18.472-18.473h0a18.472,18.472,0,0,1,18.472-18.472h0A18.473,18.473,0,0,1,198.8,301.832h0A18.473,18.473,0,0,1,180.331,320.305Z" transform="translate(-161.859 -283.36)" fill="#57f676"/><g transform="translate(8.34 8.338)"><path d="M198.311,309.17a9.951,9.951,0,0,0-19.883-.181c0,.144-.009.289-.009.433a9.8,9.8,0,0,0,1.425,5.1l-1.794,5.3,5.51-1.751a9.961,9.961,0,0,0,14.755-8.644C198.316,309.338,198.316,309.254,198.311,309.17Zm-9.944,8.551a8.332,8.332,0,0,1-4.6-1.374l-3.214,1.024,1.044-3.083A8.218,8.218,0,0,1,180,309.422a7.884,7.884,0,0,1,.042-.806,8.368,8.368,0,0,1,16.66.158c.019.214.028.429.028.647A8.342,8.342,0,0,1,188.368,317.721Z" transform="translate(-178.051 -299.548)" fill="#fff" fill-rule="evenodd"/><path d="M198.071,316.466c-.247-.121-1.444-.708-1.667-.787s-.387-.121-.55.121-.634.787-.773.945-.284.182-.531.061a6.6,6.6,0,0,1-1.96-1.2,7.244,7.244,0,0,1-1.356-1.672c-.14-.242-.014-.373.107-.494s.243-.284.368-.423c.033-.042.061-.079.089-.116a2.733,2.733,0,0,0,.154-.289.439.439,0,0,0-.019-.424c-.061-.121-.55-1.314-.755-1.8s-.405-.4-.55-.4-.3-.023-.466-.023a.9.9,0,0,0-.652.3,2.71,2.71,0,0,0-.852,2.021,3.09,3.09,0,0,0,.126.825,5.5,5.5,0,0,0,.871,1.677,10.014,10.014,0,0,0,4.163,3.656c2.483.964,2.483.642,2.93.6a2.434,2.434,0,0,0,1.644-1.15,2,2,0,0,0,.144-1.151C198.475,316.647,198.313,316.587,198.071,316.466Z" transform="translate(-183.195 -304.599)" fill="#fff" fill-rule="evenodd"/></g></g></svg>